<svg version="1.1" id="logo" xmlns="http://www.w3.org/2000/svg" xmlns:xlink="http://www.w3.org/1999/xlink" x="0px" y="0px"
	 width="400px" height="72.511px" viewBox="0 0 400 72.511" enable-background="new 0 0 400 72.511" xml:space="preserve">
<g>
	<path fill="#FFFFFF" d="M204.446,48.024c-2.102,9.198-3.287,14.678-3.894,17.565h7.604L204.446,48.024z"/>
	<path fill="#FFFFFF" d="M169.334,48.726l-3.448,16.863h7.18C172.469,62.744,171.33,57.482,169.334,48.726z"/>
	<path fill="#FFFFFF" d="M186.628,10.258h0.357c0.173,0.083,0.474,0.233,0.835,0.419v-8.48h-2.021v8.467
		C186.151,10.487,186.448,10.343,186.628,10.258z"/>
	<g>
		<path fill="#FFFFFF" d="M184.421,2.386c0-1.316,1.069-2.386,2.389-2.386c1.321,0,2.388,1.069,2.388,2.386
			c0,1.325-1.067,2.39-2.388,2.39C185.49,4.776,184.421,3.71,184.421,2.386z"/>
	</g>
	<path fill="#FFFFFF" d="M186.812,26.114c7.029,0,13.093,1.208,17.159,3.168
		c-2.848-11.984-15.22-18.193-16.985-19.023h-0.357c-1.893,0.868-14.279,6.96-17.034,19.048
		C173.658,27.331,179.75,26.114,186.812,26.114z"/>
	<g>
		<path fill="#FFFFFF" d="M186.953,65.822c-6.072,0-10.998,1.492-10.998,3.348c0,1.844,4.926,3.342,10.998,3.342
			c6.074,0,10.995-1.498,10.995-3.342C197.948,67.314,193.027,65.822,186.953,65.822z M186.953,70.39
			c-3.465,0-6.271-0.473-6.271-1.062c0-0.577,2.807-1.052,6.271-1.052c3.462,0,6.274,0.475,6.274,1.052
			C193.227,69.917,190.415,70.39,186.953,70.39z"/>
	</g>
	<path fill="#FFFFFF" d="M204.452,32.371c-3.324-2.087-9.663-3.751-17.64-3.751c-8.005,0-14.36,1.674-17.672,3.769
		c-0.208,2.338-0.068,4.86,0.567,7.596c3.325,14.349,4.981,22.007,5.715,25.512c2.164-1.242,5.313-1.775,7.823-2.007l0.55-3.856
		h6.403l0.525,3.888c2.449,0.253,5.413,0.792,7.476,1.979c0.725-3.449,2.378-11.122,5.713-25.516
		C204.544,37.249,204.676,34.721,204.452,32.371z M184.945,49.93l1.351-8.655c0.25-1.549,0.502-3.697,0.652-5.253h0.097
		c0.152,1.556,0.4,3.704,0.653,5.253l1.4,8.655H184.945z"/>
	<g>
		<path fill="#FFFFFF" d="M13.102,58.623C3.721,58.623,0,55.344,0,45.889v-1.358c0-9.451,3.721-12.69,13.102-12.69
			c1.776,0,6.789,0.339,8.394,0.85v6.956c-1.944-0.128-4.403-0.231-6.789-0.231c-2.219,0-3.309,0.442-3.309,5.116v1.358
			c0,4.747,1.09,5.155,3.343,5.155c2.386,0,4.811-0.104,6.755-0.236v6.96C19.891,58.284,14.878,58.623,13.102,58.623z"/>
		<path fill="#FFFFFF" d="M40.327,57.907l-0.549-4.064h-4.364l-0.58,4.064H23.196l5.188-25.354h18.285l5.36,25.354H40.327z
			 M38.074,41.324c-0.171-1.056-0.343-2.528-0.446-3.587h-0.064c-0.107,1.059-0.274,2.531-0.446,3.587l-0.919,5.901h2.829
			L38.074,41.324z"/>
		<path fill="#FFFFFF" d="M74.066,57.907v-7.845c0-1.065,0.035-2.288,0.133-3.454H74.13c-0.408,0.888-0.918,1.849-1.429,2.457
			l-1.709,2.086h-3.445l-1.742-2.086c-0.507-0.608-0.988-1.569-1.399-2.457h-0.064c0.064,1.166,0.099,2.389,0.099,3.454v7.845
			H53.729V32.553h9.451l4.402,6.077c0.545,0.746,1.125,1.708,1.64,2.694h0.064c0.545-0.986,1.095-1.948,1.64-2.694l4.433-6.077
			h9.454v25.354H74.066z"/>
		<path fill="#FFFFFF" d="M99.82,50.67c-0.687,0-0.957,0-1.944-0.034v7.271H87.199V32.553c3.889-0.477,6.922-0.648,11.085-0.648
			c7.78,0,14.191,1.33,14.191,9.218v0.163C112.475,49.31,106.029,50.67,99.82,50.67z M101.764,41.123
			c0-1.639-0.716-2.051-2.391-2.051c-0.545,0-1.193,0.035-1.498,0.072v4.227c0.374,0.035,0.953,0.035,1.533,0.035
			c1.64,0,2.356-0.619,2.356-2.12V41.123z"/>
		<path fill="#FFFFFF" d="M127.315,58.623c-7.849,0-12.965-3.383-12.965-10.646V32.553h11.056v15.423c0,2.553,0.24,3.373,1.91,3.373
			c1.704,0,1.944-0.82,1.944-3.373V32.553h11.024v15.423C140.284,55.24,135.164,58.623,127.315,58.623z"/>
		<path fill="#FFFFFF" d="M154.231,58.623c-4.334,0-8.359-0.373-11.054-0.924v-6.316c2.454,0.143,4.746,0.378,9.145,0.378
			c1.605,0,1.978-0.446,1.978-1.055c0-0.682-0.339-0.854-2.249-1.641l-2.699-1.089c-3.99-1.605-6.925-3.068-6.925-8.119
			c0-6.008,4.569-8.017,12.281-8.017c3.857,0,7.369,0.579,9.69,1.056v6.072c-3.579-0.236-5.63-0.412-9.008-0.412
			c-1.463,0-2.081,0.211-2.081,0.858c0,0.548,0.31,0.747,2.05,1.428l2.456,0.959c5.186,2.016,7.535,3.646,7.535,8.188
			C165.35,56.301,160.647,58.623,154.231,58.623z"/>
		<path fill="#FFFFFF" d="M229.331,57.907v-7.845c0-1.065,0.035-2.288,0.139-3.454H229.4c-0.411,0.888-0.926,1.849-1.438,2.457
			l-1.702,2.086h-3.442l-1.745-2.086c-0.516-0.608-0.983-1.569-1.396-2.457h-0.069c0.069,1.166,0.104,2.389,0.104,3.454v7.845
			h-10.716V32.553h9.454l4.402,6.077c0.541,0.746,1.125,1.708,1.63,2.694h0.07c0.549-0.986,1.09-1.948,1.639-2.694l4.438-6.077
			h9.444v25.354H229.331z"/>
		<path fill="#FFFFFF" d="M253.037,58.588c-2.764,0-6.277-0.177-10.578-0.682V32.553c4.743-0.544,8.223-0.712,10.544-0.712
			c9.384,0,14.198,1.802,14.198,7.879v0.304c0,2.225-0.647,3.889-2.287,4.954c1.944,1.09,2.426,3.233,2.426,4.767v0.352
			C267.339,56.984,261.88,58.588,253.037,58.588z M256.69,40.303c0-1.266-0.584-1.709-2.425-1.709c-0.339,0-0.713,0-1.159,0.069
			v3.75h1.159c2.086,0,2.425-0.411,2.425-1.875V40.303z M256.69,49.616c0-1.502-0.55-1.782-2.317-1.782h-1.267v3.893
			c0.412,0.068,0.785,0.068,1.267,0.068c1.979,0,2.317-0.412,2.317-1.806V49.616z"/>
		<path fill="#FFFFFF" d="M282.514,58.623c-7.845,0-12.965-3.383-12.965-10.646V32.553h11.056v15.423
			c0,2.553,0.235,3.373,1.909,3.373c1.703,0,1.947-0.82,1.947-3.373V32.553h11.021v15.423
			C295.482,55.24,290.363,58.623,282.514,58.623z"/>
		<path fill="#FFFFFF" d="M298.375,57.907V32.553h11.29v18.083h7.436v7.271H298.375z"/>
		<path fill="#FFFFFF" d="M336.448,57.907l-0.55-4.064h-4.368l-0.575,4.064h-11.633l5.182-25.354h18.285l5.361,25.354H336.448z
			 M334.191,41.324c-0.168-1.056-0.34-2.528-0.438-3.587h-0.069c-0.104,1.059-0.278,2.531-0.442,3.587l-0.927,5.901h2.837
			L334.191,41.324z"/>
		<path fill="#FFFFFF" d="M366.294,57.907l-4.875-7.063c-0.618-0.889-1.057-1.778-1.403-2.459h-0.098c0,0.892,0,1.771,0,2.66v6.862
			h-10.069V32.553h9.558l5.223,7.093c0.645,0.893,1.125,1.815,1.498,2.694h0.067c-0.032-0.235-0.067-1.394-0.067-2.856v-6.931
			h10.063v25.354H366.294z"/>
		<path fill="#FFFFFF" d="M378.916,57.907v-6.558l7.674-11.665h-7.639v-7.131h21.015v6.72l-7.673,11.501H400v7.133H378.916z"/>
	</g>
</g>
</svg>
