<?xml version="1.0" encoding="utf-8"?>
<!-- Generator: Adobe Illustrator 15.0.0, SVG Export Plug-In . SVG Version: 6.00 Build 0)  -->
<!DOCTYPE svg PUBLIC "-//W3C//DTD SVG 1.1//EN" "http://www.w3.org/Graphics/SVG/1.1/DTD/svg11.dtd">
<svg version="1.1" id="tippF_ha_planeten" xmlns="http://www.w3.org/2000/svg" xmlns:xlink="http://www.w3.org/1999/xlink" x="0px"
	 y="0px" width="315.278px" height="66.821px" viewBox="0.001 17.983 315.278 66.821"
	 enable-background="new 0.001 17.983 315.278 66.821" xml:space="preserve">
<path fill="#4E5F17" d="M55.701,20.784c6.051,7.107,8.914,16.815,6.96,26.688c-3.393,17.149-20.034,28.304-37.17,24.913
	C8.357,68.994-2.784,52.344,0.61,35.195c1.168-5.905,3.908-11.1,7.697-15.234C8.554,19.69,53.6,19.113,55.701,20.784z"/>
<path fill="#6F8821" d="M54.293,21.337c5.254,6.659,7.672,15.492,5.896,24.469C56.966,62.09,41.163,72.682,24.892,69.462
	C8.62,66.243-1.959,50.432,1.264,34.147c0.929-4.694,3.737-10.617,5.632-12.468C13.952,19.923,37.746,19.054,54.293,21.337z"/>
<polygon fill="#4E5F17" points="62.097,24.616 57.513,22.756 60.557,21.121 56.048,18.886 39.617,19.064 34.229,18.171 
	33.896,19.126 29.624,19.173 27.444,19.188 27.158,17.983 23.86,18.466 20.896,19.233 12.831,19.29 4.332,19.342 7.942,20.416 
	2.645,20.851 6.41,22.045 3.223,23.557 5.554,23.817 16.115,21.81 21.948,21.475 23.834,25.195 21.258,31.28 25.935,34.152 
	25.267,40.113 28.586,32.939 25.826,29.109 28.354,23.019 27.906,21.134 29.414,21.047 33.081,21.468 32.665,22.662 38.321,32.855 
	31.801,39.84 36.55,48.678 28.806,57.115 43.94,48.578 40.928,41.03 49.349,31.741 45.587,23.093 58.9,25.286 "/>
<path fill="#4E5F17" d="M308.82,20.343c5.324,8.746,7.515,19.438,5.37,30.278c-4.545,22.97-26.835,37.91-49.785,33.369
	c-22.951-4.541-37.872-26.844-33.327-49.814c0.894-4.515,2.473-8.72,4.607-12.528C238.256,19.4,307.971,18.694,308.82,20.343z"/>
<path fill="#6F8821" d="M310.869,48.396c-4.317,21.812-25.48,35.996-47.272,31.685c-21.795-4.313-35.961-25.489-31.646-47.301
	c0.495-2.501,1.212-4.901,2.125-7.186c5.596-6.14,71.185-6.467,73.236-3.179C311.23,30.158,312.685,39.221,310.869,48.396z"/>
<path fill="#4E5F17" d="M315.28,19.652l-5.161-1.081l2.412-0.568l-77.602,0.683l-4.89,1.734l4.76,2.797l-5.164,0.805l4.16,2.296
	l-2.136,1.245l0.771,1.468l16.288-1.359l-0.018,0.002l6.505,7.264l-3.917,10.252l8.102,2.92l-0.214,7.523l6.067-8.125l-5.519-5.775
	l3.926-9.205l-2.369-6.499l-0.037,0.006c3.731-0.611,8.023-1.279,10.317-1.518l-4.481,6.593l7.982,9.573l-2.841,5.332l3.349,12.965
	l-4.854,10.398l9.945-7.942l-0.316-14.021l3.471-9.65l-5.002-6.262l3.908-6.439l-0.593-0.09c1.385,0.031,2.858,0.06,4.383,0.085
	l-1.689,2.591l1.729,3.75l-0.556,2.625l1.01,2.21l0.237-2.111l1.491-3.229l-0.616-3.465l2.163-2.313
	c8.741,0.119,17.565,0.161,17.565,0.161l4.374,2.056l2.484-2.585l-2.857-2.197L315.28,19.652z"/>
</svg>
