<svg version="1.1" id="portfolio-bg" xmlns="http://www.w3.org/2000/svg" xmlns:xlink="http://www.w3.org/1999/xlink" x="0px"
	 y="0px" width="1280px" height="1280px" viewBox="0 0 1280 1280" enable-background="new 0 0 1280 1280" xml:space="preserve">
<g opacity="0.25">
	<path fill="#FFFFFF" d="M824.618,382.562c-0.673,0.072-1.316-0.057-1.901-0.314l2.544,23.715c0.099,0.914,0.919,1.576,1.833,1.479
		l74.244-7.963c0.915-0.098,1.576-0.92,1.479-1.834l-2.544-23.715c-0.517,0.377-1.119,0.639-1.792,0.711L824.618,382.562z"/>
	<path fill="#FFFFFF" d="M896.006,349.763l-31.156,3.342l-0.213-1.988c-0.178-1.645-1.658-2.84-3.303-2.664l-5.968,0.641
		c-1.645,0.176-2.839,1.658-2.662,3.303l0.214,1.988l-31.156,3.342c-0.915,0.098-1.576,0.92-1.479,1.834l2.063,19.225
		c0.117,1.098,1.041,1.898,2.061,1.791l73.861-7.924c1.02-0.109,1.751-1.088,1.633-2.186l-2.062-19.225
		C897.74,350.328,896.92,349.666,896.006,349.763z M854.694,352.183c-0.059-0.549,0.34-1.043,0.888-1.102l5.967-0.641
		c0.548-0.059,1.042,0.34,1.101,0.889l0.214,1.988l-7.955,0.854L854.694,352.183z"/>
</g>
<g opacity="0.25">
	<path fill="#FFFFFF" d="M317.067,1007.336c-0.412,0.102-0.822,0.072-1.206-0.041l3.505,14.512c0.136,0.562,0.698,0.904,1.257,0.771
		l45.432-10.974c0.56-0.135,0.903-0.698,0.769-1.258l-3.505-14.512c-0.29,0.275-0.643,0.488-1.055,0.588L317.067,1007.336z"/>
	<path fill="#FFFFFF" d="M358.706,981.182l-19.063,4.605l-0.294-1.217c-0.244-1.006-1.26-1.627-2.267-1.386l-3.649,0.884
		c-1.007,0.241-1.627,1.26-1.385,2.266l0.294,1.217l-19.065,4.604c-0.56,0.135-0.903,0.698-0.768,1.26l2.841,11.762
		c0.162,0.672,0.8,1.097,1.424,0.945l45.197-10.916c0.624-0.15,0.998-0.818,0.836-1.49l-2.841-11.764
		C359.829,981.391,359.267,981.047,358.706,981.182z M333.264,986.039c-0.081-0.334,0.126-0.674,0.461-0.754l3.651-0.883
		c0.335-0.082,0.674,0.125,0.755,0.463l0.294,1.215l-4.867,1.176L333.264,986.039z"/>
</g>
<g opacity="0.25">
	<path fill="#FFFFFF" d="M925.868,1196.64c-0.411,0.103-0.821,0.072-1.207-0.041l3.507,14.513c0.135,0.561,0.696,0.903,1.257,0.77
		l45.431-10.973c0.562-0.135,0.904-0.699,0.77-1.258l-3.506-14.513c-0.289,0.275-0.643,0.488-1.055,0.588L925.868,1196.64z"/>
	<path fill="#FFFFFF" d="M967.508,1170.485l-19.064,4.604l-0.293-1.217c-0.244-1.006-1.26-1.627-2.267-1.385l-3.65,0.883
		c-1.007,0.242-1.628,1.26-1.385,2.266l0.294,1.217l-19.064,4.604c-0.561,0.135-0.903,0.699-0.769,1.26l2.841,11.763
		c0.162,0.672,0.801,1.096,1.424,0.944l45.197-10.916c0.624-0.149,0.998-0.817,0.836-1.49l-2.841-11.764
		C968.631,1170.694,968.069,1170.351,967.508,1170.485z M942.066,1175.343c-0.081-0.334,0.126-0.674,0.462-0.754l3.65-0.883
		c0.335-0.082,0.674,0.125,0.755,0.463l0.294,1.215l-4.867,1.176L942.066,1175.343z"/>
</g>
<g opacity="0.25">
	<path fill="#FFFFFF" d="M235.341,705.732c-0.776-0.146-1.454-0.505-2.021-0.986l-5.06,27.363c-0.195,1.055,0.501,2.069,1.556,2.266
		l85.672,15.842c1.058,0.195,2.069-0.504,2.266-1.559l5.061-27.363c-0.703,0.248-1.465,0.34-2.242,0.197L235.341,705.732z"/>
	<path fill="#FFFFFF" d="M326.096,692.85l-35.952-6.647l0.425-2.293c0.352-1.898-0.906-3.73-2.806-4.078l-6.885-1.275
		c-1.897-0.35-3.728,0.908-4.078,2.808l-0.424,2.293l-35.953-6.646c-1.056-0.197-2.069,0.502-2.264,1.558l-4.104,22.184
		c-0.234,1.268,0.53,2.471,1.708,2.689l85.229,15.762c1.178,0.217,2.322-0.635,2.557-1.902l4.102-22.184
		C327.847,694.059,327.152,693.045,326.096,692.85z M279.095,681.785c0.118-0.633,0.728-1.053,1.36-0.937l6.883,1.273
		c0.632,0.115,1.053,0.725,0.936,1.359l-0.423,2.295l-9.18-1.697L279.095,681.785z"/>
</g>
<g opacity="0.25">
	<path fill="#FFFFFF" d="M591.275,179.759c-0.813-0.221-1.503-0.66-2.064-1.225l-7.762,28.67c-0.299,1.104,0.354,2.244,1.459,2.545
		l89.762,24.299c1.105,0.301,2.243-0.357,2.544-1.463l7.762-28.67c-0.771,0.203-1.588,0.236-2.402,0.018L591.275,179.759z"/>
	<path fill="#FFFFFF" d="M688.94,173.943l-37.668-10.197l0.651-2.404c0.538-1.988-0.643-4.045-2.63-4.582l-7.214-1.953
		c-1.987-0.537-4.044,0.641-4.583,2.631l-0.65,2.402l-37.668-10.195c-1.106-0.301-2.244,0.354-2.543,1.461l-6.292,23.242
		c-0.359,1.326,0.35,2.674,1.583,3.008l89.298,24.174c1.232,0.332,2.523-0.475,2.884-1.801l6.293-23.242
		C690.698,175.38,690.045,174.242,688.94,173.943z M639.902,158.085c0.181-0.662,0.866-1.055,1.528-0.875l7.212,1.953
		c0.663,0.176,1.057,0.863,0.877,1.527l-0.65,2.402l-9.618-2.602L639.902,158.085z"/>
</g>
<g opacity="0.25">
	<path fill="#FFFFFF" d="M864.281,833.986c-0.813-0.222-1.503-0.66-2.064-1.226l-7.762,28.67c-0.299,1.104,0.354,2.244,1.46,2.545
		l89.762,24.3c1.105,0.301,2.244-0.357,2.544-1.463l7.762-28.671c-0.77,0.203-1.588,0.236-2.401,0.019L864.281,833.986z"/>
	<path fill="#FFFFFF" d="M961.946,828.17l-37.668-10.197l0.651-2.403c0.538-1.988-0.643-4.045-2.63-4.582l-7.213-1.953
		c-1.988-0.537-4.045,0.641-4.582,2.631l-0.651,2.402l-37.669-10.195c-1.105-0.301-2.244,0.354-2.543,1.461l-6.292,23.242
		c-0.358,1.326,0.35,2.674,1.583,3.008l89.298,24.174c1.233,0.332,2.524-0.475,2.884-1.801l6.293-23.242
		C963.702,829.607,963.051,828.469,961.946,828.17z M912.906,812.313c0.182-0.661,0.866-1.055,1.528-0.875l7.212,1.953
		c0.663,0.177,1.057,0.863,0.877,1.527l-0.65,2.402l-9.617-2.603L912.906,812.313z"/>
</g>
<g opacity="0.25">
	<path fill="#FFFFFF" d="M868.03,475.455c-0.813-0.221-1.504-0.66-2.063-1.225l-7.763,28.67c-0.299,1.104,0.354,2.243,1.459,2.545
		l89.763,24.299c1.106,0.301,2.244-0.357,2.544-1.463l7.761-28.67c-0.771,0.203-1.588,0.235-2.4,0.018L868.03,475.455z"/>
	<path fill="#FFFFFF" d="M965.696,469.639l-37.669-10.196l0.651-2.404c0.538-1.988-0.642-4.045-2.63-4.582l-7.214-1.953
		c-1.987-0.537-4.044,0.641-4.582,2.631l-0.65,2.402l-37.668-10.195c-1.106-0.301-2.244,0.354-2.544,1.461l-6.292,23.242
		c-0.359,1.326,0.35,2.674,1.582,3.008l89.299,24.174c1.232,0.332,2.525-0.475,2.884-1.801l6.292-23.242
		C967.451,471.076,966.801,469.938,965.696,469.639z M916.656,453.781c0.182-0.662,0.865-1.056,1.528-0.875l7.212,1.953
		c0.662,0.176,1.057,0.862,0.877,1.526l-0.65,2.402l-9.616-2.603L916.656,453.781z"/>
</g>
<g opacity="0.25">
	<path fill="#FFFFFF" d="M360.536,938.869c-0.623,0.18-1.253,0.17-1.849,0.021l6.39,21.968c0.247,0.848,1.134,1.334,1.98,1.09
		l68.777-20.008c0.849-0.244,1.334-1.134,1.087-1.98l-6.391-21.967c-0.425,0.44-0.95,0.791-1.572,0.971L360.536,938.869z"/>
	<path fill="#FFFFFF" d="M422.439,895.885l-28.861,8.396l-0.536-1.842c-0.442-1.523-2.044-2.404-3.565-1.959l-5.528,1.606
		c-1.521,0.443-2.401,2.043-1.959,3.566l0.536,1.842l-28.861,8.397c-0.85,0.244-1.336,1.132-1.089,1.979l5.183,17.809
		c0.296,1.019,1.301,1.619,2.246,1.345l68.423-19.902c0.943-0.277,1.471-1.324,1.175-2.34l-5.18-17.81
		C424.172,896.127,423.285,895.639,422.439,895.885z M383.83,905.119c-0.146-0.51,0.146-1.043,0.653-1.191l5.526-1.604
		c0.506-0.15,1.04,0.145,1.188,0.653l0.536,1.843l-7.369,2.143L383.83,905.119z"/>
</g>
<g opacity="0.25">
	<path fill="#FFFFFF" d="M329.259,836.709c-1.356,0.156-2.659-0.092-3.843-0.604l5.513,47.801c0.213,1.844,1.878,3.168,3.721,2.955
		l149.661-17.256c1.846-0.211,3.165-1.882,2.954-3.724l-5.511-47.803c-1.037,0.768-2.249,1.307-3.605,1.463L329.259,836.709z"/>
	<path fill="#FFFFFF" d="M472.757,769.393l-62.806,7.24l-0.461-4.006c-0.382-3.316-3.391-5.705-6.706-5.32l-12.026,1.386
		c-3.314,0.385-5.702,3.391-5.319,6.705l0.462,4.01l-62.804,7.24c-1.845,0.213-3.165,1.881-2.953,3.723l4.468,38.756
		c0.255,2.211,2.129,3.813,4.186,3.576l148.889-17.162c2.056-0.242,3.516-2.229,3.261-4.441l-4.467-38.752
		C476.264,770.504,474.599,769.18,472.757,769.393z M389.447,774.938c-0.126-1.108,0.669-2.11,1.774-2.237l12.023-1.388
		c1.105-0.129,2.109,0.666,2.236,1.773l0.464,4.008l-16.035,1.853L389.447,774.938z"/>
</g>
<g opacity="0.25">
	<path fill="#FFFFFF" d="M110.512,729.342c-0.91-0.076-1.732-0.41-2.441-0.899l-2.649,32.081c-0.103,1.238,0.815,2.324,2.054,2.427
		l100.446,8.299c1.238,0.102,2.324-0.82,2.426-2.057l2.649-32.084c-0.78,0.366-1.646,0.563-2.557,0.487L110.512,729.342z"/>
	<path fill="#FFFFFF" d="M213.477,703.988l-42.15-3.484l0.223-2.689c0.183-2.225-1.479-4.186-3.703-4.368l-8.072-0.666
		c-2.225-0.185-4.185,1.479-4.369,3.7l-0.223,2.691l-42.152-3.482c-1.237-0.104-2.322,0.818-2.425,2.058l-2.148,26.008
		c-0.123,1.486,0.896,2.783,2.276,2.896l99.93,8.255c1.379,0.114,2.598-0.998,2.72-2.482l2.147-26.008
		C215.634,705.176,214.714,704.09,213.477,703.988z M158.095,696.703c0.061-0.742,0.716-1.297,1.457-1.234l8.071,0.666
		c0.74,0.062,1.295,0.715,1.232,1.457l-0.221,2.689l-10.763-0.888L158.095,696.703z"/>
</g>
<g opacity="0.25">
	<path fill="#FFFFFF" d="M685.206,117.771c-0.909-0.076-1.73-0.41-2.439-0.9l-2.65,32.082c-0.103,1.238,0.816,2.324,2.055,2.426
		l100.446,8.299c1.238,0.102,2.323-0.82,2.427-2.057l2.647-32.084c-0.779,0.367-1.645,0.563-2.555,0.488L685.206,117.771z"/>
	<path fill="#FFFFFF" d="M788.172,92.418l-42.15-3.484l0.223-2.689c0.185-2.225-1.478-4.186-3.703-4.369l-8.07-0.666
		c-2.227-0.184-4.186,1.479-4.368,3.701l-0.223,2.691l-42.152-3.482c-1.238-0.104-2.323,0.818-2.425,2.057l-2.149,26.008
		c-0.123,1.486,0.898,2.783,2.277,2.896l99.93,8.254c1.379,0.115,2.599-0.998,2.72-2.482l2.148-26.008
		C790.328,93.605,789.409,92.52,788.172,92.418z M732.791,85.133c0.061-0.742,0.716-1.297,1.456-1.234l8.071,0.666
		c0.741,0.061,1.296,0.715,1.233,1.457l-0.222,2.689l-10.764-0.887L732.791,85.133z"/>
</g>
<g opacity="0.25">
	<path fill="#FFFFFF" d="M72.575,1038.488c-1.637-0.137-3.112-0.736-4.387-1.617l-4.762,57.648
		c-0.184,2.225,1.467,4.176,3.691,4.358l180.49,14.91c2.226,0.182,4.176-1.475,4.359-3.695l4.761-57.651
		c-1.401,0.662-2.957,1.012-4.592,0.881L72.575,1038.488z"/>
	<path fill="#FFFFFF" d="M257.592,992.932l-75.74-6.262l0.4-4.832c0.328-3.998-2.657-7.52-6.654-7.85l-14.505-1.199
		c-3.998-0.33-7.519,2.658-7.849,6.65l-0.4,4.836l-75.742-6.256c-2.224-0.188-4.175,1.471-4.356,3.692l-3.862,46.736
		c-0.221,2.67,1.613,5,4.091,5.203l179.563,14.832c2.478,0.207,4.669-1.793,4.887-4.461l3.86-46.734
		C261.466,995.064,259.815,993.113,257.592,992.932z M158.078,979.84c0.108-1.334,1.284-2.33,2.617-2.217l14.501,1.197
		c1.333,0.108,2.329,1.283,2.217,2.617l-0.396,4.834l-19.339-1.597L158.078,979.84z"/>
</g>
<g opacity="0.25">
	<path fill="#FFFFFF" d="M150.477,1169.959c-0.642,0.092-1.264-0.008-1.833-0.238l3.237,22.648c0.126,0.873,0.934,1.479,1.808,1.356
		l70.908-10.139c0.873-0.123,1.479-0.934,1.354-1.809l-3.236-22.646c-0.483,0.377-1.053,0.65-1.695,0.74L150.477,1169.959z"/>
	<path fill="#FFFFFF" d="M217.809,1136.107l-29.755,4.256l-0.273-1.9c-0.225-1.57-1.684-2.668-3.255-2.438l-5.698,0.813
		c-1.57,0.226-2.666,1.687-2.441,3.256l0.271,1.898l-29.756,4.258c-0.875,0.123-1.48,0.93-1.355,1.807l2.626,18.359
		c0.149,1.049,1.06,1.785,2.035,1.646l70.541-10.084c0.975-0.143,1.642-1.104,1.493-2.151l-2.624-18.361
		C219.49,1136.592,218.681,1135.982,217.809,1136.107z M178.285,1139.82c-0.074-0.525,0.292-1.013,0.814-1.086l5.696-0.813
		c0.521-0.078,1.011,0.287,1.086,0.813l0.271,1.899l-7.597,1.086L178.285,1139.82z"/>
</g>
<g opacity="0.25">
	<path fill="#FFFFFF" d="M160.162,1222.793c-0.325-0.115-0.591-0.316-0.801-0.564l-4.079,11.412
		c-0.157,0.439,0.071,0.922,0.511,1.08l35.723,12.771c0.439,0.158,0.924-0.072,1.081-0.512l4.08-11.412
		c-0.319,0.059-0.653,0.047-0.978-0.068L160.162,1222.793z"/>
	<path fill="#FFFFFF" d="M200.068,1223.572l-14.989-5.359l0.341-0.957c0.283-0.791-0.131-1.666-0.922-1.949l-2.871-1.024
		c-0.792-0.283-1.665,0.131-1.948,0.922l-0.342,0.957l-14.991-5.359c-0.439-0.157-0.924,0.072-1.081,0.513l-3.307,9.25
		c-0.189,0.526,0.056,1.1,0.546,1.272l35.538,12.707c0.491,0.174,1.042-0.111,1.23-0.641l3.308-9.248
		C200.738,1224.213,200.508,1223.73,200.068,1223.572z M180.635,1215.547c0.095-0.266,0.386-0.404,0.649-0.309l2.871,1.024
		c0.264,0.095,0.401,0.388,0.307,0.65l-0.341,0.955l-3.827-1.367L180.635,1215.547z"/>
</g>
<g opacity="0.25">
	<path fill="#FFFFFF" d="M43.154,817.725c-1.067-0.373-1.949-1.03-2.646-1.842l-13.211,37.644c-0.509,1.452,0.252,3.043,1.704,3.553
		l117.856,41.363c1.454,0.512,3.042-0.257,3.553-1.705l13.212-37.646c-1.053,0.197-2.151,0.16-3.22-0.215L43.154,817.725z"/>
	<path fill="#FFFFFF" d="M174.555,819.525l-49.458-17.359l1.107-3.154c0.916-2.612-0.461-5.483-3.072-6.397l-9.471-3.324
		c-2.611-0.916-5.481,0.461-6.398,3.074l-1.107,3.153L56.699,778.16c-1.453-0.51-3.042,0.256-3.552,1.705l-10.712,30.521
		c-0.609,1.742,0.206,3.613,1.824,4.185l117.249,41.151c1.62,0.564,3.429-0.389,4.04-2.131l10.712-30.518
		C176.768,821.623,176.007,820.033,174.555,819.525z M110.42,793.471c0.308-0.871,1.264-1.332,2.135-1.026l9.468,3.323
		c0.871,0.306,1.332,1.263,1.025,2.134l-1.107,3.157l-12.628-4.432L110.42,793.471z"/>
</g>
<g opacity="0.25">
	<path fill="#FFFFFF" d="M58.449,183.719c-0.674,0.072-1.317-0.057-1.902-0.314l2.543,23.715c0.098,0.914,0.918,1.576,1.833,1.479
		l74.244-7.963c0.915-0.098,1.576-0.92,1.478-1.834l-2.543-23.715c-0.517,0.377-1.119,0.639-1.792,0.711L58.449,183.719z"/>
	<path fill="#FFFFFF" d="M129.836,150.92l-31.156,3.342l-0.213-1.988c-0.176-1.645-1.658-2.84-3.303-2.664l-5.967,0.641
		c-1.645,0.176-2.839,1.658-2.662,3.303l0.213,1.988l-31.156,3.342c-0.915,0.098-1.576,0.92-1.479,1.834l2.063,19.225
		c0.118,1.098,1.041,1.898,2.06,1.791l73.862-7.924c1.021-0.109,1.751-1.088,1.633-2.186l-2.062-19.225
		C131.571,151.484,130.751,150.822,129.836,150.92z M88.524,153.34c-0.059-0.549,0.339-1.043,0.889-1.102l5.966-0.641
		c0.548-0.059,1.042,0.34,1.101,0.889l0.213,1.988l-7.955,0.854L88.524,153.34z"/>
</g>
<g opacity="0.25">
	<path fill="#FFFFFF" d="M399.284,133.683c-0.775-0.145-1.454-0.504-2.021-0.986l-5.061,27.363c-0.194,1.055,0.501,2.07,1.557,2.266
		l85.672,15.842c1.057,0.195,2.069-0.504,2.265-1.559l5.062-27.363c-0.703,0.248-1.465,0.34-2.242,0.197L399.284,133.683z"/>
	<path fill="#FFFFFF" d="M490.04,120.8l-35.951-6.648l0.425-2.293c0.351-1.898-0.907-3.73-2.807-4.078l-6.885-1.275
		c-1.896-0.35-3.727,0.908-4.078,2.807l-0.424,2.293l-35.953-6.646c-1.056-0.197-2.068,0.502-2.264,1.557L398,128.701
		c-0.233,1.268,0.53,2.471,1.708,2.689l85.23,15.762c1.177,0.217,2.322-0.635,2.556-1.902l4.103-22.184
		C491.791,122.009,491.096,120.995,490.04,120.8z M443.038,109.735c0.118-0.633,0.729-1.053,1.36-0.936l6.883,1.273
		c0.632,0.115,1.054,0.725,0.937,1.359l-0.423,2.295l-9.181-1.697L443.038,109.735z"/>
</g>
<g opacity="0.25">
	<path fill="#FFFFFF" d="M83.779,382.411c-0.909-0.076-1.731-0.41-2.44-0.9l-2.65,32.082c-0.102,1.238,0.816,2.324,2.055,2.426
		l100.445,8.299c1.238,0.102,2.324-0.82,2.426-2.058l2.649-32.084c-0.78,0.367-1.646,0.563-2.556,0.488L83.779,382.411z"/>
	<path fill="#FFFFFF" d="M186.744,357.057l-42.151-3.484l0.223-2.689c0.184-2.225-1.478-4.186-3.703-4.369l-8.071-0.666
		c-2.226-0.184-4.186,1.479-4.369,3.701l-0.223,2.691l-42.152-3.482c-1.238-0.104-2.323,0.818-2.425,2.057l-2.149,26.008
		C81.6,378.31,82.62,379.607,84,379.72l99.929,8.254c1.379,0.115,2.598-0.998,2.72-2.482l2.148-26.008
		C188.901,358.245,187.981,357.159,186.744,357.057z M131.363,349.772c0.062-0.742,0.717-1.297,1.457-1.234l8.071,0.666
		c0.741,0.061,1.295,0.715,1.233,1.457l-0.222,2.689l-10.763-0.887L131.363,349.772z"/>
</g>
<g opacity="0.25">
	<path fill="#FFFFFF" d="M1015.224,513.874c-0.91-0.076-1.731-0.41-2.44-0.9l-2.649,32.082c-0.104,1.238,0.815,2.324,2.054,2.427
		l100.446,8.299c1.237,0.102,2.323-0.82,2.426-2.058l2.649-32.084c-0.78,0.367-1.646,0.563-2.557,0.488L1015.224,513.874z"/>
	<path fill="#FFFFFF" d="M1118.189,488.521l-42.151-3.484l0.224-2.689c0.184-2.225-1.478-4.186-3.702-4.369l-8.071-0.665
		c-2.226-0.185-4.186,1.479-4.369,3.7l-0.223,2.691l-42.152-3.482c-1.236-0.104-2.321,0.818-2.424,2.058l-2.149,26.008
		c-0.122,1.486,0.897,2.783,2.276,2.896l99.931,8.255c1.379,0.114,2.598-0.998,2.721-2.482l2.147-26.008
		C1120.346,489.708,1119.426,488.622,1118.189,488.521z M1062.807,481.235c0.062-0.742,0.717-1.298,1.457-1.234l8.072,0.666
		c0.739,0.061,1.295,0.715,1.231,1.457l-0.221,2.688l-10.763-0.887L1062.807,481.235z"/>
</g>
<g opacity="0.25">
	<path fill="#FFFFFF" d="M207.098,245.675c-1.068-0.373-1.95-1.031-2.646-1.842l-13.211,37.643c-0.51,1.453,0.252,3.043,1.703,3.553
		l117.857,41.363c1.454,0.512,3.042-0.256,3.552-1.705l13.212-37.646c-1.052,0.197-2.151,0.16-3.219-0.215L207.098,245.675z"/>
	<path fill="#FFFFFF" d="M338.498,247.476l-49.457-17.359l1.106-3.154c0.916-2.613-0.461-5.484-3.071-6.398l-9.472-3.324
		c-2.61-0.916-5.48,0.461-6.397,3.074l-1.107,3.154l-49.457-17.357c-1.453-0.51-3.042,0.256-3.551,1.705l-10.712,30.521
		c-0.61,1.742,0.206,3.613,1.824,4.184l117.248,41.152c1.62,0.564,3.43-0.389,4.04-2.131l10.712-30.518
		C340.712,249.573,339.95,247.983,338.498,247.476z M274.365,221.421c0.309-0.871,1.265-1.332,2.136-1.027l9.468,3.324
		c0.871,0.305,1.332,1.262,1.025,2.133l-1.107,3.158l-12.628-4.432L274.365,221.421z"/>
</g>
<g opacity="0.25">
	<path fill="#FFFFFF" d="M962.666,230.228c-0.675,0.072-1.318-0.057-1.902-0.314l2.543,23.715c0.099,0.914,0.919,1.576,1.834,1.479
		l74.244-7.963c0.914-0.098,1.576-0.92,1.478-1.834l-2.544-23.715c-0.516,0.377-1.119,0.639-1.791,0.711L962.666,230.228z"/>
	<path fill="#FFFFFF" d="M1034.053,197.429l-31.156,3.342l-0.214-1.988c-0.177-1.645-1.658-2.84-3.303-2.664l-5.967,0.641
		c-1.645,0.176-2.84,1.658-2.663,3.303l0.215,1.988l-31.156,3.342c-0.916,0.098-1.576,0.92-1.479,1.834l2.063,19.225
		c0.117,1.098,1.04,1.898,2.06,1.791l73.862-7.924c1.02-0.109,1.75-1.088,1.633-2.186l-2.063-19.225
		C1035.786,197.993,1034.967,197.331,1034.053,197.429z M992.74,199.849c-0.06-0.549,0.339-1.043,0.888-1.102l5.967-0.641
		c0.547-0.059,1.041,0.34,1.1,0.889l0.214,1.988l-7.954,0.854L992.74,199.849z"/>
</g>
<g opacity="0.25">
	<path fill="#FFFFFF" d="M790.677,207.858c-0.776-0.145-1.454-0.504-2.021-0.986l-5.061,27.363c-0.195,1.055,0.502,2.07,1.557,2.266
		l85.672,15.842c1.058,0.195,2.07-0.504,2.267-1.559l5.061-27.363c-0.703,0.248-1.465,0.34-2.242,0.197L790.677,207.858z"/>
	<path fill="#FFFFFF" d="M881.433,194.975l-35.952-6.648l0.425-2.293c0.353-1.898-0.907-3.73-2.806-4.078l-6.885-1.275
		c-1.897-0.35-3.729,0.908-4.077,2.807l-0.425,2.293l-35.952-6.646c-1.058-0.197-2.069,0.502-2.265,1.557l-4.104,22.184
		c-0.233,1.268,0.531,2.471,1.708,2.689l85.229,15.762c1.179,0.217,2.322-0.635,2.558-1.902l4.102-22.184
		C883.184,196.184,882.488,195.17,881.433,194.975z M834.431,183.911c0.119-0.633,0.729-1.053,1.361-0.936l6.883,1.273
		c0.633,0.115,1.053,0.725,0.936,1.359l-0.424,2.295l-9.18-1.697L834.431,183.911z"/>
</g>
<g opacity="0.25">
	<path fill="#FFFFFF" d="M1027.866,312.633c-0.813-0.221-1.503-0.66-2.063-1.225l-7.763,28.67c-0.299,1.104,0.354,2.244,1.46,2.545
		l89.762,24.299c1.106,0.301,2.244-0.357,2.545-1.463l7.761-28.67c-0.77,0.203-1.588,0.236-2.401,0.018L1027.866,312.633z"/>
	<path fill="#FFFFFF" d="M1125.532,306.816l-37.668-10.197l0.65-2.404c0.539-1.988-0.642-4.045-2.629-4.582l-7.214-1.953
		c-1.987-0.537-4.044,0.641-4.582,2.631l-0.651,2.402l-37.668-10.195c-1.104-0.301-2.244,0.354-2.543,1.461l-6.293,23.242
		c-0.358,1.326,0.35,2.674,1.583,3.008l89.298,24.174c1.234,0.332,2.525-0.475,2.885-1.801l6.292-23.242
		C1127.291,308.254,1126.639,307.115,1125.532,306.816z M1076.493,290.959c0.183-0.662,0.866-1.055,1.529-0.875l7.211,1.953
		c0.663,0.176,1.058,0.863,0.877,1.527l-0.649,2.402l-9.617-2.602L1076.493,290.959z"/>
</g>
<g opacity="0.25">
	<path fill="#FFFFFF" d="M909.752,135.943c-0.91-0.076-1.732-0.41-2.441-0.9l-2.65,32.082c-0.102,1.238,0.816,2.324,2.056,2.426
		l100.444,8.299c1.238,0.102,2.324-0.82,2.427-2.057l2.649-32.084c-0.781,0.367-1.646,0.563-2.557,0.488L909.752,135.943z"/>
	<path fill="#FFFFFF" d="M1012.717,110.59l-42.151-3.484l0.223-2.689c0.184-2.225-1.478-4.186-3.701-4.369l-8.072-0.666
		c-2.226-0.184-4.187,1.479-4.369,3.701l-0.223,2.691l-42.151-3.482c-1.237-0.104-2.323,0.818-2.425,2.057l-2.148,26.008
		c-0.123,1.486,0.896,2.783,2.276,2.896l99.929,8.254c1.379,0.115,2.599-0.998,2.721-2.482l2.148-26.008
		C1014.872,111.777,1013.952,110.691,1012.717,110.59z M957.335,103.305c0.062-0.742,0.716-1.297,1.456-1.234l8.071,0.666
		c0.741,0.061,1.295,0.715,1.232,1.457l-0.222,2.689l-10.762-0.887L957.335,103.305z"/>
</g>
<g opacity="0.25">
	<path fill="#FFFFFF" d="M1133.197,221.792c-1.067-0.373-1.948-1.031-2.646-1.842l-13.211,37.643
		c-0.51,1.453,0.253,3.043,1.703,3.553l117.856,41.363c1.454,0.512,3.042-0.256,3.552-1.705l13.213-37.646
		c-1.053,0.197-2.151,0.16-3.219-0.215L1133.197,221.792z"/>
	<path fill="#FFFFFF" d="M1264.599,223.593l-49.459-17.359l1.106-3.154c0.916-2.613-0.461-5.484-3.07-6.398l-9.471-3.324
		c-2.61-0.916-5.481,0.461-6.397,3.074l-1.107,3.154l-49.457-17.357c-1.452-0.51-3.043,0.256-3.551,1.705l-10.713,30.521
		c-0.609,1.742,0.207,3.613,1.824,4.184l117.249,41.152c1.62,0.564,3.429-0.389,4.04-2.131l10.711-30.518
		C1266.812,225.691,1266.05,224.101,1264.599,223.593z M1200.464,197.539c0.308-0.871,1.264-1.332,2.135-1.027l9.467,3.324
		c0.871,0.305,1.332,1.262,1.025,2.133l-1.107,3.158l-12.627-4.432L1200.464,197.539z"/>
</g>
<g opacity="0.25">
	<path fill="#FFFFFF" d="M140.043,933.906c-0.5,0.121-0.997,0.088-1.463-0.051l4.25,17.6c0.164,0.678,0.847,1.094,1.524,0.932
		l55.093-13.307c0.68-0.164,1.097-0.848,0.933-1.525l-4.25-17.598c-0.353,0.334-0.779,0.592-1.279,0.713L140.043,933.906z"/>
	<path fill="#FFFFFF" d="M190.54,902.189l-23.119,5.584l-0.358-1.478c-0.295-1.221-1.527-1.973-2.748-1.678l-4.427,1.067
		c-1.222,0.296-1.973,1.529-1.679,2.748l0.355,1.478l-23.12,5.584c-0.678,0.162-1.095,0.846-0.931,1.522l3.446,14.269
		c0.195,0.813,0.97,1.326,1.727,1.145l54.811-13.237c0.757-0.183,1.21-0.992,1.014-1.808l-3.445-14.266
		C191.902,902.441,191.219,902.025,190.54,902.189z M159.685,908.08c-0.098-0.406,0.153-0.818,0.56-0.916l4.428-1.07
		c0.406-0.098,0.817,0.152,0.916,0.562l0.355,1.473l-5.901,1.428L159.685,908.08z"/>
</g>
<g opacity="0.25">
	<path fill="#FFFFFF" d="M538.024,385.233c0.673,0.072,1.317-0.057,1.902-0.315l-2.544,23.715c-0.1,0.914-0.919,1.576-1.833,1.479
		l-74.244-7.963c-0.915-0.098-1.576-0.92-1.479-1.834l2.544-23.715c0.518,0.377,1.119,0.64,1.792,0.712L538.024,385.233z"/>
	<path fill="#FFFFFF" d="M464.804,353.912l-2.063,19.225c-0.118,1.098,0.613,2.077,1.633,2.187l73.861,7.923
		c1.021,0.108,1.943-0.693,2.062-1.791l2.063-19.225c0.098-0.914-0.563-1.736-1.479-1.834l-31.156-3.342l0.213-1.988
		c0.177-1.645-1.018-3.126-2.662-3.303l-5.967-0.64c-1.646-0.177-3.126,1.019-3.303,2.663l-0.214,1.988l-31.155-3.342
		C465.723,352.335,464.903,352.998,464.804,353.912z M507.737,356.841l-7.955-0.854l0.214-1.988c0.06-0.549,0.554-0.947,1.102-0.888
		l5.966,0.64c0.548,0.059,0.946,0.553,0.888,1.102L507.737,356.841z"/>
</g>
<g opacity="0.25">
	<path fill="#FFFFFF" d="M558.034,642.036c0.412,0.101,0.822,0.072,1.205-0.041l-3.504,14.512c-0.136,0.561-0.699,0.903-1.258,0.77
		l-45.431-10.974c-0.561-0.135-0.903-0.697-0.77-1.258l3.505-14.512c0.29,0.275,0.644,0.487,1.056,0.588L558.034,642.036z"/>
	<path fill="#FFFFFF" d="M515.136,616.65l-2.841,11.764c-0.162,0.672,0.212,1.34,0.836,1.49l45.195,10.916
		c0.624,0.149,1.263-0.272,1.424-0.944l2.843-11.763c0.135-0.562-0.209-1.124-0.769-1.259l-19.064-4.604l0.294-1.217
		c0.242-1.006-0.377-2.022-1.386-2.266l-3.649-0.883c-1.006-0.242-2.022,0.378-2.267,1.385l-0.295,1.217l-19.063-4.604
		C515.835,615.747,515.271,616.091,515.136,616.65z M541.544,621.956l-4.867-1.177l0.294-1.215c0.08-0.338,0.42-0.545,0.755-0.464
		l3.651,0.884c0.335,0.08,0.542,0.42,0.461,0.755L541.544,621.956z"/>
</g>
<g opacity="0.25">
	<path fill="#FFFFFF" d="M248.084,553.732c0.774-0.146,1.453-0.505,2.021-0.986l5.061,27.364c0.194,1.054-0.501,2.068-1.557,2.265
		l-85.673,15.842c-1.057,0.195-2.068-0.503-2.265-1.558l-5.062-27.364c0.703,0.248,1.466,0.341,2.242,0.197L248.084,553.732z"/>
	<path fill="#FFFFFF" d="M155.771,543.113l4.104,22.184c0.233,1.269,1.379,2.119,2.556,1.902l85.229-15.763
		c1.178-0.219,1.94-1.422,1.708-2.688l-4.104-22.185c-0.195-1.056-1.208-1.754-2.264-1.558l-35.953,6.647l-0.424-2.294
		c-0.352-1.898-2.181-3.156-4.078-2.808l-6.885,1.275c-1.898,0.348-3.156,2.18-2.806,4.078l0.424,2.293l-35.95,6.647
		C156.273,541.044,155.576,542.059,155.771,543.113z M204.754,532.08l-9.182,1.697l-0.423-2.295
		c-0.116-0.635,0.304-1.244,0.937-1.359l6.883-1.273c0.633-0.116,1.242,0.304,1.36,0.937L204.754,532.08z"/>
</g>
<g opacity="0.25">
	<path fill="#FFFFFF" d="M634.473,546.73c0.813-0.222,1.503-0.66,2.064-1.226l7.761,28.67c0.299,1.104-0.354,2.244-1.459,2.545
		l-89.762,24.299c-1.105,0.302-2.243-0.355-2.544-1.463l-7.762-28.669c0.771,0.203,1.588,0.235,2.402,0.018L634.473,546.73z"/>
	<path fill="#FFFFFF" d="M535.347,543.458l6.293,23.241c0.358,1.327,1.649,2.133,2.884,1.801l89.298-24.174
		c1.233-0.333,1.941-1.682,1.583-3.008l-6.292-23.242c-0.299-1.106-1.438-1.762-2.543-1.46l-37.669,10.194l-0.651-2.402
		c-0.538-1.989-2.594-3.168-4.581-2.631l-7.214,1.953c-1.987,0.537-3.168,2.594-2.63,4.582l0.651,2.403l-37.668,10.197
		C535.702,541.213,535.051,542.352,535.347,543.458z M586.497,527.463l-9.617,2.604l-0.65-2.403
		c-0.18-0.664,0.214-1.351,0.877-1.527l7.212-1.953c0.662-0.18,1.348,0.214,1.528,0.876L586.497,527.463z"/>
</g>
<g opacity="0.25">
	<path fill="#FFFFFF" d="M507.564,571.568c0.623,0.18,1.254,0.17,1.85,0.021l-6.391,21.968c-0.246,0.848-1.133,1.334-1.979,1.091
		l-68.777-20.009c-0.848-0.244-1.334-1.133-1.086-1.98l6.389-21.967c0.426,0.44,0.951,0.792,1.574,0.972L507.564,571.568z"/>
	<path fill="#FFFFFF" d="M443.681,529.674l-5.18,17.81c-0.296,1.017,0.229,2.063,1.176,2.341l68.422,19.901
		c0.945,0.275,1.951-0.325,2.246-1.344l5.182-17.809c0.248-0.85-0.238-1.735-1.088-1.979l-28.861-8.396l0.535-1.842
		c0.443-1.524-0.436-3.124-1.959-3.567l-5.526-1.606c-1.523-0.445-3.123,0.436-3.566,1.959l-0.537,1.843l-28.861-8.396
		C444.816,528.339,443.929,528.827,443.681,529.674z M483.734,539.66l-7.369-2.144l0.537-1.842c0.148-0.51,0.685-0.804,1.189-0.653
		l5.524,1.605c0.508,0.148,0.801,0.681,0.654,1.19L483.734,539.66z"/>
</g>
<g opacity="0.25">
	<path fill="#FFFFFF" d="M432.271,484.52c1.355,0.155,2.658-0.093,3.842-0.604l-5.512,47.801c-0.213,1.844-1.879,3.168-3.721,2.955
		l-149.661-17.255c-1.846-0.212-3.165-1.882-2.954-3.723l5.512-47.805c1.037,0.769,2.249,1.308,3.605,1.463L432.271,484.52z"/>
	<path fill="#FFFFFF" d="M285.051,420.156l-4.467,38.752c-0.256,2.213,1.205,4.2,3.26,4.44l148.889,17.162
		c2.057,0.236,3.93-1.363,4.187-3.576l4.468-38.756c0.212-1.842-1.108-3.51-2.952-3.722l-62.805-7.241l0.463-4.009
		c0.382-3.315-2.006-6.321-5.32-6.705l-12.027-1.386c-3.313-0.385-6.321,2.004-6.704,5.32l-0.462,4.006l-62.805-7.239
		C286.929,416.99,285.265,418.314,285.051,420.156z M371.619,426.755l-16.034-1.852l0.464-4.009
		c0.127-1.105,1.131-1.901,2.235-1.772l12.023,1.387c1.104,0.127,1.899,1.129,1.773,2.238L371.619,426.755z"/>
</g>
<g opacity="0.25">
	<path fill="#FFFFFF" d="M308.461,114.56c1.354,0.155,2.657-0.093,3.842-0.604l-5.512,47.801c-0.214,1.844-1.88,3.168-3.722,2.955
		l-149.66-17.255c-1.847-0.212-3.165-1.882-2.954-3.723l5.512-47.804c1.037,0.768,2.249,1.307,3.604,1.463L308.461,114.56z"/>
	<path fill="#FFFFFF" d="M161.24,50.195l-4.468,38.752c-0.256,2.213,1.205,4.2,3.261,4.441l148.889,17.162
		c2.057,0.236,3.93-1.364,4.186-3.576l4.468-38.756c0.212-1.842-1.107-3.51-2.952-3.722l-62.805-7.241l0.464-4.009
		c0.382-3.315-2.007-6.321-5.32-6.705l-12.027-1.386c-3.313-0.385-6.322,2.004-6.705,5.32l-0.461,4.006l-62.805-7.239
		C163.119,47.029,161.455,48.354,161.24,50.195z M247.81,56.795l-16.035-1.852l0.464-4.008c0.128-1.106,1.132-1.902,2.236-1.773
		l12.023,1.387c1.104,0.127,1.899,1.129,1.773,2.238L247.81,56.795z"/>
</g>
<g opacity="0.25">
	<path fill="#FFFFFF" d="M484.59,638.041c0.91-0.076,1.731-0.41,2.44-0.9l2.65,32.083c0.102,1.237-0.816,2.323-2.055,2.427
		l-100.446,8.298c-1.238,0.102-2.323-0.82-2.426-2.058l-2.649-32.084c0.78,0.368,1.646,0.563,2.556,0.489L484.59,638.041z"/>
	<path fill="#FFFFFF" d="M379.57,615.113l2.148,26.008c0.121,1.484,1.341,2.598,2.72,2.482l99.929-8.255
		c1.38-0.112,2.4-1.409,2.277-2.896l-2.148-26.009c-0.102-1.237-1.188-2.16-2.426-2.058l-42.15,3.482l-0.224-2.691
		c-0.184-2.223-2.144-3.885-4.368-3.701l-8.071,0.667c-2.226,0.185-3.887,2.145-3.703,4.368l0.223,2.689l-42.149,3.483
		C380.387,612.789,379.469,613.875,379.57,615.113z M437.228,608.094l-10.763,0.889l-0.222-2.69
		c-0.063-0.742,0.491-1.396,1.233-1.456l8.07-0.667c0.741-0.063,1.396,0.492,1.457,1.234L437.228,608.094z"/>
</g>
<g opacity="0.25">
	<path fill="#FFFFFF" d="M1035.962,630.798c1.636-0.137,3.111-0.736,4.386-1.617l4.763,57.649c0.185,2.225-1.467,4.176-3.689,4.359
		L860.929,706.1c-2.227,0.183-4.175-1.475-4.358-3.694l-4.762-57.652c1.402,0.662,2.957,1.012,4.593,0.881L1035.962,630.798z"/>
	<path fill="#FFFFFF" d="M847.254,589.599l3.859,46.734c0.219,2.669,2.409,4.668,4.889,4.461l179.561-14.833
		c2.479-0.203,4.313-2.533,4.092-5.203l-3.86-46.736c-0.184-2.222-2.134-3.88-4.357-3.692l-75.742,6.257l-0.399-4.836
		c-0.33-3.993-3.853-6.98-7.85-6.65l-14.505,1.198c-3.998,0.33-6.981,3.853-6.654,7.851l0.4,4.831l-75.74,6.263
		C848.723,585.424,847.072,587.375,847.254,589.599z M950.86,576.987l-19.34,1.596l-0.396-4.835
		c-0.111-1.334,0.884-2.508,2.218-2.616l14.501-1.198c1.333-0.111,2.509,0.885,2.617,2.219L950.86,576.987z"/>
</g>
<g opacity="0.25">
	<path fill="#FFFFFF" d="M696.879,701.885c0.642,0.092,1.264-0.008,1.832-0.237l-3.236,22.647c-0.127,0.873-0.936,1.48-1.81,1.357
		l-70.907-10.14c-0.873-0.123-1.479-0.934-1.354-1.809l3.236-22.646c0.482,0.378,1.053,0.65,1.695,0.74L696.879,701.885z"/>
	<path fill="#FFFFFF" d="M627.739,669.389l-2.623,18.361c-0.148,1.049,0.519,2.01,1.492,2.152l70.541,10.084
		c0.975,0.139,1.885-0.599,2.035-1.646l2.627-18.359c0.125-0.877-0.482-1.684-1.357-1.807l-29.754-4.258l0.271-1.898
		c0.225-1.569-0.87-3.03-2.44-3.256l-5.698-0.813c-1.571-0.229-3.031,0.869-3.257,2.438l-0.271,1.9l-29.755-4.256
		C628.675,667.908,627.865,668.518,627.739,669.389z M668.798,673.646l-7.598-1.087l0.271-1.899
		c0.076-0.525,0.563-0.892,1.086-0.813l5.697,0.813c0.522,0.074,0.889,0.561,0.813,1.086L668.798,673.646z"/>
</g>
<g opacity="0.25">
	<path fill="#FFFFFF" d="M545.262,777.793c0.325-0.115,0.591-0.316,0.801-0.564l4.08,11.412c0.156,0.439-0.072,0.922-0.512,1.08
		l-35.724,12.771c-0.438,0.158-0.924-0.072-1.081-0.512l-4.079-11.412c0.318,0.059,0.652,0.047,0.978-0.068L545.262,777.793z"/>
	<path fill="#FFFFFF" d="M504.845,779.654l3.307,9.248c0.188,0.528,0.74,0.813,1.231,0.641l35.537-12.707
		c0.489-0.174,0.735-0.746,0.547-1.273l-3.308-9.25c-0.156-0.438-0.642-0.67-1.081-0.512l-14.99,5.359l-0.343-0.957
		c-0.282-0.791-1.155-1.205-1.947-0.922l-2.87,1.024c-0.791,0.283-1.205,1.158-0.922,1.949l0.34,0.957l-14.989,5.359
		C504.915,778.73,504.687,779.213,504.845,779.654z M525.131,771.502l-3.827,1.367l-0.341-0.955
		c-0.097-0.264,0.043-0.557,0.306-0.65l2.872-1.024c0.263-0.097,0.555,0.043,0.647,0.309L525.131,771.502z"/>
</g>
<g opacity="0.25">
	<path fill="#FFFFFF" d="M693.271,378.725c1.068-0.374,1.95-1.031,2.646-1.842l13.212,37.643c0.51,1.452-0.253,3.043-1.703,3.552
		l-117.857,41.364c-1.453,0.511-3.041-0.258-3.551-1.706l-13.213-37.646c1.052,0.196,2.15,0.159,3.219-0.216L693.271,378.725z"/>
	<path fill="#FFFFFF" d="M560.162,384.074l10.713,30.518c0.61,1.742,2.42,2.695,4.038,2.131l117.249-41.152
		c1.618-0.569,2.436-2.441,1.824-4.183l-10.712-30.521c-0.509-1.45-2.098-2.216-3.551-1.706l-49.457,17.357l-1.107-3.154
		c-0.917-2.613-3.787-3.989-6.397-3.074l-9.472,3.324c-2.609,0.915-3.986,3.786-3.07,6.398l1.106,3.154l-49.458,17.359
		C560.418,381.033,559.656,382.623,560.162,384.074z M627.112,357.627l-12.628,4.431l-1.106-3.158
		c-0.307-0.87,0.153-1.828,1.024-2.133l9.468-3.323c0.871-0.306,1.826,0.155,2.136,1.026L627.112,357.627z"/>
</g>
<g opacity="0.25">
	<path fill="#FFFFFF" d="M723.059,574.605c0.5,0.12,0.996,0.088,1.463-0.051l-4.25,17.6c-0.164,0.678-0.848,1.095-1.525,0.932
		l-55.094-13.307c-0.678-0.164-1.096-0.848-0.932-1.525l4.25-17.598c0.352,0.334,0.779,0.592,1.279,0.713L723.059,574.605z"/>
	<path fill="#FFFFFF" d="M671.036,543.82l-3.444,14.266c-0.197,0.814,0.256,1.625,1.014,1.807l54.809,13.238
		c0.759,0.182,1.531-0.33,1.728-1.145l3.447-14.268c0.164-0.679-0.255-1.361-0.933-1.523l-23.121-5.584l0.357-1.478
		c0.293-1.219-0.457-2.452-1.68-2.747l-4.427-1.068c-1.221-0.295-2.452,0.458-2.748,1.678l-0.356,1.477l-23.119-5.584
		C671.883,542.725,671.198,543.142,671.036,543.82z M703.061,550.254l-5.902-1.427l0.355-1.474c0.098-0.408,0.51-0.658,0.916-0.562
		l4.428,1.07c0.406,0.098,0.658,0.51,0.559,0.916L703.061,550.254z"/>
</g>
<g opacity="0.25">
	<path fill="#FFFFFF" d="M187.262,623.793c0.325-0.115,0.591-0.317,0.801-0.564l4.08,11.411c0.156,0.439-0.072,0.923-0.512,1.08
		l-35.723,12.772c-0.439,0.158-0.925-0.072-1.081-0.512l-4.079-11.412c0.317,0.059,0.651,0.046,0.977-0.069L187.262,623.793z"/>
	<path fill="#FFFFFF" d="M146.845,625.654l3.307,9.248c0.188,0.528,0.74,0.814,1.231,0.641l35.537-12.706
		c0.49-0.175,0.735-0.746,0.547-1.274l-3.307-9.25c-0.157-0.438-0.643-0.67-1.081-0.512l-14.991,5.359l-0.342-0.957
		c-0.283-0.791-1.156-1.204-1.948-0.922l-2.87,1.025c-0.791,0.283-1.205,1.157-0.922,1.948l0.34,0.957l-14.989,5.359
		C146.916,624.73,146.687,625.212,146.845,625.654z M167.131,617.501l-3.827,1.367l-0.341-0.955
		c-0.096-0.264,0.043-0.558,0.306-0.649l2.872-1.025c0.263-0.096,0.555,0.044,0.648,0.309L167.131,617.501z"/>
</g>
<g opacity="0.25">
	<path fill="#FFFFFF" d="M551.468,849.484c0.401,0.057,0.79-0.011,1.146-0.154l-1.953,14.158c-0.073,0.545-0.578,0.926-1.123,0.852
		l-44.32-6.108c-0.546-0.076-0.928-0.58-0.854-1.125l1.953-14.158c0.302,0.233,0.658,0.401,1.06,0.461L551.468,849.484z"/>
	<path fill="#FFFFFF" d="M508.183,829.404l-1.582,11.475c-0.091,0.656,0.331,1.256,0.938,1.342l44.093,6.076
		c0.607,0.084,1.177-0.379,1.267-1.035l1.582-11.475c0.076-0.547-0.306-1.051-0.852-1.123l-18.601-2.566l0.164-1.186
		c0.136-0.984-0.554-1.891-1.535-2.029l-3.561-0.49c-0.981-0.135-1.894,0.556-2.027,1.537l-0.165,1.185l-18.599-2.563
		C508.76,828.477,508.258,828.855,508.183,829.404z M533.842,831.934l-4.748-0.655l0.164-1.187c0.045-0.326,0.349-0.559,0.674-0.512
		l3.563,0.492c0.325,0.043,0.556,0.348,0.511,0.676L533.842,831.934z"/>
</g>
<g opacity="0.25">
	<path fill="#FFFFFF" d="M1087.307,88.796c0.325-0.115,0.591-0.316,0.801-0.564l4.08,11.412c0.156,0.439-0.072,0.922-0.512,1.08
		l-35.724,12.771c-0.438,0.158-0.924-0.072-1.081-0.512l-4.078-11.412c0.317,0.059,0.651,0.047,0.977-0.068L1087.307,88.796z"/>
	<path fill="#FFFFFF" d="M1046.89,90.658l3.307,9.248c0.188,0.529,0.74,0.814,1.231,0.641l35.537-12.707
		c0.489-0.174,0.735-0.746,0.547-1.273l-3.308-9.25c-0.156-0.439-0.642-0.67-1.081-0.512l-14.99,5.359l-0.343-0.957
		c-0.282-0.791-1.155-1.205-1.947-0.922l-2.87,1.025c-0.791,0.283-1.205,1.158-0.922,1.949l0.34,0.957l-14.989,5.359
		C1046.961,89.734,1046.732,90.216,1046.89,90.658z M1067.176,82.505l-3.827,1.367l-0.341-0.955
		c-0.096-0.264,0.043-0.557,0.306-0.65l2.872-1.025c0.263-0.096,0.555,0.043,0.648,0.309L1067.176,82.505z"/>
</g>
<g opacity="0.25">
	<path fill="#FFFFFF" d="M1093.513,160.488c0.401,0.057,0.79-0.01,1.146-0.154l-1.953,14.158c-0.073,0.545-0.578,0.926-1.123,0.852
		l-44.32-6.109c-0.547-0.076-0.928-0.58-0.854-1.125l1.953-14.158c0.302,0.234,0.658,0.402,1.059,0.461L1093.513,160.488z"/>
	<path fill="#FFFFFF" d="M1050.228,140.408l-1.582,11.475c-0.091,0.656,0.331,1.256,0.938,1.342l44.093,6.076
		c0.607,0.084,1.177-0.379,1.267-1.035l1.582-11.475c0.076-0.547-0.306-1.051-0.852-1.123l-18.601-2.566l0.164-1.186
		c0.136-0.984-0.554-1.891-1.535-2.029l-3.561-0.49c-0.981-0.135-1.894,0.555-2.027,1.537l-0.165,1.184l-18.599-2.563
		C1050.805,139.48,1050.303,139.859,1050.228,140.408z M1075.887,142.937l-4.748-0.656l0.164-1.187
		c0.045-0.326,0.349-0.559,0.674-0.512l3.563,0.492c0.325,0.043,0.556,0.348,0.511,0.676L1075.887,142.937z"/>
</g>
<g opacity="0.25">
	<path fill="#FFFFFF" d="M607.432,113.696c0.402,0.057,0.79-0.01,1.146-0.154l-1.952,14.158c-0.074,0.545-0.578,0.926-1.123,0.852
		l-44.321-6.109c-0.546-0.076-0.927-0.58-0.854-1.125l1.953-14.158c0.302,0.234,0.658,0.402,1.06,0.461L607.432,113.696z"/>
	<path fill="#FFFFFF" d="M564.147,93.616l-1.582,11.475c-0.091,0.656,0.331,1.256,0.939,1.342l44.092,6.076
		c0.607,0.084,1.177-0.379,1.267-1.035l1.582-11.475c0.076-0.547-0.306-1.051-0.852-1.123l-18.601-2.566l0.164-1.186
		c0.137-0.984-0.554-1.891-1.535-2.029l-3.561-0.49c-0.98-0.135-1.893,0.555-2.027,1.537l-0.164,1.184l-18.6-2.563
		C564.724,92.688,564.222,93.067,564.147,93.616z M589.806,96.145l-4.748-0.656l0.164-1.186c0.045-0.326,0.349-0.559,0.674-0.512
		l3.564,0.492c0.324,0.043,0.555,0.348,0.51,0.676L589.806,96.145z"/>
</g>
<g opacity="0.25">
	<path fill="#FFFFFF" d="M646.975,771.832c-0.5,0.121-0.997,0.088-1.463-0.051l4.25,17.6c0.164,0.678,0.848,1.094,1.524,0.932
		l55.095-13.307c0.678-0.164,1.096-0.848,0.932-1.525l-4.25-17.598c-0.352,0.334-0.779,0.592-1.279,0.713L646.975,771.832z"/>
	<path fill="#FFFFFF" d="M697.471,740.115l-23.119,5.584l-0.357-1.478c-0.295-1.221-1.526-1.973-2.748-1.678l-4.426,1.068
		c-1.223,0.295-1.974,1.528-1.68,2.748l0.355,1.477l-23.119,5.584c-0.679,0.162-1.097,0.846-0.933,1.523l3.446,14.268
		c0.196,0.814,0.97,1.326,1.727,1.146l54.811-13.238c0.757-0.182,1.211-0.992,1.014-1.807l-3.445-14.267
		C698.832,740.367,698.151,739.951,697.471,740.115z M666.615,746.006c-0.099-0.406,0.153-0.818,0.561-0.916l4.428-1.07
		c0.406-0.098,0.818,0.152,0.915,0.562l0.356,1.473l-5.902,1.429L666.615,746.006z"/>
</g>
<g opacity="0.25">
	<path fill="#FFFFFF" d="M424.681,254.675c0.642,0.092,1.264-0.008,1.832-0.238l-3.236,22.648c-0.127,0.873-0.935,1.48-1.809,1.357
		l-70.908-10.139c-0.873-0.123-1.479-0.934-1.353-1.809l3.235-22.646c0.483,0.377,1.053,0.65,1.695,0.74L424.681,254.675z"/>
	<path fill="#FFFFFF" d="M355.539,222.179l-2.622,18.361c-0.149,1.049,0.518,2.01,1.491,2.152l70.541,10.084
		c0.976,0.139,1.886-0.598,2.035-1.646l2.627-18.359c0.125-0.877-0.481-1.684-1.356-1.807l-29.754-4.258l0.271-1.898
		c0.225-1.57-0.87-3.031-2.439-3.256l-5.699-0.813c-1.571-0.229-3.031,0.869-3.256,2.439l-0.272,1.9l-29.755-4.256
		C356.477,220.698,355.666,221.308,355.539,222.179z M396.6,226.437l-7.597-1.086l0.271-1.9c0.076-0.525,0.564-0.891,1.086-0.813
		l5.697,0.813c0.522,0.074,0.889,0.561,0.813,1.086L396.6,226.437z"/>
</g>
<g opacity="0.25">
	<path fill="#FFFFFF" d="M729.461,1204.342c0.641,0.092,1.264-0.008,1.832-0.238l-3.236,22.648c-0.127,0.873-0.937,1.48-1.81,1.357
		l-70.907-10.14c-0.873-0.123-1.479-0.934-1.354-1.809l3.236-22.646c0.483,0.377,1.053,0.65,1.694,0.74L729.461,1204.342z"/>
	<path fill="#FFFFFF" d="M660.321,1171.846l-2.623,18.361c-0.149,1.049,0.519,2.01,1.492,2.152l70.541,10.084
		c0.975,0.139,1.885-0.599,2.035-1.646l2.627-18.359c0.125-0.877-0.482-1.684-1.357-1.807l-29.754-4.258l0.271-1.898
		c0.225-1.569-0.869-3.031-2.439-3.256l-5.699-0.813c-1.571-0.229-3.03,0.869-3.256,2.438l-0.272,1.9l-29.754-4.256
		C661.256,1170.365,660.448,1170.975,660.321,1171.846z M701.379,1176.104l-7.597-1.086l0.271-1.899
		c0.076-0.525,0.563-0.892,1.086-0.813l5.697,0.813c0.522,0.073,0.889,0.561,0.813,1.086L701.379,1176.104z"/>
</g>
<g opacity="0.25">
	<path fill="#FFFFFF" d="M374.777,324.622c-0.5,0.121-0.997,0.088-1.463-0.051l4.25,17.6c0.164,0.678,0.848,1.094,1.525,0.932
		l55.094-13.307c0.678-0.164,1.096-0.848,0.932-1.525l-4.25-17.598c-0.352,0.334-0.778,0.592-1.278,0.713L374.777,324.622z"/>
	<path fill="#FFFFFF" d="M425.273,292.905l-23.119,5.584l-0.356-1.477c-0.295-1.221-1.527-1.973-2.748-1.678l-4.426,1.068
		c-1.224,0.295-1.975,1.529-1.681,2.748l0.356,1.477l-23.12,5.584c-0.678,0.162-1.096,0.846-0.933,1.523l3.446,14.268
		c0.196,0.814,0.97,1.326,1.728,1.145l54.81-13.238c0.757-0.182,1.211-0.992,1.014-1.807l-3.444-14.266
		C426.635,293.157,425.951,292.741,425.273,292.905z M394.418,298.796c-0.1-0.406,0.152-0.818,0.56-0.916l4.428-1.07
		c0.406-0.098,0.818,0.152,0.915,0.561l0.356,1.473l-5.902,1.428L394.418,298.796z"/>
</g>
<g opacity="0.25">
	<path fill="#FFFFFF" d="M747.682,847.946c-0.652,0.176-1.31,0.146-1.928-0.021l6.168,23.041c0.236,0.889,1.15,1.415,2.039,1.178
		l72.131-19.308c0.889-0.237,1.416-1.151,1.179-2.04l-6.169-23.039c-0.451,0.452-1.006,0.805-1.66,0.98L747.682,847.946z"/>
	<path fill="#FFFFFF" d="M813.163,804.538l-30.271,8.104l-0.518-1.932c-0.428-1.598-2.075-2.551-3.674-2.123l-5.797,1.553
		c-1.598,0.427-2.55,2.074-2.121,3.673l0.519,1.932l-30.271,8.104c-0.89,0.236-1.415,1.15-1.179,2.039l5,18.678
		c0.285,1.066,1.321,1.717,2.313,1.451l71.76-19.209c0.988-0.264,1.562-1.345,1.274-2.409l-4.999-18.679
		C814.963,804.83,814.051,804.302,813.163,804.538z M772.717,813.295c-0.144-0.532,0.175-1.083,0.707-1.226l5.796-1.552
		c0.532-0.143,1.081,0.176,1.225,0.707l0.519,1.933l-7.729,2.069L772.717,813.295z"/>
</g>
<g opacity="0.25">
	<path fill="#FFFFFF" d="M1084.37,433.928c-0.651,0.176-1.309,0.146-1.928-0.02l6.168,23.041c0.237,0.888,1.151,1.415,2.039,1.178
		l72.131-19.308c0.89-0.237,1.416-1.151,1.179-2.04l-6.169-23.039c-0.45,0.452-1.006,0.805-1.659,0.98L1084.37,433.928z"/>
	<path fill="#FFFFFF" d="M1149.854,390.52l-30.271,8.104l-0.517-1.932c-0.428-1.598-2.076-2.551-3.674-2.123l-5.797,1.553
		c-1.599,0.426-2.55,2.074-2.121,3.672l0.518,1.932l-30.271,8.104c-0.891,0.236-1.415,1.15-1.179,2.039l5,18.677
		c0.284,1.067,1.32,1.717,2.313,1.452l71.759-19.209c0.989-0.264,1.563-1.345,1.275-2.41l-4.999-18.678
		C1151.653,390.812,1150.74,390.284,1149.854,390.52z M1109.406,399.277c-0.143-0.532,0.175-1.083,0.707-1.226l5.796-1.551
		c0.532-0.143,1.081,0.175,1.226,0.707l0.518,1.932l-7.729,2.07L1109.406,399.277z"/>
</g>
<g opacity="0.25">
	<path fill="#FFFFFF" d="M728.351,740.834c-0.285-0.094-0.521-0.264-0.71-0.477l-3.344,10.043c-0.129,0.387,0.08,0.805,0.468,0.936
		l31.445,10.471c0.388,0.127,0.806-0.082,0.936-0.469l3.344-10.045c-0.277,0.057-0.569,0.051-0.854-0.043L728.351,740.834z"/>
	<path fill="#FFFFFF" d="M763.221,740.748l-13.196-4.393l0.281-0.845c0.229-0.694-0.147-1.451-0.843-1.684l-2.527-0.84
		c-0.696-0.232-1.451,0.146-1.684,0.842l-0.28,0.842l-13.198-4.393c-0.386-0.13-0.805,0.079-0.934,0.467l-2.711,8.143
		c-0.154,0.465,0.068,0.959,0.502,1.104l31.283,10.416c0.434,0.143,0.907-0.117,1.063-0.582l2.71-8.144
		C763.819,741.297,763.609,740.877,763.221,740.748z M746.094,734.111c0.077-0.232,0.33-0.357,0.562-0.283l2.526,0.844
		c0.231,0.076,0.357,0.328,0.281,0.562l-0.28,0.842l-3.369-1.121L746.094,734.111z"/>
</g>
<g opacity="0.25">
	<path fill="#FFFFFF" d="M449.131,1197.16c-0.518,0.129-1.031,0.102-1.516-0.039l4.558,18.174c0.176,0.701,0.887,1.127,1.588,0.953
		l56.896-14.27c0.701-0.177,1.127-0.888,0.949-1.589l-4.556-18.174c-0.362,0.351-0.804,0.621-1.318,0.748L449.131,1197.16z"/>
	<path fill="#FFFFFF" d="M501.104,1163.879l-23.876,5.988l-0.383-1.523c-0.317-1.262-1.601-2.03-2.858-1.713l-4.572,1.146
		c-1.262,0.313-2.028,1.596-1.713,2.858l0.381,1.523l-23.876,5.988c-0.701,0.174-1.128,0.885-0.95,1.588l3.694,14.729
		c0.211,0.844,1.017,1.365,1.797,1.168l56.604-14.192c0.782-0.197,1.244-1.037,1.032-1.88l-3.693-14.731
		C502.514,1164.131,501.804,1163.703,501.104,1163.879z M469.225,1170.254c-0.105-0.422,0.151-0.85,0.571-0.955l4.569-1.145
		c0.42-0.107,0.85,0.149,0.954,0.569l0.384,1.523l-6.097,1.529L469.225,1170.254z"/>
</g>
<g opacity="0.25">
	<path fill="#FFFFFF" d="M587.176,1087.239c-1.33,0.307-2.651,0.205-3.887-0.171l10.813,46.889c0.415,1.809,2.221,2.939,4.027,2.521
		l146.801-33.843c1.809-0.418,2.936-2.225,2.521-4.027l-10.813-46.894c-0.943,0.878-2.09,1.549-3.418,1.856L587.176,1087.239z"/>
	<path fill="#FFFFFF" d="M722.27,1004.337l-61.605,14.198l-0.903-3.93c-0.752-3.252-4.006-5.289-7.258-4.537l-11.8,2.717
		c-3.251,0.752-5.285,4.007-4.539,7.257l0.908,3.933l-61.604,14.203c-1.812,0.416-2.937,2.223-2.521,4.028l8.765,38.015
		c0.501,2.17,2.541,3.551,4.558,3.087l146.044-33.664c2.018-0.469,3.246-2.604,2.746-4.773l-8.762-38.015
		C725.879,1005.049,724.077,1003.921,722.27,1004.337z M640.096,1019.139c-0.247-1.087,0.431-2.173,1.515-2.422l11.795-2.719
		c1.082-0.251,2.17,0.427,2.42,1.512l0.908,3.933l-15.729,3.628L640.096,1019.139z"/>
</g>
<g opacity="0.25">
	<path fill="#FFFFFF" d="M358.433,1065.892c-0.496-0.137-0.914-0.406-1.254-0.754l-4.836,17.447
		c-0.187,0.672,0.209,1.368,0.88,1.555l54.62,15.139c0.672,0.188,1.368-0.207,1.555-0.882l4.836-17.445
		c-0.47,0.121-0.969,0.139-1.465,0.002L358.433,1065.892z"/>
	<path fill="#FFFFFF" d="M417.978,1062.704l-22.92-6.353l0.405-1.465c0.335-1.209-0.376-2.467-1.588-2.801l-4.388-1.217
		c-1.212-0.336-2.468,0.377-2.803,1.586l-0.405,1.463l-22.921-6.354c-0.672-0.187-1.369,0.207-1.556,0.881l-3.92,14.145
		c-0.224,0.809,0.204,1.631,0.953,1.839l54.338,15.061c0.75,0.208,1.541-0.279,1.764-1.087l3.92-14.144
		C419.047,1063.587,418.652,1062.891,417.978,1062.704z M388.148,1052.861c0.111-0.402,0.531-0.641,0.935-0.528l4.391,1.216
		c0.404,0.111,0.642,0.531,0.527,0.936l-0.404,1.461l-5.853-1.62L388.148,1052.861z"/>
</g>
<g opacity="0.25">
	<path fill="#FFFFFF" d="M807.94,570.493c0.324-0.115,0.59-0.317,0.801-0.565l4.08,11.412c0.156,0.439-0.072,0.923-0.512,1.08
		l-35.723,12.771c-0.439,0.157-0.925-0.072-1.082-0.513l-4.078-11.411c0.317,0.06,0.651,0.047,0.977-0.068L807.94,570.493z"/>
	<path fill="#FFFFFF" d="M767.522,572.354l3.307,9.248c0.189,0.529,0.74,0.815,1.232,0.642l35.537-12.706
		c0.49-0.175,0.736-0.746,0.547-1.274l-3.307-9.25c-0.158-0.438-0.644-0.67-1.082-0.512l-14.99,5.359l-0.342-0.957
		c-0.283-0.791-1.156-1.204-1.949-0.922l-2.869,1.025c-0.791,0.283-1.205,1.157-0.922,1.948l0.34,0.957l-14.99,5.359
		C767.594,571.43,767.364,571.912,767.522,572.354z M787.809,564.201l-3.828,1.367l-0.34-0.955
		c-0.096-0.265,0.043-0.558,0.305-0.649l2.873-1.026c0.262-0.095,0.555,0.045,0.648,0.31L787.809,564.201z"/>
</g>
<g opacity="0.25">
	<path fill="#FFFFFF" d="M465.385,57.159c0.324-0.115,0.59-0.317,0.801-0.565l4.08,11.412c0.156,0.439-0.072,0.923-0.512,1.08
		l-35.724,12.771c-0.438,0.158-0.924-0.072-1.082-0.512l-4.078-11.411c0.318,0.059,0.652,0.046,0.978-0.069L465.385,57.159z"/>
	<path fill="#FFFFFF" d="M424.967,59.019l3.307,9.248c0.189,0.529,0.74,0.815,1.232,0.641l35.537-12.706
		c0.489-0.175,0.735-0.746,0.547-1.274l-3.308-9.25c-0.157-0.439-0.643-0.67-1.082-0.512l-14.989,5.359l-0.343-0.957
		c-0.282-0.791-1.155-1.204-1.948-0.922l-2.869,1.026c-0.791,0.283-1.205,1.157-0.922,1.948l0.34,0.957l-14.99,5.359
		C425.038,58.095,424.809,58.578,424.967,59.019z M445.254,50.867l-3.828,1.367l-0.34-0.955c-0.097-0.264,0.043-0.557,0.305-0.649
		l2.873-1.026c0.262-0.095,0.555,0.044,0.647,0.309L445.254,50.867z"/>
</g>
<g opacity="0.25">
	<path fill="#FFFFFF" d="M471.308,1117.061c-0.845-0.012-1.62-0.27-2.304-0.678l-0.489,29.697c-0.021,1.145,0.894,2.086,2.039,2.109
		l92.979,1.535c1.146,0.018,2.088-0.898,2.107-2.043l0.49-29.697c-0.695,0.385-1.482,0.617-2.324,0.604L471.308,1117.061z"/>
	<path fill="#FFFFFF" d="M564.559,1087.462l-39.018-0.645l0.041-2.49c0.033-2.062-1.614-3.767-3.674-3.797l-7.472-0.125
		c-2.06-0.031-3.763,1.614-3.796,3.676l-0.042,2.488l-39.021-0.642c-1.145-0.021-2.089,0.894-2.105,2.037l-0.398,24.079
		c-0.022,1.373,0.994,2.506,2.272,2.525l92.499,1.528c1.277,0.019,2.332-1.077,2.354-2.454l0.397-24.075
		C566.617,1088.425,565.705,1087.479,564.559,1087.462z M513.132,1084.12c0.013-0.688,0.58-1.234,1.266-1.224l7.471,0.123
		c0.688,0.01,1.235,0.578,1.227,1.267l-0.041,2.488l-9.963-0.162L513.132,1084.12z"/>
</g>
<g opacity="0.25">
	<path fill="#FFFFFF" d="M1063.285,787.113c0.674,0.071,1.317-0.058,1.902-0.315l-2.544,23.715
		c-0.099,0.914-0.919,1.576-1.833,1.479l-74.244-7.963c-0.915-0.099-1.576-0.92-1.479-1.834l2.544-23.715
		c0.517,0.377,1.119,0.64,1.792,0.712L1063.285,787.113z"/>
	<path fill="#FFFFFF" d="M990.067,755.792l-2.062,19.225c-0.118,1.099,0.612,2.077,1.633,2.188l73.86,7.923
		c1.021,0.108,1.943-0.693,2.062-1.791l2.063-19.225c0.098-0.914-0.563-1.736-1.479-1.834l-31.156-3.343l0.213-1.987
		c0.178-1.646-1.018-3.126-2.661-3.303l-5.968-0.641c-1.645-0.177-3.126,1.02-3.303,2.663l-0.213,1.988l-31.156-3.342
		C990.986,754.216,990.164,754.878,990.067,755.792z M1032.998,758.722l-7.954-0.854l0.214-1.988
		c0.059-0.549,0.553-0.947,1.101-0.888l5.966,0.64c0.548,0.06,0.946,0.553,0.889,1.103L1032.998,758.722z"/>
</g>
<g opacity="0.25">
	<path fill="#FFFFFF" d="M965.619,982.217c0.412,0.102,0.822,0.072,1.205-0.041l-3.504,14.512c-0.136,0.561-0.699,0.903-1.258,0.77
		l-45.431-10.973c-0.561-0.136-0.903-0.698-0.77-1.259l3.505-14.512c0.29,0.276,0.644,0.488,1.056,0.588L965.619,982.217z"/>
	<path fill="#FFFFFF" d="M922.722,956.831l-2.841,11.764c-0.162,0.672,0.212,1.34,0.836,1.49l45.195,10.916
		c0.624,0.15,1.263-0.272,1.425-0.944l2.842-11.763c0.135-0.561-0.209-1.124-0.769-1.259l-19.064-4.604l0.294-1.217
		c0.242-1.006-0.377-2.021-1.385-2.266l-3.65-0.882c-1.006-0.243-2.022,0.378-2.266,1.384l-0.296,1.217l-19.063-4.604
		C923.42,955.928,922.857,956.271,922.722,956.831z M949.129,962.137l-4.867-1.177l0.294-1.215c0.08-0.337,0.42-0.544,0.755-0.463
		l3.651,0.883c0.335,0.08,0.542,0.42,0.461,0.755L949.129,962.137z"/>
</g>
<g opacity="0.25">
	<path fill="#FFFFFF" d="M1090.059,884.911c0.813-0.221,1.503-0.66,2.064-1.226l7.762,28.671c0.299,1.104-0.354,2.243-1.46,2.545
		l-89.762,24.299c-1.105,0.301-2.243-0.356-2.544-1.463l-7.762-28.669c0.77,0.203,1.588,0.234,2.402,0.017L1090.059,884.911z"/>
	<path fill="#FFFFFF" d="M990.933,881.639l6.293,23.241c0.359,1.327,1.65,2.133,2.884,1.801l89.298-24.174
		c1.233-0.333,1.941-1.681,1.583-3.008l-6.292-23.242c-0.299-1.105-1.438-1.762-2.543-1.46l-37.669,10.194l-0.65-2.402
		c-0.538-1.989-2.595-3.168-4.582-2.631l-7.213,1.953c-1.988,0.537-3.168,2.594-2.631,4.582l0.651,2.403l-37.668,10.197
		C991.287,879.394,990.636,880.532,990.933,881.639z M1042.082,865.644l-9.617,2.604l-0.65-2.403
		c-0.18-0.664,0.214-1.351,0.877-1.526l7.212-1.953c0.662-0.181,1.349,0.213,1.528,0.876L1042.082,865.644z"/>
</g>
<g opacity="0.25">
	<path fill="#FFFFFF" d="M589.971,947.181c0.927,0.105,1.815-0.063,2.626-0.413l-3.769,32.672c-0.146,1.26-1.283,2.164-2.543,2.02
		l-102.29-11.793c-1.262-0.145-2.163-1.287-2.019-2.545l3.767-32.673c0.709,0.523,1.537,0.894,2.464,1L589.971,947.181z"/>
	<path fill="#FFFFFF" d="M489.349,903.188l-3.053,26.486c-0.177,1.514,0.822,2.871,2.228,3.036l101.763,11.729
		c1.405,0.161,2.687-0.933,2.86-2.443l3.054-26.489c0.146-1.259-0.758-2.398-2.018-2.544l-42.926-4.949l0.315-2.739
		c0.261-2.267-1.371-4.32-3.637-4.582l-8.221-0.947c-2.266-0.264-4.32,1.369-4.582,3.637l-0.315,2.737l-42.926-4.948
		C490.633,901.024,489.494,901.931,489.349,903.188z M548.517,907.7l-10.96-1.267l0.316-2.739c0.088-0.756,0.773-1.3,1.528-1.211
		l8.218,0.946c0.757,0.087,1.3,0.771,1.214,1.529L548.517,907.7z"/>
</g>
<g opacity="0.25">
	<path fill="#FFFFFF" d="M1188.112,1000.368c1.637-0.138,3.112-0.736,4.387-1.617l4.763,57.649c0.184,2.224-1.468,4.175-3.69,4.357
		l-180.49,14.911c-2.227,0.183-4.176-1.475-4.358-3.696l-4.762-57.65c1.401,0.662,2.957,1.011,4.593,0.88L1188.112,1000.368z"/>
	<path fill="#FFFFFF" d="M999.404,959.169l3.86,46.734c0.218,2.669,2.409,4.668,4.888,4.462l179.562-14.833
		c2.479-0.203,4.313-2.533,4.092-5.203l-3.861-46.736c-0.183-2.222-2.133-3.88-4.356-3.692l-75.742,6.257l-0.4-4.836
		c-0.33-3.993-3.852-6.98-7.849-6.65l-14.505,1.198c-3.998,0.33-6.982,3.852-6.654,7.85l0.4,4.832l-75.74,6.262
		C1000.871,954.994,999.221,956.945,999.404,959.169z M1103.009,946.557l-19.34,1.597l-0.396-4.835
		c-0.112-1.334,0.883-2.509,2.217-2.616l14.501-1.198c1.333-0.112,2.51,0.884,2.618,2.218L1103.009,946.557z"/>
</g>
<g opacity="0.25">
	<path fill="#FFFFFF" d="M1130.192,1138.695c0.903,0.127,1.779-0.015,2.579-0.336l-4.556,31.885
		c-0.18,1.229-1.315,2.084-2.547,1.912l-99.829-14.273c-1.229-0.176-2.082-1.316-1.904-2.547l4.557-31.883
		c0.681,0.529,1.481,0.914,2.388,1.041L1130.192,1138.695z"/>
	<path fill="#FFFFFF" d="M1032.851,1092.945l-3.693,25.85c-0.21,1.475,0.729,2.83,2.103,3.029l99.313,14.197
		c1.372,0.194,2.653-0.843,2.865-2.318l3.698-25.848c0.176-1.234-0.679-2.373-1.911-2.546l-41.891-5.991l0.382-2.672
		c0.315-2.214-1.226-4.269-3.437-4.587l-8.023-1.145c-2.213-0.32-4.269,1.225-4.584,3.436l-0.384,2.677l-41.892-5.992
		C1034.168,1090.859,1033.03,1091.717,1032.851,1092.945z M1090.656,1098.938l-10.694-1.526l0.383-2.676
		c0.105-0.74,0.794-1.257,1.528-1.146l8.021,1.146c0.736,0.104,1.251,0.788,1.146,1.526L1090.656,1098.938z"/>
</g>
<g opacity="0.25">
	<path fill="#FFFFFF" d="M1126.723,1206.631c0.443-0.158,0.807-0.434,1.094-0.772l5.571,15.584c0.213,0.598-0.099,1.26-0.699,1.475
		l-48.776,17.438c-0.601,0.217-1.263-0.099-1.478-0.697l-5.569-15.582c0.436,0.08,0.892,0.063,1.333-0.094L1126.723,1206.631z"/>
	<path fill="#FFFFFF" d="M1071.534,1209.17l4.517,12.629c0.257,0.724,1.011,1.113,1.681,0.875l48.524-17.35
		c0.67-0.238,1.006-1.021,0.747-1.74l-4.517-12.631c-0.214-0.6-0.876-0.914-1.476-0.699l-20.47,7.318l-0.468-1.307
		c-0.387-1.08-1.579-1.646-2.659-1.261l-3.92,1.402c-1.079,0.387-1.646,1.58-1.259,2.66l0.464,1.307l-20.467,7.318
		C1071.633,1207.908,1071.32,1208.568,1071.534,1209.17z M1099.236,1198.039l-5.227,1.867l-0.466-1.306
		c-0.131-0.358,0.06-0.76,0.418-0.887l3.922-1.402c0.357-0.129,0.758,0.062,0.886,0.423L1099.236,1198.039z"/>
</g>
<g opacity="0.25">
	<path fill="#FFFFFF" d="M1231.532,786.605c1.068-0.375,1.95-1.031,2.646-1.843l13.211,37.644c0.51,1.452-0.252,3.043-1.703,3.552
		l-117.857,41.364c-1.452,0.511-3.041-0.257-3.551-1.706l-13.213-37.646c1.052,0.196,2.151,0.159,3.219-0.216L1231.532,786.605z"/>
	<path fill="#FFFFFF" d="M1098.426,791.954l10.712,30.518c0.61,1.742,2.42,2.695,4.039,2.131l117.249-41.151
		c1.618-0.569,2.435-2.441,1.824-4.184l-10.713-30.521c-0.509-1.45-2.098-2.216-3.551-1.706l-49.457,17.357l-1.107-3.154
		c-0.916-2.613-3.786-3.989-6.397-3.074l-9.471,3.324c-2.61,0.915-3.987,3.786-3.071,6.397l1.107,3.154l-49.458,17.359
		C1098.681,788.913,1097.918,790.503,1098.426,791.954z M1165.373,765.508l-12.628,4.432l-1.106-3.158
		c-0.307-0.87,0.154-1.828,1.024-2.133l9.469-3.323c0.87-0.307,1.825,0.155,2.135,1.025L1165.373,765.508z"/>
</g>
<g opacity="0.25">
	<path fill="#FFFFFF" d="M1192.644,908.786c0.5,0.121,0.997,0.088,1.463-0.05l-4.25,17.599c-0.164,0.678-0.848,1.095-1.524,0.932
		l-55.095-13.307c-0.678-0.164-1.096-0.847-0.932-1.525l4.25-17.598c0.352,0.334,0.779,0.592,1.279,0.713L1192.644,908.786z"/>
	<path fill="#FFFFFF" d="M1140.621,878.001l-3.444,14.266c-0.197,0.814,0.257,1.625,1.014,1.808l54.811,13.237
		c0.757,0.183,1.529-0.329,1.727-1.145l3.446-14.267c0.164-0.68-0.254-1.362-0.932-1.524l-23.12-5.584l0.355-1.478
		c0.294-1.219-0.457-2.451-1.68-2.746l-4.427-1.069c-1.221-0.295-2.452,0.458-2.748,1.678l-0.356,1.478l-23.119-5.584
		C1141.468,876.905,1140.784,877.322,1140.621,878.001z M1172.646,884.435l-5.902-1.427l0.356-1.474
		c0.097-0.408,0.509-0.658,0.915-0.562l4.428,1.07c0.406,0.098,0.658,0.51,0.561,0.916L1172.646,884.435z"/>
</g>
<g opacity="0.25">
	<path fill="#FFFFFF" d="M745.662,949.113c-0.673,0.071-1.316-0.058-1.901-0.315l2.544,23.715c0.099,0.914,0.919,1.576,1.833,1.479
		l74.244-7.963c0.915-0.099,1.576-0.92,1.479-1.834l-2.544-23.715c-0.517,0.377-1.119,0.64-1.792,0.712L745.662,949.113z"/>
	<path fill="#FFFFFF" d="M817.05,916.313l-31.156,3.343l-0.213-1.988c-0.177-1.646-1.658-2.84-3.303-2.663l-5.968,0.64
		c-1.645,0.178-2.839,1.658-2.662,3.304l0.214,1.987l-31.156,3.343c-0.915,0.098-1.576,0.92-1.479,1.834l2.063,19.225
		c0.117,1.098,1.041,1.898,2.061,1.791l73.861-7.923c1.021-0.109,1.751-1.089,1.633-2.188l-2.062-19.225
		C818.783,916.878,817.964,916.216,817.05,916.313z M775.738,918.733c-0.059-0.55,0.34-1.044,0.888-1.103l5.967-0.64
		c0.548-0.061,1.042,0.339,1.101,0.888l0.214,1.988l-7.955,0.854L775.738,918.733z"/>
</g>
<g opacity="0.25">
	<path fill="#FFFFFF" d="M852.306,940.786c-0.5,0.121-0.997,0.088-1.463-0.05l4.25,17.599c0.164,0.678,0.848,1.095,1.524,0.932
		l55.095-13.307c0.678-0.164,1.096-0.847,0.932-1.525l-4.25-17.598c-0.352,0.334-0.779,0.592-1.279,0.713L852.306,940.786z"/>
	<path fill="#FFFFFF" d="M902.802,909.069l-23.119,5.584l-0.357-1.478c-0.295-1.22-1.526-1.973-2.748-1.678l-4.426,1.069
		c-1.223,0.295-1.974,1.527-1.68,2.747l0.355,1.477l-23.12,5.584c-0.678,0.162-1.096,0.846-0.932,1.523l3.446,14.268
		c0.196,0.814,0.97,1.326,1.727,1.145l54.811-13.237c0.757-0.183,1.211-0.992,1.014-1.808L904.327,910
		C904.163,909.322,903.482,908.905,902.802,909.069z M871.948,914.96c-0.099-0.406,0.153-0.818,0.561-0.916l4.428-1.07
		c0.406-0.098,0.818,0.152,0.915,0.562l0.355,1.474l-5.901,1.427L871.948,914.96z"/>
</g>
<g opacity="0.25">
	<path fill="#FFFFFF" d="M710.553,462.793c-0.325-0.115-0.591-0.317-0.801-0.565l-4.08,11.412c-0.156,0.439,0.071,0.923,0.512,1.08
		l35.723,12.771c0.439,0.158,0.924-0.072,1.081-0.513l4.079-11.41c-0.318,0.059-0.652,0.046-0.977-0.069L710.553,462.793z"/>
	<path fill="#FFFFFF" d="M750.457,463.572l-14.988-5.359l0.34-0.957c0.283-0.791-0.131-1.665-0.922-1.948l-2.87-1.025
		c-0.792-0.282-1.665,0.131-1.948,0.922l-0.342,0.957l-14.991-5.359c-0.438-0.158-0.924,0.072-1.081,0.513l-3.307,9.25
		c-0.189,0.527,0.057,1.1,0.547,1.273l35.537,12.706c0.491,0.175,1.043-0.111,1.23-0.641l3.308-9.248
		C751.128,464.212,750.899,463.73,750.457,463.572z M731.026,455.546c0.094-0.265,0.386-0.403,0.648-0.309l2.872,1.025
		c0.263,0.094,0.4,0.387,0.306,0.649l-0.341,0.955l-3.827-1.367L731.026,455.546z"/>
</g>
<g opacity="0.25">
	<path fill="#FFFFFF" d="M629.366,282.884c0.846-0.012,1.62-0.27,2.305-0.678l0.488,29.697c0.021,1.145-0.894,2.087-2.039,2.109
		l-92.979,1.535c-1.146,0.018-2.088-0.898-2.107-2.043l-0.489-29.697c0.694,0.385,1.481,0.617,2.323,0.604L629.366,282.884z"/>
	<path fill="#FFFFFF" d="M534.074,255.394l0.397,24.074c0.022,1.377,1.078,2.473,2.354,2.455l92.499-1.528
		c1.278-0.02,2.296-1.152,2.272-2.526l-0.398-24.078c-0.018-1.145-0.962-2.059-2.105-2.037l-39.021,0.641l-0.042-2.488
		c-0.033-2.061-1.736-3.707-3.796-3.676l-7.472,0.125c-2.06,0.031-3.707,1.736-3.674,3.797l0.041,2.49l-39.018,0.645
		C534.97,253.304,534.058,254.25,534.074,255.394z M587.586,252.437l-9.964,0.162l-0.041-2.488c-0.01-0.688,0.539-1.257,1.227-1.266
		l7.471-0.123c0.687-0.012,1.253,0.535,1.267,1.223L587.586,252.437z"/>
</g>
<g opacity="0.25">
	<path fill="#FFFFFF" d="M615.328,912.217c-0.412,0.102-0.821,0.072-1.205-0.041l3.505,14.512c0.136,0.561,0.698,0.903,1.258,0.77
		l45.431-10.973c0.561-0.136,0.903-0.698,0.77-1.259l-3.506-14.512c-0.289,0.276-0.643,0.488-1.055,0.588L615.328,912.217z"/>
	<path fill="#FFFFFF" d="M656.97,886.063l-19.064,4.604l-0.295-1.217c-0.243-1.006-1.26-1.627-2.266-1.384l-3.65,0.882
		c-1.008,0.243-1.627,1.26-1.385,2.266l0.294,1.217l-19.065,4.604c-0.559,0.135-0.901,0.698-0.768,1.259l2.842,11.763
		c0.162,0.672,0.8,1.096,1.424,0.944l45.196-10.916c0.624-0.15,0.998-0.818,0.836-1.49l-2.841-11.764
		C658.093,886.271,657.53,885.928,656.97,886.063z M631.527,890.92c-0.081-0.335,0.126-0.675,0.461-0.755l3.651-0.883
		c0.335-0.081,0.675,0.126,0.755,0.463l0.294,1.215l-4.867,1.177L631.527,890.92z"/>
</g>
<g opacity="0.25">
	<path fill="#FFFFFF" d="M1130.875,711.876c0.553,0.05,1.076-0.063,1.554-0.282l-1.763,19.432c-0.066,0.749-0.729,1.301-1.479,1.235
		l-60.835-5.513c-0.749-0.068-1.3-0.731-1.232-1.482l1.761-19.43c0.427,0.301,0.925,0.508,1.476,0.559L1130.875,711.876z"/>
	<path fill="#FFFFFF" d="M1070.564,687.246l-1.428,15.751c-0.079,0.899,0.532,1.69,1.366,1.769l60.521,5.482
		c0.836,0.077,1.581-0.594,1.661-1.493l1.427-15.752c0.069-0.75-0.484-1.413-1.232-1.479l-25.529-2.313l0.146-1.629
		c0.123-1.35-0.874-2.542-2.222-2.666l-4.889-0.443c-1.348-0.123-2.543,0.876-2.666,2.225l-0.146,1.629l-25.528-2.313
		C1071.293,685.944,1070.633,686.497,1070.564,687.246z M1105.72,689.063l-6.52-0.592l0.147-1.629c0.041-0.45,0.439-0.782,0.89-0.74
		l4.888,0.442c0.448,0.04,0.781,0.438,0.74,0.888L1105.72,689.063z"/>
</g>
<g opacity="0.25">
	<path fill="#FFFFFF" d="M1191.522,624.52c0.631,0.156,1.26,0.123,1.85-0.049l-5.563,22.193c-0.215,0.854-1.082,1.375-1.938,1.162
		l-69.478-17.423c-0.855-0.213-1.375-1.082-1.159-1.939l5.563-22.19c0.442,0.426,0.98,0.758,1.609,0.914L1191.522,624.52z"/>
	<path fill="#FFFFFF" d="M1126.118,585.042l-4.51,17.99c-0.259,1.026,0.306,2.053,1.261,2.295l69.118,17.33
		c0.955,0.242,1.938-0.396,2.194-1.427l4.513-17.987c0.216-0.857-0.304-1.728-1.162-1.938l-29.153-7.313l0.466-1.859
		c0.386-1.541-0.553-3.104-2.093-3.492l-5.583-1.397c-1.538-0.39-3.104,0.551-3.489,2.092l-0.469,1.859l-29.154-7.313
		C1127.201,583.665,1126.334,584.188,1126.118,585.042z M1166.517,593.524l-7.444-1.865l0.469-1.861
		c0.13-0.514,0.652-0.828,1.164-0.695l5.582,1.396c0.513,0.129,0.825,0.65,0.697,1.166L1166.517,593.524z"/>
</g>
<g opacity="0.25">
	<path fill="#FFFFFF" d="M976.115,1089.598c0.496-0.137,0.914-0.407,1.254-0.754l4.836,17.447c0.187,0.672-0.209,1.367-0.88,1.555
		l-54.62,15.138c-0.672,0.188-1.367-0.207-1.555-0.882l-4.836-17.444c0.47,0.121,0.969,0.139,1.465,0.002L976.115,1089.598z"/>
	<path fill="#FFFFFF" d="M915.689,1087.965l3.92,14.143c0.224,0.81,1.014,1.296,1.764,1.089l54.339-15.062
		c0.749-0.207,1.176-1.031,0.952-1.838l-3.92-14.146c-0.187-0.673-0.884-1.065-1.556-0.88l-22.921,6.354l-0.405-1.463
		c-0.335-1.209-1.591-1.922-2.803-1.586l-4.388,1.217c-1.212,0.334-1.923,1.592-1.587,2.801l0.404,1.465l-22.92,6.353
		C915.896,1086.596,915.5,1087.293,915.689,1087.965z M946.804,1078.029l-5.853,1.621l-0.403-1.461
		c-0.114-0.404,0.123-0.824,0.526-0.937l4.391-1.215c0.402-0.111,0.822,0.125,0.935,0.526L946.804,1078.029z"/>
</g>
<g opacity="0.25">
	<path fill="#FFFFFF" d="M884.971,1146.277c0.949-0.015,1.818-0.302,2.588-0.761l0.549,33.354c0.022,1.285-1.003,2.344-2.29,2.369
		l-104.425,1.723c-1.288,0.021-2.345-1.008-2.367-2.293l-0.551-33.354c0.781,0.432,1.665,0.692,2.61,0.678L884.971,1146.277z"/>
	<path fill="#FFFFFF" d="M777.948,1115.404l0.446,27.037c0.026,1.547,1.211,2.776,2.646,2.758l103.888-1.717
		c1.436-0.021,2.579-1.295,2.553-2.838l-0.448-27.041c-0.02-1.287-1.08-2.313-2.365-2.289l-43.822,0.721l-0.048-2.795
		c-0.037-2.314-1.949-4.164-4.264-4.129l-8.392,0.141c-2.313,0.035-4.163,1.949-4.126,4.264l0.046,2.797l-43.82,0.726
		C778.951,1113.057,777.928,1114.119,777.948,1115.404z M838.046,1112.084l-11.189,0.18l-0.046-2.793
		c-0.011-0.772,0.604-1.412,1.376-1.422l8.391-0.139c0.771-0.014,1.407,0.602,1.422,1.373L838.046,1112.084z"/>
</g>
<g opacity="0.25">
	<path fill="#FFFFFF" d="M678.07,289.027c-0.504-0.18-0.916-0.492-1.242-0.877l-6.325,17.697c-0.242,0.68,0.11,1.43,0.793,1.674
		l55.396,19.805c0.681,0.246,1.433-0.111,1.676-0.793l6.326-17.695c-0.494,0.09-1.012,0.07-1.515-0.107L678.07,289.027z"/>
	<path fill="#FFFFFF" d="M739.949,290.234l-23.244-8.313l0.527-1.482c0.439-1.227-0.203-2.582-1.43-3.021l-4.45-1.592
		c-1.229-0.438-2.582,0.203-3.021,1.43l-0.529,1.484l-23.246-8.311c-0.683-0.246-1.434,0.111-1.677,0.793l-5.129,14.344
		c-0.293,0.818,0.089,1.705,0.85,1.977l55.106,19.703c0.763,0.271,1.617-0.174,1.909-0.994l5.128-14.34
		C740.99,291.226,740.634,290.478,739.949,290.234z M709.817,277.789c0.146-0.41,0.598-0.625,1.005-0.479l4.454,1.592
		c0.407,0.143,0.622,0.598,0.475,1.006l-0.528,1.482l-5.936-2.121L709.817,277.789z"/>
</g>
<g opacity="0.25">
	<path fill="#FFFFFF" d="M554.217,1195.396c-0.437,0.217-0.901,0.291-1.36,0.264l7.634,15.346c0.294,0.592,1.014,0.834,1.604,0.539
		l48.048-23.896c0.592-0.295,0.832-1.014,0.54-1.604l-7.635-15.348c-0.255,0.383-0.597,0.709-1.029,0.926L554.217,1195.396z"/>
	<path fill="#FFFFFF" d="M594.139,1155.475l-20.162,10.027l-0.64-1.285c-0.53-1.063-1.826-1.5-2.892-0.971l-3.861,1.92
		c-1.063,0.529-1.5,1.826-0.971,2.891l0.642,1.287l-20.163,10.027c-0.594,0.295-0.833,1.014-0.538,1.604l6.188,12.441
		c0.354,0.711,1.175,1.021,1.835,0.691l47.801-23.771c0.659-0.33,0.907-1.172,0.556-1.881l-6.188-12.443
		C595.448,1155.422,594.732,1155.182,594.139,1155.475z M566.902,1167.418c-0.176-0.357-0.031-0.789,0.324-0.965l3.858-1.92
		c0.354-0.178,0.788-0.033,0.965,0.322l0.641,1.286l-5.146,2.562L566.902,1167.418z"/>
</g>
</svg>
