<svg version="1.1" id="sleep-well" xmlns="http://www.w3.org/2000/svg" xmlns:xlink="http://www.w3.org/1999/xlink" x="0px"
	 y="0px" width="180.197px" height="227.577px" viewBox="0 0 180.197 227.577" enable-background="new 0 0 180.197 227.577"
	 xml:space="preserve">
<g>
	<circle fill="#4e5f17" cx="60.369" cy="167.209" r="60.358"/>

		<ellipse transform="matrix(0.8761 0.482 -0.482 0.8761 85.7185 -8.3002)" fill="#6f8821" cx="59.012" cy="162.66" rx="56.976" ry="57.023"/>
	<polyline fill="#6f8821" points="39.286,169.959 71.587,81.363 6.634,65.583 18.451,0 180.197,45.805 161.417,102.175
		93.677,88.938 64.257,169.6 	"/>
	<g>
		<path fill="#CAFCD8" d="M34.504,51.008c0.895-0.741,1.484-1.71,1.771-2.906s0.311-2.266,0.073-3.208
			c-0.239-0.942-0.632-1.739-1.178-2.39c-0.548-0.65-1.137-1.361-1.768-2.131c-0.631-0.769-1.214-1.506-1.748-2.21
			c-0.533-0.703-0.908-1.573-1.124-2.609c-0.216-1.035-0.181-2.15,0.105-3.347c0.509-2.126,1.554-3.675,3.136-4.646
			c1.581-0.971,3.502-1.186,5.761-0.645l3.229,0.772l-0.629,2.632l-3.07-0.734c-1.276-0.306-2.346-0.125-3.207,0.539
			c-0.861,0.665-1.408,1.476-1.637,2.433s-0.207,1.834,0.066,2.63s0.688,1.5,1.244,2.11c0.557,0.611,1.154,1.316,1.791,2.115
			c0.638,0.8,1.215,1.591,1.73,2.374c0.514,0.784,0.863,1.761,1.049,2.929c0.184,1.169,0.113,2.43-0.211,3.785
			c-0.599,2.5-1.762,4.217-3.488,5.152c-1.728,0.936-3.828,1.107-6.3,0.516l-4.187-1.002l0.629-2.632l4.348,1.04
			C32.404,51.938,33.609,51.749,34.504,51.008z"/>
		<path fill="#CAFCD8" d="M41.504,56.899l6.682-27.912l3.189,0.764l-6.682,27.912L41.504,56.899z"/>
		<path fill="#CAFCD8" d="M54.637,57.513l4.307,1.031l-0.572,2.393l-4.785-1.146c-1.463-0.351-2.521-1.067-3.174-2.151
			c-0.654-1.084-0.803-2.369-0.446-3.858l2.538-10.606c0.414-1.728,1.217-2.97,2.408-3.724c1.193-0.755,2.732-0.906,4.62-0.454
			c1.888,0.451,3.185,1.282,3.894,2.491c0.707,1.21,0.855,2.679,0.441,4.406l-0.439,1.834c-0.457,1.914-1.919,2.913-4.385,2.998
			l-5.02,0.189l-0.936,3.907c-0.152,0.638-0.086,1.209,0.202,1.714C53.575,57.041,54.024,57.366,54.637,57.513z M55.855,43.26
			l-1.23,5.145c0.655-0.04,1.35-0.063,2.082-0.071c0.732-0.007,1.234-0.021,1.506-0.039c0.271-0.02,0.573-0.046,0.905-0.079
			c0.33-0.033,0.542-0.123,0.634-0.271c0.261-0.387,0.449-0.819,0.563-1.299l0.524-2.192c0.395-1.647-0.232-2.67-1.88-3.063
			c-0.745-0.179-1.401-0.11-1.968,0.203C56.426,41.907,56.047,42.463,55.855,43.26z"/>
		<path fill="#CAFCD8" d="M68.553,60.844l4.307,1.031l-0.572,2.392l-4.785-1.146c-1.463-0.35-2.521-1.066-3.174-2.15
			c-0.654-1.084-0.804-2.37-0.447-3.858l2.539-10.607c0.413-1.728,1.217-2.969,2.408-3.723c1.193-0.755,2.732-0.906,4.62-0.454
			c1.887,0.451,3.185,1.282,3.894,2.491c0.707,1.209,0.855,2.678,0.441,4.405l-0.439,1.835c-0.457,1.913-1.919,2.912-4.385,2.998
			l-5.02,0.189l-0.936,3.907c-0.152,0.638-0.086,1.209,0.202,1.713C67.491,60.372,67.94,60.697,68.553,60.844z M69.771,46.591
			l-1.23,5.145c0.655-0.04,1.35-0.063,2.082-0.071c0.732-0.007,1.234-0.021,1.506-0.04s0.573-0.045,0.905-0.078
			c0.33-0.033,0.542-0.124,0.634-0.271c0.261-0.387,0.449-0.819,0.563-1.299l0.524-2.192c0.395-1.647-0.232-2.67-1.88-3.064
			c-0.745-0.178-1.401-0.109-1.968,0.203C70.342,45.238,69.963,45.794,69.771,46.591z"/>
		<path fill="#CAFCD8" d="M78.934,72.604l-3.189-0.764l6.489-27.114l6.46,1.546c1.461,0.351,2.59,1.126,3.385,2.328
			c0.793,1.201,1.02,2.521,0.676,3.956l-2.567,10.726c-0.344,1.436-1.134,2.505-2.369,3.206c-1.236,0.702-2.585,0.878-4.047,0.528
			l-3.31-0.792L78.934,72.604z M87.482,48.511l-2.631-0.629l-3.828,15.989l2.632,0.63c0.744,0.178,1.442,0.078,2.096-0.3
			c0.651-0.378,1.067-0.938,1.245-1.684l2.568-10.726c0.178-0.744,0.061-1.433-0.35-2.065
			C88.804,49.095,88.227,48.689,87.482,48.511z"/>
		<path fill="#CAFCD8" d="M108.236,56.556l4.068,0.974l-1.018,12.531l6.473-16.832l3.189,0.764l-8.75,19.827l-3.27-0.782
			l0.635-13.044l-5.34,11.918l-3.27-0.783l1.174-21.641l3.19,0.764l-1.849,17.938L108.236,56.556z"/>
		<path fill="#CAFCD8" d="M124.175,74.157l4.307,1.03l-0.572,2.393l-4.784-1.146c-1.463-0.35-2.521-1.066-3.174-2.151
			c-0.654-1.083-0.804-2.369-0.447-3.858l2.539-10.606c0.413-1.728,1.216-2.97,2.408-3.724s2.732-0.905,4.619-0.454
			c1.888,0.452,3.186,1.282,3.895,2.491c0.707,1.21,0.854,2.679,0.441,4.406l-0.439,1.834c-0.458,1.914-1.92,2.913-4.385,2.998
			l-5.02,0.189l-0.936,3.908c-0.152,0.637-0.086,1.209,0.201,1.713C123.114,73.685,123.563,74.011,124.175,74.157z M125.395,59.903
			l-1.231,5.145c0.655-0.04,1.35-0.063,2.083-0.071c0.732-0.007,1.234-0.021,1.506-0.039c0.271-0.02,0.573-0.046,0.904-0.079
			s0.542-0.123,0.634-0.271c0.262-0.386,0.449-0.819,0.563-1.298l0.525-2.193c0.395-1.647-0.232-2.67-1.881-3.063
			c-0.744-0.179-1.4-0.11-1.967,0.203C125.964,58.551,125.585,59.106,125.395,59.903z"/>
		<path fill="#CAFCD8" d="M132.934,78.782l6.681-27.912l3.189,0.764l-6.681,27.912L132.934,78.782z"/>
		<path fill="#CAFCD8" d="M140.908,80.69l6.68-27.911l3.19,0.764l-6.681,27.911L140.908,80.69z"/>
		<path fill="#CAFCD8" d="M149.082,82.647l0.982-4.107l3.189,0.764l-0.982,4.107L149.082,82.647z M158.952,55.499l-5.106,21.332
			l-3.189-0.763l5.105-21.333L158.952,55.499z"/>
	</g>
	<path fill="#CAFCD8" d="M43.206,136.891c-5.688,3.504-11.979,3.623-14.051,0.264c-2.072-3.363,0.857-8.93,6.545-12.438
		c5.689-3.506,11.98-3.625,14.053-0.264C51.823,127.814,48.894,133.383,43.206,136.891z"/>

		<ellipse transform="matrix(-0.997 0.0776 -0.0776 -0.997 122.66 229.3789)" fill="#CAFCD8" cx="56.874" cy="117.072" rx="5.865" ry="3.013"/>
	<circle fill="#CAFCD8" cx="73.397" cy="138.069" r="12.555"/>
	<circle fill="#CAFCD8" cx="77.829" cy="165.879" r="9.675"/>
	<circle fill="#CAFCD8" cx="47.841" cy="152.921" r="9.467"/>
	<path fill="#CAFCD8" d="M68.253,202.914c-3.895,7.08-12.791,9.66-19.871,5.766c-7.078-3.895-9.66-12.791-5.766-19.869
		c3.896-7.082,12.793-9.662,19.871-5.768C69.567,186.938,72.149,195.834,68.253,202.914z"/>
	<circle fill="#CAFCD8" cx="28.7" cy="180.447" r="8.645"/>

		<ellipse transform="matrix(0.9966 -0.083 0.083 0.9966 -12.6702 2.4486)" fill="#CAFCD8" cx="23.123" cy="153.652" rx="6.073" ry="11.732"/>

		<ellipse transform="matrix(-0.4332 -0.9013 0.9013 -0.4332 -45.1986 359.3002)" fill="#CAFCD8" cx="90.379" cy="193.862" rx="7.41" ry="11.938"/>

		<ellipse transform="matrix(0.9963 -0.086 0.086 0.9963 -13.7103 9.1459)" fill="#CAFCD8" cx="99.325" cy="163.745" rx="6.895" ry="11.836"/>

		<ellipse transform="matrix(0.9514 -0.308 0.308 0.9514 -38.3651 37.5897)" fill="#CAFCD8" cx="99.883" cy="140.316" rx="3.329" ry="5.693"/>
</g>
</svg>
