<?xml version="1.0" encoding="utf-8"?>
<!-- Generator: Adobe Illustrator 15.0.0, SVG Export Plug-In . SVG Version: 6.00 Build 0)  -->
<!DOCTYPE svg PUBLIC "-//W3C//DTD SVG 1.1//EN" "http://www.w3.org/Graphics/SVG/1.1/DTD/svg11.dtd">
<svg version="1.1" id="start_fhp-fahne" xmlns="http://www.w3.org/2000/svg" xmlns:xlink="http://www.w3.org/1999/xlink" x="0px"
	 y="0px" width="165px" height="178px" viewBox="0 0 165 178" enable-background="new 0 0 165 178" xml:space="preserve">
<polygon fill="#207EAF" points="0,0 0,83 156,83 156,178 165,178 165,83 165,78 165,0 "/>
<g>
	<polygon fill="#FFFFFF" points="118.521,47.341 112.029,47.341 112.029,54.216 118.521,54.216 	"/>
	<polygon fill="#FFFFFF" points="140.867,28.243 135.711,28.243 138.576,41.421 135.711,54.216 140.867,54.216 144.113,41.421 	"/>
	<polygon fill="#FFFFFF" points="46.904,28.243 21.886,28.243 21.886,54.216 29.144,54.216 29.144,44.476 46.904,44.476 
		46.904,38.556 29.144,38.556 29.144,34.163 46.904,34.163 	"/>
	<polygon fill="#FFFFFF" points="78.798,28.243 71.541,28.243 71.541,38.556 58.745,38.556 58.745,28.243 51.106,28.243 
		51.106,54.216 58.745,54.216 58.745,44.476 71.541,44.476 71.541,54.216 78.798,54.216 	"/>
	<polygon fill="#FFFFFF" points="118.521,28.243 112.029,28.243 112.029,35.118 118.521,35.118 	"/>
	<polygon fill="#FFFFFF" points="133.801,38.364 121.006,38.364 121.006,44.095 133.801,44.095 	"/>
	<path fill="#FFFFFF" d="M84,54h7v-9h6.896c6.875,0,11.649-2.293,11.649-8.596c0-6.111-4.774-8.404-11.649-8.404H84V54z M97.133,34
		c4.201,0,5.348,0.494,5.348,2.404c0,2.102-1.146,2.596-5.348,2.596H91v-5H97.133z"/>
</g>
</svg>
