<?xml version="1.0" encoding="utf-8"?>
<!-- Generator: Adobe Illustrator 15.0.0, SVG Export Plug-In . SVG Version: 6.00 Build 0)  -->
<!DOCTYPE svg PUBLIC "-//W3C//DTD SVG 1.1//EN" "http://www.w3.org/Graphics/SVG/1.1/DTD/svg11.dtd">
<svg version="1.1" id="Ebene_1" xmlns="http://www.w3.org/2000/svg" xmlns:xlink="http://www.w3.org/1999/xlink" x="0px" y="0px"
	 width="1280px" height="1280px" viewBox="0 0 1280 1280" enable-background="new 0 0 1280 1280" xml:space="preserve">
<circle opacity="0.25" fill="#FFFFFF" cx="148.657" cy="1235.231" r="7"/>
<path opacity="0.15" fill="#FFFFFF" d="M148.438,352.493c0.354,3.85-2.479,7.258-6.33,7.612c-3.85,0.355-7.257-2.479-7.61-6.329
	c-0.356-3.85,2.479-7.258,6.327-7.612C144.675,345.81,148.082,348.643,148.438,352.493z"/>
<circle opacity="0.15" fill="#FFFFFF" cx="292.016" cy="948.886" r="5"/>
<circle opacity="0.25" fill="#FFFFFF" cx="1002.979" cy="39.5" r="3.5"/>
<circle opacity="0.15" fill="#FFFFFF" cx="798.578" cy="241.084" r="6.5"/>
<path opacity="0.25" fill="#FFFFFF" d="M622.98,237.162c0.076,0.824-0.531,1.555-1.357,1.631c-0.823,0.075-1.556-0.532-1.631-1.356
	c-0.076-0.824,0.531-1.556,1.357-1.631C622.172,235.73,622.904,236.337,622.98,237.162z"/>
<circle opacity="0.15" fill="#FFFFFF" cx="1025.789" cy="211.133" r="9.501"/>
<circle opacity="0.4" fill="#FFFFFF" cx="1035.291" cy="1177.798" r="3.5"/>
<circle opacity="0.15" fill="#FFFFFF" cx="890.812" cy="901.208" r="1.264"/>
<circle opacity="0.15" fill="#FFFFFF" cx="846.325" cy="702.024" r="12.001"/>
<circle opacity="0.15" fill="#FFFFFF" cx="406.745" cy="564.251" r="3.5"/>
<circle opacity="0.35" fill="#FFFFFF" cx="626.484" cy="573.149" r="6.5"/>
<circle opacity="0.25" fill="#FFFFFF" cx="75.012" cy="636.963" r="6.5"/>
<circle opacity="0.15" fill="#FFFFFF" cx="63.085" cy="818.319" r="5"/>
<circle opacity="0.25" fill="#FFFFFF" cx="1221.062" cy="939.675" r="10.979"/>
<circle opacity="0.25" fill="#FFFFFF" cx="916.005" cy="95.248" r="8.5"/>
<circle opacity="0.25" fill="#FFFFFF" cx="233.622" cy="664.659" r="4"/>
<circle opacity="0.15" fill="#FFFFFF" cx="1101.273" cy="959.886" r="5.5"/>
<circle opacity="0.25" fill="#FFFFFF" cx="972.781" cy="588.386" r="8.414"/>
<circle opacity="0.35" fill="#FFFFFF" cx="1070.487" cy="858.854" r="4.74"/>
<circle opacity="0.15" fill="#FFFFFF" cx="733.285" cy="377.345" r="1.264"/>
<circle opacity="0.45" fill="#FFFFFF" cx="639.359" cy="267.829" r="11.999"/>
<circle opacity="0.15" fill="#FFFFFF" cx="757.199" cy="1185.874" r="5.5"/>
<circle opacity="0.35" fill="#FFFFFF" cx="394.699" cy="1186.213" r="8.414"/>
<circle opacity="0.35" fill="#FFFFFF" cx="824.999" cy="457.672" r="4.74"/>
<circle opacity="0.25" fill="#FFFFFF" cx="517.613" cy="119.721" r="12"/>
<circle opacity="0.45" fill="#FFFFFF" cx="750.883" cy="989.66" r="5.5"/>
<circle opacity="0.25" fill="#FFFFFF" cx="659.776" cy="892.604" r="8.413"/>
<circle opacity="0.25" fill="#FFFFFF" cx="75.33" cy="1038.832" r="6.5"/>
<circle opacity="0.25" fill="#FFFFFF" cx="287.005" cy="101.699" r="6.5"/>
<circle opacity="0.15" fill="#FFFFFF" cx="404.129" cy="352.898" r="9.5"/>
<circle opacity="0.25" fill="#FFFFFF" cx="457.44" cy="690.263" r="4.74"/>
<circle opacity="0.25" fill="#FFFFFF" cx="1134.683" cy="539.141" r="5.5"/>
<circle opacity="0.25" fill="#FFFFFF" cx="1219.156" cy="404.048" r="8.414"/>
</svg>
