<?xml version="1.0" encoding="utf-8"?>
<svg version="1.1" id="ballon" xmlns="http://www.w3.org/2000/svg" xmlns:xlink="http://www.w3.org/1999/xlink" x="0px" y="0px"
	 viewBox="0 0 780 230" style="enable-background:new 0 0 780 230;" xml:space="preserve">
<style type="text/css">
	.st0{fill:none;stroke:#BC381E;stroke-width:3;stroke-miterlimit:10;}
	.st1{fill:#BC381E;}
	.st2{fill:none;stroke:#BC381E;stroke-width:4;stroke-miterlimit:10;}
	.st3{fill:#EF4E22;}
</style>
<g>
	<path class="st0" d="M778.5,229.4c0,0-6.3-31.4-20.1,0.1"/>
	<g>
		<g>
			<path class="st1" d="M762.1,218.8c-1-1.7-3.3-6.6-0.6-7.8c2.5-1.1,3.1,2,2.8,3.5c-0.2,0.9-0.7,1.8-1.2,2.6
				c-0.8,1.3-1.5,2.6-1.9,4.1c-0.3,1.1,1.4,1.6,1.7,0.5c0.7-3,3.7-5.4,3.3-8.8c-0.3-2.1-2-4.1-4.2-3.8c-5.3,0.7-3.1,7.8-1.3,10.7
				C761.2,220.7,762.7,219.8,762.1,218.8L762.1,218.8z"/>
		</g>
	</g>
	<g>
		<g>
			<path class="st1" d="M761.3,220.4c-2.4-0.2-5-1.9-6.7-3.5c-0.8-0.8-1.9-2-1.8-3.3c0.1-1.2,1.6-2.5,2.7-2.5
				c1.9-0.1,2.9,3.1,3.5,4.5c0.7,1.7,1.2,3.7,2.5,5c0.8,0.8,2-0.4,1.2-1.2c-2.7-2.7-3.5-13.7-9.7-9c-6.2,4.6,3.7,11.4,8.3,11.8
				C762.4,222.2,762.4,220.4,761.3,220.4L761.3,220.4z"/>
		</g>
	</g>
	<g>
		<g>
			<path class="st1" d="M765.2,220.9C765.2,220.9,765.1,220.9,765.2,220.9c-0.1,0,0.1,0.1,0.2,0.2c0,0,0.1,0.1,0.1,0.1
				c0,0.1,0,0.1,0-0.1c0-0.1,0-0.1,0-0.1c0,0,0.1-0.1,0.1-0.1c0,0-0.1,0,0,0c-0.2,0-0.5,0.1-0.7,0.1c-0.3,0-0.6,0-1,0
				c-1.1,0-1.1,1.7,0,1.8c1.1,0,2.9,0.2,3.3-1.2c0.2-0.8-0.4-1.6-1.1-2c-0.7-0.4-1.5-0.3-2.1,0.2
				C763.2,220.4,764.4,221.6,765.2,220.9L765.2,220.9z"/>
		</g>
	</g>
	<g>
		<g>
			<path class="st1" d="M761.7,220.1c-2.5,1.4-6.6,4.2-9.6,2.7c-1-0.5-1.9,1-0.9,1.5c3.7,1.9,8.2-0.9,11.4-2.7
				C763.6,221,762.7,219.5,761.7,220.1L761.7,220.1z"/>
		</g>
	</g>
	<g>
		<polyline class="st1" points="104.7,18.9 104.8,18.7 109.9,4.3 107.3,0.8 108,-0.2 117.5,4.8 116.5,5.7 112.9,5.4 105.5,19.2
			"/>
		<path class="st2" d="M27.9,131.7c0,0-9.4,21,11.9,8.3"/>
		<g>
			<g>
				<path class="st1" d="M110,9.5c0.8-0.8,2.2-0.7,3.3-0.6c0.6,0.1,2.4,0.3,2.7,0.9c0.4,0.8-1.7,0.9-2.3,0.8
					c-1.2-0.2-2.5-0.8-3.3-1.8c-0.7-0.9-1.9,0.4-1.2,1.2c1.2,1.5,3.5,2.5,5.4,2.4c1.4-0.1,3.5-0.9,3.2-2.6c-0.2-1.6-2.3-2.3-3.7-2.5
					c-1.7-0.3-4-0.4-5.3,1C107.9,9,109.2,10.3,110,9.5L110,9.5z"/>
			</g>
		</g>
		<g>
			<g>
				<path class="st1" d="M110.1,9c-0.1-1.8-1.2-3.3-2.6-4.3c-1.1-0.8-3-1.7-4.1-0.5c-1,1-0.2,2.5,0.6,3.4c1.3,1.4,3.2,1.4,4.9,2
					c1.1,0.4,1.5-1.3,0.5-1.7c-1.1-0.4-2.6-0.4-3.6-1.1c-0.3-0.2-1.2-1-1.1-1.5c0.1-0.3,1.7,0.6,2,0.8c0.9,0.6,1.7,1.7,1.8,2.8
					C108.4,10.1,110.2,10.1,110.1,9L110.1,9z"/>
			</g>
		</g>
		<path class="st0" d="M109.1,9.6c0,0,109.3,156.1,655.9,212.2"/>
		<path class="st0" d="M104.9,230.4c0,0-6.3-31.4-20.1,0.1"/>
		<path class="st0" d="M29.6,144c0,0,18.6,49.3,61.7,75.3"/>
		<g>
			<g>
				<path class="st1" d="M28.8,143.2c-2,1.5-4.2,2.2-5.9,4.2c-1.2,1.5-2.2,3.2-2.9,5.1c-1.1,3-0.8,6.5,2.9,7
					c3.3,0.5,5.9-1.2,6.1-4.5c0.2-2.2-2.3-9,0.1-10.2c1-0.5,0.1-2-0.9-1.5c-4.4,2.2,0.3,9.5-1.2,13c-0.7,1.6-3.1,2.1-4.6,1.3
					c-1.8-0.9-1.2-3.1-0.7-4.6c0.6-1.6,1.5-3.2,2.6-4.5c1.5-1.8,3.5-2.4,5.4-3.7C30.6,144,29.7,142.5,28.8,143.2L28.8,143.2z"/>
			</g>
		</g>
		<g>
			<g>
				<path class="st1" d="M28.4,144.4c-0.5,3-0.8,6.4,0.7,9.2c1.5,2.7,4.8,3.6,7.6,3c2.8-0.5,4.3-2.8,3.1-5.5c-0.8-1.7-2.2-3-3.8-3.9
					c-0.8-0.4-1.6-0.7-2.4-1c-0.7-0.2-2.9-0.4-3-1.2c-0.2-1.1-1.9-0.6-1.7,0.5c0.3,2.1,2.6,1.9,4.2,2.4c1.5,0.5,3.1,1.3,4.1,2.5
					c1.2,1.4,2,3.5-0.1,4.3c-2.5,1-5.8-0.1-6.9-2.6c-0.9-2.2-0.6-4.9-0.2-7.2C30.3,143.7,28.6,143.3,28.4,144.4L28.4,144.4z"/>
			</g>
		</g>
		<g>
			<g>
				<path class="st1" d="M31.1,142.6c-0.3-1.2-1.9-2.3-3-1.2c-0.7,0.8-0.4,2.1,0,2.9c0.2,0.4,0.6,0.7,1.1,0.6
					c0.4-0.1,0.8-0.6,0.6-1.1c-0.2-0.4-0.3-0.8-0.3-1.2c0-0.1,0-0.2,0-0.2c0.1,0-0.3,0.2-0.3,0.2c0,0,0.2,0.3,0.2,0.4
					C29.7,144.1,31.4,143.7,31.1,142.6L31.1,142.6z"/>
			</g>
		</g>
		<g>
			<g>
				<path class="st1" d="M91.5,218.7c-0.4-0.8-1.1-2.3,0.2-1.2c0.3,0.3,0.5,0.9,0.7,1.3c0.4,0.7,0.8,1.3,1.6,1.5
					c0.3,0.1,0.6,0,0.9-0.2c0.4-0.4,0.4-0.8,0.5-1.4c0-0.3,0.3-3.1,0.4-2c0.1,1.1-0.6,2,0.7,2.6c1.5,0.8,2.4-0.7,3.4-1.5
					c1-0.9,0.4-0.2-0.1,0.4c-0.3,0.4-0.7,0.7-0.9,1.1c-0.4,0.7-0.3,1.4,0.3,2c0.4,0.4,1,0.4,1.5,0.5c0.3,0,1.4,0,1.5,0.1
					c0.5,0.5-0.5,0.6-0.7,0.7c-0.9,0.6-2.2,0.9-1.6,2.3c0.5,1.1,2,1.1,3,0.9c1.1-0.3,0.6-2-0.5-1.7c-1.3,0.3,0.3-0.1,0.6-0.2
					c0.5-0.2,1.2-0.6,1.5-1.1c0.4-0.5,0.5-1.1,0.1-1.8c-0.5-0.8-1.7-0.9-2.5-1c-0.5,0-1-0.1-1.5-0.1c-0.5-0.2-0.6-0.2-0.2,0
					c0-0.2,0.4-0.5,0.6-0.7c0.8-0.8,1.7-2,0.9-3.1c-0.4-0.5-1.1-0.7-1.7-0.6c-1,0.1-1.9,1.8-2.6,1.8c-0.4,0,0.1-1.5-0.2-2.2
					c-0.3-0.6-1.1-1.2-1.8-1.2c-1.7,0.1-2.3,2.7-2.1,4.1c-0.1,0.4,0,0.4,0.4,0.2c-0.1-0.2-0.3-0.5-0.4-0.7c-0.1-0.5-0.6-1.1-0.9-1.4
					c-0.5-0.6-1.1-1.1-2-1c-2.5,0.3-1.5,3.1-0.8,4.5C90.5,220.6,92,219.7,91.5,218.7L91.5,218.7z"/>
			</g>
		</g>
		<g>
			<circle class="st1" cx="71" cy="78.6" r="71"/>
			<ellipse class="st3" cx="67" cy="74.7" rx="67" ry="67.1"/>
		</g>
		<g>
			<g>
				<path class="st1" d="M109.5,8.9c-2.1-0.4-4.6,0.6-6,2.2c-0.7,0.8,0.5,2.1,1.2,1.2c1-1.1,2.8-2.1,4.3-1.8
					C110.1,10.8,110.6,9.1,109.5,8.9L109.5,8.9z"/>
			</g>
		</g>
	</g>
</g>
</svg>
