<?xml version="1.0" encoding="utf-8"?>
<!-- Generator: Adobe Illustrator 18.0.0, SVG Export Plug-In . SVG Version: 6.00 Build 0)  -->
<!DOCTYPE svg PUBLIC "-//W3C//DTD SVG 1.1//EN" "http://www.w3.org/Graphics/SVG/1.1/DTD/svg11.dtd">
<svg version="1.1" id="_x31_60315_x5F_FH_x3B_P_x5F_solo_x5F_W.eps"
	 xmlns="http://www.w3.org/2000/svg" xmlns:xlink="http://www.w3.org/1999/xlink" x="0px" y="0px" viewBox="0 0 41.7 100.1"
	 enable-background="new 0 0 41.7 100.1" xml:space="preserve">
<g>
	<g>
		<polygon fill="#FFFFFF" points="30.6,92.1 4.5,92.1 4.5,73 10.2,73 10.2,85.1 15.8,85.1 15.8,74 21.5,74 21.5,85.1 30.6,85.1 		
			"/>
		<path fill="#FFFFFF" d="M14,53.6H4.5v-7.1h26v7.1H20.1v8.8h10.5v7.1h-26v-7.1H14V53.6z"/>
		<path fill="#FFFFFF" d="M15.7,14c0.6,0.7,0.9,2,0.9,3.8v3.6h-6.5v-3.8c0-1.8,0.2-2.9,0.8-3.6c0.6-0.7,1.5-1,2.5-1
			C14.4,13.1,15.2,13.3,15.7,14z M6.5,8.8c-1.2,1.6-1.9,3.9-1.9,8.5v11.2h26v-7.1h-8.4v-4.6c0-3.7-0.7-6.2-2.1-7.9
			C18.5,7,16,6,13.3,6C10.5,6,8.1,6.8,6.5,8.8z"/>
		<g>
			<rect x="8.8" y="33.8" fill="#FFFFFF" width="7.7" height="7.2"/>
			<path fill="#FFFFFF" d="M22.8,41.1v-7.2h7.2c2.9,0,4.6,0.6,6.1,1.6c0.9,0.6,1.6,1.3,2.3,2.1l-2.6,3.2c-0.7-0.7-1.3-1.2-1.9-1.6
				c-0.8-0.5-1.5-0.8-2.7-0.9c-0.4,0-0.7,0-0.7,0l0,2.9H22.8z"/>
		</g>
	</g>
</g>
</svg>
