<?xml version="1.0" encoding="utf-8"?>
<svg version="1.1" id="fhp-logo" xmlns="http://www.w3.org/2000/svg" xmlns:xlink="http://www.w3.org/1999/xlink" x="0px" y="0px"
	 viewBox="0 0 40 188.2" style="enable-background:new 0 0 40 188.2;" xml:space="preserve">
<style type="text/css">
	.st0{fill:#FFFFFF;}
</style>
<polygon class="st0" points="10.6,148.8 10.6,138.8 0,138.8 0,148.8 10.6,148.8 "/>
<polygon class="st0" points="40,183.2 40,175.3 19.7,179.7 0,175.3 0,183.2 19.7,188.2 40,183.2 "/>
<polygon class="st0" points="40,38.5 40,0 0,0 0,11.2 15,11.2 15,38.5 24.1,38.5 24.1,11.2 30.9,11.2 30.9,38.5 40,38.5 "/>
<polygon class="st0" points="40,87.6 40,76.5 24.1,76.5 24.1,56.8 40,56.8 40,45 0,45 0,56.8 15,56.8 15,76.5 0,76.5 0,87.6
	40,87.6 "/>
<polygon class="st0" points="40,148.8 40,138.8 29.4,138.8 29.4,148.8 40,148.8 "/>
<polygon class="st0" points="24.4,172.4 24.4,152.6 15.6,152.6 15.6,172.4 24.4,172.4 "/>
<path class="st0" d="M0,95.3v11.2h15v10.6c0,10.6,2.9,17.9,12.6,17.9c9.4,0,12.4-7.4,12.4-17.9V95.3H0z M31.8,115.9
	c0,6.5-1.2,8.2-4.1,8.2c-3.2,0-4.4-1.8-4.4-8.2v-9.4h8.5V115.9z"/>
</svg>
