<?xml version="1.0" encoding="utf-8"?>
<!-- Generator: Adobe Illustrator 18.0.0, SVG Export Plug-In . SVG Version: 6.00 Build 0)  -->
<!DOCTYPE svg PUBLIC "-//W3C//DTD SVG 1.1//EN" "http://www.w3.org/Graphics/SVG/1.1/DTD/svg11.dtd">
<svg version="1.1" id="Layer_1" xmlns="http://www.w3.org/2000/svg" xmlns:xlink="http://www.w3.org/1999/xlink" x="0px" y="0px"
	 viewBox="0 0 42.3 72.5" enable-background="new 0 0 42.3 72.5" xml:space="preserve">
<path fill="#FFFFFF" d="M38.6,48c-2.1,9.2-3.3,14.7-3.9,17.6h7.6L38.6,48z"/>
<path fill="#FFFFFF" d="M3.4,48.7L0,65.6h7.2C6.6,62.7,5.4,57.5,3.4,48.7z"/>
<path fill="#FFFFFF" d="M20.7,10.3h0.4c0.2,0.1,0.5,0.2,0.8,0.4V2.2h-2v8.5C20.3,10.5,20.6,10.3,20.7,10.3z"/>
<g>
	<path fill="#FFFFFF" d="M18.5,2.4c0-1.3,1.1-2.4,2.4-2.4c1.3,0,2.4,1.1,2.4,2.4c0,1.3-1.1,2.4-2.4,2.4C19.6,4.8,18.5,3.7,18.5,2.4z
		"/>
</g>
<path fill="#FFFFFF" d="M20.9,26.1c7,0,13.1,1.2,17.2,3.2c-2.8-12-15.2-18.2-17-19h-0.4c-1.9,0.9-14.3,7-17,19
	C7.8,27.3,13.9,26.1,20.9,26.1z"/>
<g>
	<path fill="#FFFFFF" d="M21.1,65.8c-6.1,0-11,1.5-11,3.3c0,1.8,4.9,3.3,11,3.3c6.1,0,11-1.5,11-3.3C32.1,67.3,27.1,65.8,21.1,65.8z
		 M21.1,70.4c-3.5,0-6.3-0.5-6.3-1.1c0-0.6,2.8-1.1,6.3-1.1c3.5,0,6.3,0.5,6.3,1.1C27.3,69.9,24.5,70.4,21.1,70.4z"/>
</g>
<path fill="#FFFFFF" d="M38.6,32.4c-3.3-2.1-9.7-3.8-17.6-3.8c-8,0-14.4,1.7-17.7,3.8C3,34.7,3.2,37.2,3.8,40
	c3.3,14.3,5,22,5.7,25.5c2.2-1.2,5.3-1.8,7.8-2l0.6-3.9h6.4l0.5,3.9c2.4,0.3,5.4,0.8,7.5,2C33,62.1,34.7,54.4,38,40
	C38.7,37.2,38.8,34.7,38.6,32.4z M19.1,49.9l1.4-8.7c0.2-1.5,0.5-3.7,0.7-5.3h0.1c0.2,1.6,0.4,3.7,0.7,5.3l1.4,8.7H19.1z"/>
</svg>
