<svg id="Ebene_1" data-name="Ebene 1" xmlns="http://www.w3.org/2000/svg" viewBox="0 0 194 194"><defs><style>.cls-1{fill:#c6b855;}.cls-2{fill:#f7e967;}.cls-3{fill:#0a3542;}</style></defs><title>mond-schlafend</title><circle class="cls-1" cx="97" cy="97" r="97"/><circle class="cls-2" cx="93" cy="93" r="93"/><path class="cls-3" d="M45,55a23.62,23.62,0,0,0,9,4.18,27.82,27.82,0,0,0,9.2.39,65.91,65.91,0,0,0,9.56-1.91C76,56.81,79.36,55.78,83,55a28.83,28.83,0,0,1-8.44,7,28.3,28.3,0,0,1-10.71,3.51,20.38,20.38,0,0,1-11.52-2C48.82,61.75,45.91,58.67,45,55Z"/><path class="cls-3" d="M105,55a25.42,25.42,0,0,0,9.58,4.75,28.12,28.12,0,0,0,9.93.55,62.68,62.68,0,0,0,10.28-2.15c3.5-1,7-2.17,10.88-3.15a31.57,31.57,0,0,1-9,7.49,30.14,30.14,0,0,1-11.47,3.77,21.58,21.58,0,0,1-12.3-2.14A15.27,15.27,0,0,1,105,55Z"/><circle class="cls-1" cx="92.74" cy="126.26" r="25.26"/></svg>