<svg version="1.1" id="Ebene_1" xmlns="http://www.w3.org/2000/svg" xmlns:xlink="http://www.w3.org/1999/xlink" x="0px" y="0px"
	 width="172.922px" height="192.419px" viewBox="0 0 172.922 192.419" enable-background="new 0 0 172.922 192.419"
	 xml:space="preserve">
<g>
	<g>
		<path fill="#EA8F7D" d="M26.947,86.166c-2.814-2.151-5.472-4.288-7.93-6.395C5.287,68.004-1.063,58.26,1.595,53.036
			c1.47-2.89,5.736-4.418,12.338-4.418c7.487,0,17.65,1.936,29.355,5.425c0.263-0.269,0.525-0.537,0.793-0.802
			c-12.025-3.616-22.472-5.623-30.148-5.623c-7.104,0-11.555,1.671-13.23,4.965c-2.926,5.752,3.347,15.677,17.664,27.948
			c2.596,2.225,5.404,4.48,8.395,6.754C26.817,86.91,26.884,86.539,26.947,86.166z"/>
		<path fill="#EA8F7D" d="M146.162,105.058c-0.057,0.385-0.123,0.766-0.188,1.148c18.486,14.064,28.687,26.611,25.347,33.178
			c-1.471,2.889-5.737,4.416-12.339,4.416c-7.488,0-17.651-1.936-29.357-5.424c-0.263,0.268-0.525,0.537-0.793,0.801
			c12.025,3.617,22.473,5.623,30.15,5.623c7.103,0,11.554-1.67,13.229-4.963C175.826,132.73,165.428,119.66,146.162,105.058z"/>
	</g>
	<circle fill="#BC381E" cx="86.457" cy="96.209" r="60.357"/>
	<ellipse fill="#F04E23" cx="83.075" cy="92.876" rx="56.976" ry="57.024"/>
	<g>
		<path fill="#EA8F7D" d="M172.194,52.549c-1.676-3.291-6.121-4.959-13.214-4.959c-7.261,0-16.998,1.797-28.208,5.055
			c0.217,0.27,0.405,0.563,0.568,0.871c10.984-3.176,20.521-4.926,27.64-4.926c6.592,0,10.853,1.526,12.323,4.414
			c2.659,5.222-3.687,14.969-17.412,26.742c-14.091,12.086-34.379,25.121-57.126,36.707c-32.66,16.631-65.173,27.377-82.83,27.377
			c-6.592,0-10.854-1.525-12.323-4.412c-2.659-5.223,3.687-14.971,17.412-26.742c1.024-0.879,2.091-1.764,3.18-2.652
			c-0.308-0.17-0.595-0.369-0.857-0.594c-1.017,0.832-2.013,1.662-2.974,2.486C4.06,124.191-2.208,134.121,0.72,139.871
			c1.676,3.291,6.121,4.959,13.215,4.959c17.803,0,50.494-10.789,83.283-27.486c22.816-11.619,43.175-24.703,57.324-36.838
			C168.854,68.229,175.124,58.301,172.194,52.549z"/>
	</g>
	<g>
		<path fill="#EA8F7D" d="M43.307,138.394c-11.714,3.496-21.882,5.436-29.372,5.436c-6.592,0-10.854-1.525-12.323-4.412
			c-2.659-5.223,3.687-14.971,17.412-26.742c2.457-2.107,5.113-4.246,7.928-6.398c-0.063-0.373-0.132-0.744-0.188-1.119
			c-2.989,2.273-5.797,4.531-8.392,6.758C4.06,124.191-2.208,134.121,0.72,139.871c1.676,3.291,6.121,4.959,13.215,4.959
			c7.68,0,18.133-2.012,30.165-5.635C43.833,138.931,43.57,138.664,43.307,138.394z"/>
		<path fill="#EA8F7D" d="M172.194,52.549c-1.676-3.291-6.121-4.959-13.214-4.959c-7.679,0-18.132,2.012-30.164,5.635
			c0.268,0.264,0.53,0.533,0.793,0.802c11.713-3.496,21.882-5.437,29.371-5.437c6.592,0,10.853,1.526,12.323,4.414
			c2.659,5.222-3.687,14.969-17.412,26.742c-2.457,2.107-5.114,4.245-7.929,6.398c0.063,0.373,0.132,0.744,0.188,1.119
			c2.989-2.275,5.798-4.533,8.393-6.759C168.854,68.229,175.124,58.301,172.194,52.549z"/>
	</g>
	<g>
		<path fill="#EA8F7D" d="M103.487,161.39c-0.164,0.75-0.325,1.508-0.496,2.238c-4.104,17.609-9.82,27.74-15.681,27.791l-0.047,0.5
			v-0.5c-12.5,0-23.051-42.619-23.519-95.007C63.275,43.914,73.083,1.113,85.654,1c7.087,0,13.546,13.703,17.897,35.115
			c0.317-0.125,0.646-0.221,0.984-0.283C100.034,13.862,93.236,0,85.597,0C72.3,0.119,62.262,42.473,62.745,96.422
			c0.481,53.832,11.251,95.998,24.519,95.998h0.057c6.453-0.057,12.365-10.201,16.646-28.564c0.178-0.76,0.346-1.547,0.516-2.328
			C104.146,161.511,103.813,161.465,103.487,161.39z"/>
	</g>
	<g>
		<path fill="#EA8F7D" d="M97.209,75.074C64.427,58.396,31.739,47.618,13.933,47.618c-7.104,0-11.555,1.671-13.23,4.965
			c-2.926,5.752,3.347,15.677,17.664,27.948c0.822,0.705,1.672,1.414,2.536,2.126c0.229-0.251,0.483-0.475,0.763-0.665
			c-0.904-0.744-1.789-1.484-2.648-2.221C5.287,68.004-1.063,58.26,1.595,53.036c1.47-2.89,5.736-4.418,12.338-4.418
			c17.66,0,50.17,10.734,82.823,27.347c46.793,23.804,80.242,52.255,74.564,63.419c-1.471,2.889-5.737,4.416-12.339,4.416
			c-6.491,0-14.993-1.455-24.766-4.113c-0.201,0.307-0.431,0.592-0.69,0.844c10.052,2.762,18.795,4.27,25.456,4.27
			c7.103,0,11.554-1.67,13.229-4.963C178.241,127.984,145.295,99.537,97.209,75.074z"/>
	</g>
	<g>
		<path fill="#EA8F7D" d="M67.873,38.781C71.826,15.898,78.261,1.066,85.654,1c7.342,0,14.009,14.707,18.358,37.454
			c0.372,0.112,0.74,0.233,1.11,0.354C100.636,15.121,93.575,0,85.597,0c-7.972,0.072-14.771,15.327-18.836,39.156
			C67.13,39.029,67.5,38.901,67.873,38.781z"/>
		<path fill="#EA8F7D" d="M105.003,153.65c-0.609,3.488-1.278,6.828-2.013,9.979c-4.104,17.609-9.82,27.74-15.681,27.791l-0.047,0.5
			v-0.5c-7.342,0-14.01-14.705-18.358-37.453c-0.374-0.115-0.743-0.236-1.114-0.355c4.48,23.688,11.528,38.809,19.473,38.809h0.057
			c6.453-0.057,12.365-10.201,16.646-28.564c0.776-3.332,1.483-6.867,2.121-10.57C105.726,153.408,105.367,153.533,105.003,153.65z"
			/>
	</g>
</g>
</svg>
