<svg id="Ebene_1" data-name="Ebene 1" xmlns="http://www.w3.org/2000/svg" viewBox="0 0 206.69 272.53"><defs><style>.cls-1{fill:#c6b855;}.cls-2{fill:#f7e967;}</style></defs><title>regenwolke</title><path class="cls-1" d="M41.11,30.53C46.44-11.86,116.39-8,89.65,41.84c10.55-32.32,78.75-21.18,43.92,2.63,23.73-19.09,52.85.47,48.24,29.45-2.86,21.69-36.91,43.53-44.43,13.15C162.64,127.92,83.61,135.3,66.53,100c11.95,4.75-1.11,14.39-10.64,15.17C42,115.33,22.61,97.35,19.56,84.73c5,2,3,1.19,6.79,6.12C5.51,94-6,56.29,3.23,41.72,12.88,26.15,35.5,21.45,52.6,24.83"/><path class="cls-2" d="M40,27.57C45.16-12.36,110.53-9,85.37,38.07c10-30.47,73.68-20.21,41,2.33,22.25-18.06,49.4.27,45,27.58-2.74,20.43-34.64,41.11-41.57,12.53,23.48,38.39-50.41,45.6-66.27,12.39,11.15,4.43-1.09,13.56-10,14.32-13,.21-31-16.65-33.86-28.53,4.65,1.85,2.79,1.11,6.33,5.74C6.55,87.44-4.1,52,4.6,38.23,13.66,23.54,34.82,19,50.8,22.17"/><path class="cls-2" d="M105.69,272.53a1,1,0,0,1-.94-0.66l-4.12-11.27a1,1,0,0,1,1.88-.69l4.12,11.27A1,1,0,0,1,105.69,272.53ZM97.46,250a1,1,0,0,1-.94-0.66l-4.11-11.27a1,1,0,1,1,1.88-.69l4.11,11.27A1,1,0,0,1,97.46,250Zm-8.23-22.54a1,1,0,0,1-.94-0.66l-4.11-11.27a1,1,0,0,1,1.88-.69l4.11,11.27A1,1,0,0,1,89.23,227.44ZM81,204.9a1,1,0,0,1-.94-0.66L75.95,193a1,1,0,1,1,1.88-.69l4.12,11.27A1,1,0,0,1,81,204.9Zm-8.23-22.54a1,1,0,0,1-.94-0.66l-4.12-11.27a1,1,0,1,1,1.88-.69L73.71,181A1,1,0,0,1,72.77,182.35Zm-8.23-22.54a1,1,0,0,1-.94-0.66l-4.11-11.27a1,1,0,1,1,1.88-.69l4.11,11.27A1,1,0,0,1,64.54,159.81Zm-8.23-22.54a1,1,0,0,1-.94-0.66l-4.11-11.27a1,1,0,0,1,1.88-.69l4.11,11.27A1,1,0,0,1,56.31,137.26Z"/><path class="cls-2" d="M125.69,272.53a1,1,0,0,1-.94-0.66l-4.12-11.27a1,1,0,0,1,1.88-.69l4.12,11.27A1,1,0,0,1,125.69,272.53ZM117.46,250a1,1,0,0,1-.94-0.66l-4.12-11.27a1,1,0,1,1,1.88-.69l4.12,11.27A1,1,0,0,1,117.46,250Zm-8.23-22.54a1,1,0,0,1-.94-0.66l-4.12-11.27a1,1,0,0,1,1.88-.69l4.12,11.27A1,1,0,0,1,109.23,227.44ZM101,204.9a1,1,0,0,1-.94-0.66L95.95,193a1,1,0,1,1,1.88-.69l4.12,11.27A1,1,0,0,1,101,204.9Zm-8.23-22.54a1,1,0,0,1-.94-0.66l-4.12-11.27a1,1,0,1,1,1.88-.69L93.71,181A1,1,0,0,1,92.77,182.35Zm-8.23-22.54a1,1,0,0,1-.94-0.66l-4.11-11.27a1,1,0,1,1,1.88-.69l4.11,11.27A1,1,0,0,1,84.54,159.81Zm-8.23-22.54a1,1,0,0,1-.94-0.66l-4.11-11.27a1,1,0,0,1,1.88-.69l4.11,11.27A1,1,0,0,1,76.31,137.26Z"/><path class="cls-2" d="M145.69,272.53a1,1,0,0,1-.94-0.66l-4.12-11.27a1,1,0,0,1,1.88-.69l4.12,11.27A1,1,0,0,1,145.69,272.53ZM137.46,250a1,1,0,0,1-.94-0.66l-4.12-11.27a1,1,0,0,1,1.88-.69l4.12,11.27A1,1,0,0,1,137.46,250Zm-8.23-22.54a1,1,0,0,1-.94-0.66l-4.12-11.27a1,1,0,0,1,1.88-.69l4.12,11.27A1,1,0,0,1,129.23,227.44ZM121,204.9a1,1,0,0,1-.94-0.66L115.95,193a1,1,0,1,1,1.88-.69l4.12,11.27A1,1,0,0,1,121,204.9Zm-8.23-22.54a1,1,0,0,1-.94-0.66l-4.11-11.27a1,1,0,0,1,1.88-.69L113.71,181A1,1,0,0,1,112.77,182.35Zm-8.23-22.54a1,1,0,0,1-.94-0.66l-4.11-11.27a1,1,0,1,1,1.88-.69l4.11,11.27A1,1,0,0,1,104.54,159.81Zm-8.23-22.54a1,1,0,0,1-.94-0.66l-4.11-11.27a1,1,0,0,1,1.88-.69l4.11,11.27A1,1,0,0,1,96.31,137.26Z"/><path class="cls-2" d="M165.69,272.53a1,1,0,0,1-.94-0.66l-4.12-11.27a1,1,0,0,1,1.88-.69l4.12,11.27A1,1,0,0,1,165.69,272.53ZM157.46,250a1,1,0,0,1-.94-0.66l-4.12-11.27a1,1,0,0,1,1.88-.69l4.12,11.27A1,1,0,0,1,157.46,250Zm-8.23-22.54a1,1,0,0,1-.94-0.66l-4.12-11.27a1,1,0,0,1,1.88-.69l4.12,11.27A1,1,0,0,1,149.23,227.44ZM141,204.9a1,1,0,0,1-.94-0.66L135.95,193a1,1,0,1,1,1.88-.69l4.12,11.27A1,1,0,0,1,141,204.9Zm-8.23-22.54a1,1,0,0,1-.94-0.66l-4.11-11.27a1,1,0,0,1,1.88-.69L133.71,181A1,1,0,0,1,132.77,182.35Zm-8.23-22.54a1,1,0,0,1-.94-0.66l-4.12-11.27a1,1,0,1,1,1.88-.69l4.12,11.27A1,1,0,0,1,124.54,159.81Zm-8.23-22.54a1,1,0,0,1-.94-0.66l-4.12-11.27a1,1,0,0,1,1.88-.69l4.12,11.27A1,1,0,0,1,116.31,137.26Z"/><path class="cls-2" d="M185.69,272.53a1,1,0,0,1-.94-0.66l-4.12-11.27a1,1,0,0,1,1.88-.69l4.12,11.27A1,1,0,0,1,185.69,272.53ZM177.46,250a1,1,0,0,1-.94-0.66l-4.12-11.27a1,1,0,0,1,1.88-.69l4.12,11.27A1,1,0,0,1,177.46,250Zm-8.23-22.54a1,1,0,0,1-.94-0.66l-4.12-11.27a1,1,0,0,1,1.88-.69l4.12,11.27A1,1,0,0,1,169.23,227.44ZM161,204.9a1,1,0,0,1-.94-0.66L155.95,193a1,1,0,1,1,1.88-.69l4.12,11.27A1,1,0,0,1,161,204.9Zm-8.23-22.54a1,1,0,0,1-.94-0.66l-4.11-11.27a1,1,0,0,1,1.88-.69L153.71,181A1,1,0,0,1,152.77,182.35Zm-8.23-22.54a1,1,0,0,1-.94-0.66l-4.12-11.27a1,1,0,1,1,1.88-.69l4.12,11.27A1,1,0,0,1,144.54,159.81Zm-8.23-22.54a1,1,0,0,1-.94-0.66l-4.12-11.27a1,1,0,1,1,1.88-.69l4.12,11.27A1,1,0,0,1,136.31,137.26Z"/><path class="cls-2" d="M205.69,272.53a1,1,0,0,1-.94-0.66l-4.12-11.27a1,1,0,0,1,1.88-.69l4.12,11.27A1,1,0,0,1,205.69,272.53ZM197.46,250a1,1,0,0,1-.94-0.66l-4.12-11.27a1,1,0,0,1,1.88-.69l4.12,11.27A1,1,0,0,1,197.46,250Zm-8.23-22.54a1,1,0,0,1-.94-0.66l-4.12-11.27a1,1,0,0,1,1.88-.69l4.12,11.27A1,1,0,0,1,189.23,227.44ZM181,204.9a1,1,0,0,1-.94-0.66L175.95,193a1,1,0,1,1,1.88-.69l4.12,11.27A1,1,0,0,1,181,204.9Zm-8.23-22.54a1,1,0,0,1-.94-0.66l-4.11-11.27a1,1,0,1,1,1.88-.69L173.71,181A1,1,0,0,1,172.77,182.35Zm-8.23-22.54a1,1,0,0,1-.94-0.66l-4.12-11.27a1,1,0,1,1,1.88-.69l4.12,11.27A1,1,0,0,1,164.54,159.81Zm-8.23-22.54a1,1,0,0,1-.94-0.66l-4.12-11.27a1,1,0,1,1,1.88-.69l4.12,11.27A1,1,0,0,1,156.31,137.26Z"/></svg>