<?xml version="1.0" encoding="utf-8"?>
<!-- Generator: Adobe Illustrator 15.0.0, SVG Export Plug-In . SVG Version: 6.00 Build 0)  -->
<!DOCTYPE svg PUBLIC "-//W3C//DTD SVG 1.1//EN" "http://www.w3.org/Graphics/SVG/1.1/DTD/svg11.dtd">
<svg version="1.1" id="rocket_carrying" xmlns="http://www.w3.org/2000/svg" xmlns:xlink="http://www.w3.org/1999/xlink" x="0px"
	 y="0px" width="36.105px" height="125.147px" viewBox="-9.026 -31.287 36.105 125.147"
	 enable-background="new -9.026 -31.287 36.105 125.147" xml:space="preserve">
<g>
	<path fill="#FFFFFF" d="M-9.026,23.089h5.95c-0.492-2.356-1.44-6.718-3.092-13.966L-9.026,23.089z"/>
	<path fill="#FFFFFF" d="M22.687-7.031c-2.125-8.95-10.676-14.012-13.379-15.424v-5.061c0.612-0.315,1.125-0.997,1.125-1.791
		c0-1.093-0.897-1.98-1.993-1.98c-1.09,0-1.998,0.888-1.998,1.979c0,0.793,0.51,1.478,1.12,1.793v5.072
		C4.77-21.012-3.767-16.023-5.82-7.01c3.366-1.637,8.43-2.643,14.28-2.643C14.276-9.655,19.325-8.655,22.687-7.031"/>
	<path fill="#FFFFFF" d="M23.034,9.122c-1.65,7.25-2.598,11.609-3.09,13.966h5.949L23.034,9.122z"/>
	<path fill="#FFFFFF" d="M23.065-4.457c-2.744-1.736-7.996-3.12-14.63-3.12S-3.45-6.193-6.196-4.457
		c-0.17,1.936-0.054,4.032,0.472,6.296c2.752,11.88,4.122,18.226,4.732,21.128c1.792-1.025,4.399-1.474,6.478-1.662l0.456-3.191
		h2.492h2.491l0.459,3.195c2.078,0.188,4.686,0.635,6.475,1.662c0.613-2.901,1.98-9.25,4.734-21.128
		C23.12-0.424,23.237-2.521,23.065-4.457 M8.434,10.082h-1.72l1.12-7.164C8.04,1.633,8.436-1.43,8.436-1.43s0.395,3.063,0.6,4.348
		l1.122,7.164H8.434z"/>
	<path fill="#FFFFFF" d="M8.434,22.74L8.434,22.74L8.434,22.74c-5.02,0-9.088,1.228-9.088,2.756c0,0.485,0.412,0.939,1.138,1.336
		c0.496-0.65,1.681-1.212,3.274-1.584c0.836-0.294,2.614-0.5,4.674-0.5h0.002l0,0c2.06,0,3.839,0.206,4.675,0.498
		c1.596,0.372,2.777,0.93,3.273,1.584c0.727-0.398,1.137-0.849,1.137-1.334C17.519,23.965,13.454,22.74,8.434,22.74"/>
	<path fill="#FFFFFF" d="M8.436,25.921L8.436,25.921L8.436,25.921c-3.682,0-6.668,0.902-6.668,2.024
		c0,0.355,0.302,0.688,0.834,0.979c0.366-0.478,1.234-0.89,2.402-1.164c0.613-0.216,1.918-0.368,3.428-0.368h0.002l0,0
		c1.51,0,2.815,0.15,3.429,0.366c1.168,0.272,2.037,0.683,2.402,1.16c0.531-0.292,0.836-0.622,0.836-0.978
		C15.101,26.822,12.116,25.921,8.436,25.921"/>
	<path fill="#FFFFFF" d="M10.483,35.583c-1.132,0-2.05,0.918-2.05,2.051s0.918,2.051,2.05,2.051c1.133,0,2.051-0.918,2.051-2.051
		S11.616,35.583,10.483,35.583"/>
	<path fill="#FFFFFF" d="M9.653,41.302c0-0.652-0.527-1.18-1.178-1.18s-1.178,0.527-1.178,1.18c0,0.648,0.527,1.176,1.178,1.176
		S9.653,41.951,9.653,41.302"/>
	<path fill="#FFFFFF" d="M9.697,43.31C9.313,43.31,9,43.623,9,44.007s0.312,0.701,0.697,0.701c0.388,0,0.698-0.313,0.698-0.701
		C10.396,43.623,10.085,43.31,9.697,43.31"/>
	<path fill="#FFFFFF" d="M11.663,31.874c0-1.902-1.547-3.448-3.449-3.448s-3.448,1.546-3.448,3.448c0,1.901,1.544,3.448,3.448,3.448
		C10.112,35.322,11.663,33.775,11.663,31.874"/>
</g>
<path fill="#5FB7E3" d="M26.354,83.406c-1.273-1.055-3.926,0.072-6.16,2.51c0.1-1.506,0.027-3.078-0.322-4.65
	c-0.885-3.979-3.287-7.268-6.947-9.506c-7.721-4.723-4.823-13.174-4.087-14.984c5.733-0.824,9.146-14.793,9.146-28.348
	c0-0.414-0.336-0.75-0.75-0.75s-0.75,0.336-0.75,0.75c0,16.109-4.227,26.928-8.176,26.928c-3.948,0-8.176-10.818-8.176-26.928
	c0-0.414-0.336-0.75-0.75-0.75s-0.75,0.336-0.75,0.75c0,13.16,3.21,26.736,8.644,28.273c-0.978,2.785-3.184,11.414,4.868,16.34
	c3.352,2.049,5.457,4.926,6.264,8.549c0.242,1.094,0.35,2.189,0.35,3.252c-0.939-2.539-2.705-4.906-4.477-4.422
	c-0.814,0.227-1.371,1.023-1.625,2.211c-1.473-0.541-2.878-0.512-3.762,0.279c-0.854,0.764-1.14,2.008-0.808,3.502
	c0.3,1.342,1.078,2.764,2.187,4.004c1.602,1.789,3.641,2.898,5.328,2.898c0.32,0,0.613-0.064,0.895-0.145
	c0.02,0.223,0.121,0.434,0.322,0.566c0.127,0.084,0.271,0.125,0.414,0.125c0.242,0,0.48-0.117,0.627-0.336
	c0.037-0.055,0.066-0.125,0.105-0.182c0.025,0.025,0.039,0.061,0.066,0.084c0.344,0.285,0.791,0.434,1.291,0.434
	c1.494,0,3.576-1.342,5.305-3.418C26.694,87.951,27.954,84.74,26.354,83.406z M16.735,91.287c-0.721-0.541-1.697-1.977-2.303-4.148
	c-0.193-0.688-0.324-1.377-0.391-2.033c0.363,0.295,0.715,0.631,1.047,1C16.917,88.15,17.376,90.353,16.735,91.287z M14.765,81.851
	c0.676,0,2.086,1.564,2.875,4.389c0.166,0.596,0.266,1.137,0.338,1.645c-0.389-0.934-0.971-1.887-1.771-2.781
	c-0.662-0.738-1.406-1.336-2.166-1.801C14.153,82.404,14.444,81.929,14.765,81.851z M9.552,86.085
	c-0.208-0.928-0.082-1.678,0.342-2.057c0.238-0.215,0.568-0.32,0.984-0.32c0.488,0,1.043,0.18,1.611,0.441
	c-0.002,1.047,0.168,2.219,0.498,3.395c0.43,1.533,1.172,3.117,2.09,4.191c-1.133-0.223-2.566-1.068-3.686-2.318
	C10.448,88.361,9.796,87.179,9.552,86.085z M23.476,89.478c-1.572,1.895-3.281,2.883-4.152,2.883c-0.148,0-0.264-0.031-0.334-0.09
	c-0.041-0.033-0.064-0.094-0.092-0.152c0.404-0.6,0.609-1.447,0.66-2.414c0.059-0.207,0.102-0.426,0.154-0.641
	c0.307-0.535,0.701-1.109,1.201-1.713c1.572-1.889,3.277-2.877,4.15-2.877c0.152,0,0.268,0.029,0.334,0.086
	C25.835,84.921,25.548,86.988,23.476,89.478z"/>
</svg>
