<svg version="1.1" xmlns="http://www.w3.org/2000/svg" xmlns:xlink="http://www.w3.org/1999/xlink" x="0px" y="0px"
	 width="40px" height="32.506px" viewBox="0 0 40 32.506" enable-background="new 0 0 40 32.506" xml:space="preserve">
<g>
	<path fill="#FFFFFF" d="M40,3.848c-1.472,0.653-3.053,1.094-4.714,1.292c1.695-1.016,2.995-2.625,3.607-4.54
		c-1.584,0.94-3.34,1.624-5.21,1.991C32.187,0.996,30.054,0,27.695,0c-4.535,0-8.208,3.674-8.208,8.207
		c0,0.643,0.073,1.27,0.212,1.87C12.879,9.734,6.832,6.467,2.784,1.502C2.078,2.714,1.673,4.124,1.673,5.627
		c0,2.847,1.449,5.36,3.651,6.831c-1.345-0.042-2.61-0.412-3.717-1.026c0,0.034,0,0.068,0,0.103c0,3.977,2.828,7.294,6.583,8.047
		c-0.689,0.188-1.414,0.287-2.163,0.287c-0.529,0-1.043-0.051-1.544-0.146c1.045,3.26,4.075,5.633,7.666,5.701
		c-2.809,2.199-6.347,3.512-10.191,3.512c-0.663,0-1.316-0.039-1.958-0.113c3.632,2.326,7.945,3.685,12.58,3.685
		c15.095,0,23.349-12.505,23.349-23.348c0-0.356-0.008-0.71-0.022-1.062C37.509,6.939,38.901,5.494,40,3.848"/>
</g>
</svg>
