<?xml version="1.0" encoding="utf-8"?>
<!-- Generator: Adobe Illustrator 19.2.1, SVG Export Plug-In . SVG Version: 6.00 Build 0)  -->
<svg version="1.1" id="Ebene_1" xmlns="http://www.w3.org/2000/svg" xmlns:xlink="http://www.w3.org/1999/xlink" x="0px" y="0px"
	 viewBox="0 0 1280 50" style="enable-background:new 0 0 1280 50;" xml:space="preserve">
<style type="text/css">
	.st0{fill:#740A63;}
	.st1{fill:#F7E967;}
</style>
<title>uebergang_pruefung-studium</title>
<polygon class="st0" points="20.7,23.4 39.6,23.4 53,12.4 59.7,22.8 77.9,30 98.6,25.8 108.4,28.2 124.2,33.1 135.8,17.9 
	153.4,12.4 164.4,20.9 172.3,25.8 204,22.1 211.3,12.4 216.2,8.1 221.6,16 232,19.7 232,13.6 246,17.3 250.3,23.7 267.9,23.7 
	285,17.9 305.1,20.3 339.1,30.7 349.5,20.9 363.5,18.5 375.7,23.7 391.5,15.4 395.2,28.8 412.2,23.7 440.2,30.7 467,16.7 
	491.4,27.6 500.5,30.7 507.2,23.7 524.3,23.7 526.7,29.4 536.4,23.7 548.6,28.8 571.8,17.9 585.8,30 613.8,32.5 652.7,23.7 
	686.8,17.9 691.1,23.7 699.6,27.6 707.5,36.2 738.9,22.1 769.7,11.3 788.5,28.9 797.9,26.4 808,14.4 820.5,22.1 838.1,30.1 
	853.1,30.1 876.3,32.6 880.7,3.8 901.4,14.4 930.3,25.1 974.8,16.3 989.2,0 1021.2,23.2 1041.3,24.5 1050.7,11.3 1068.3,18.1 
	1078.9,26.4 1090.9,18.1 1122.2,8.1 1142.3,18.1 1148.6,27 1176.2,27 1198.1,31.4 1226.4,18.1 1262.8,18.1 1280,50 0,50 "/>
<polygon class="st1" points="20.7,31.2 39.6,31.2 53,20.3 59.7,30.6 77.9,37.9 98.6,33.7 108.4,36.1 124.2,41 135.8,25.7 
	153.4,20.3 164.4,28.8 172.3,33.7 204,30 211.3,20.3 216.2,16 221.6,23.9 232,27.6 232,21.5 246,25.1 250.3,31.5 267.9,31.5 
	285,25.7 305.1,28.2 339.1,38.5 349.5,28.8 363.5,26.4 375.7,31.5 391.5,23.3 395.2,36.7 412.2,31.5 440.2,38.5 467,24.5 
	491.4,35.5 500.5,38.5 507.2,31.5 524.3,31.5 526.7,37.3 536.4,31.5 548.6,36.7 571.8,25.7 585.8,37.9 613.8,40.3 652.7,31.5 
	686.8,25.7 691.1,31.5 699.6,35.5 707.5,44 738.9,30 769.7,19.1 788.5,36.7 797.9,34.2 808,22.3 820.5,30 838.1,38 853.1,38 
	876.3,40.5 880.7,11.6 901.4,22.3 930.3,33 974.8,24.2 989.2,7.9 1021.2,31.1 1041.3,32.3 1050.7,19.1 1068.3,25.9 1078.9,34.2 
	1090.9,25.9 1122.2,16 1142.3,25.9 1148.6,34.8 1176.2,34.8 1198.1,39.2 1226.4,25.9 1262.8,25.9 1280,50 0,50 "/>
</svg>
