<?xml version="1.0" encoding="utf-8"?>
<!-- Generator: Adobe Illustrator 19.2.1, SVG Export Plug-In . SVG Version: 6.00 Build 0)  -->
<svg version="1.1" id="Ebene_1" xmlns="http://www.w3.org/2000/svg" xmlns:xlink="http://www.w3.org/1999/xlink" x="0px" y="0px"
	 viewBox="0 0 1280 637" style="enable-background:new 0 0 1280 637;" xml:space="preserve">
<style type="text/css">
	.st0{fill:#0A3542;}
	.st1{fill:#125868;}
</style>
<g>
	<circle class="st0" cx="107.2" cy="497.2" r="78.6"/>
	<circle class="st0" cx="230.6" cy="528.2" r="61.2"/>
	<circle class="st0" cx="337.4" cy="529.7" r="73.7"/>
	<circle class="st0" cx="450.3" cy="505" r="74.6"/>
	<circle class="st0" cx="618.5" cy="467.4" r="102.7"/>
	<circle class="st0" cx="519.2" cy="460.4" r="30"/>
	<circle class="st0" cx="802.3" cy="535.5" r="101.5"/>
	<circle class="st0" cx="961.7" cy="533.7" r="103.3"/>
	<circle class="st0" cx="1081.9" cy="479.4" r="60.8"/>
	<circle class="st0" cx="1163.3" cy="520.9" r="41.6"/>
	<circle class="st0" cx="1213.5" cy="513.8" r="27.9"/>
	<circle class="st0" cx="200.9" cy="443.7" r="31.5"/>
	<circle class="st0" cx="282.9" cy="436.2" r="43.2"/>
	<circle class="st0" cx="390" cy="422.7" r="52.6"/>
	<circle class="st0" cx="467.9" cy="427.6" r="34.6"/>
	<circle class="st0" cx="511.6" cy="397.1" r="32.4"/>
	<circle class="st0" cx="570.6" cy="353.7" r="36.6"/>
	<circle class="st0" cx="713.4" cy="388.7" r="56.9"/>
	<circle class="st0" cx="828.5" cy="387.3" r="61"/>
	<circle class="st0" cx="341.8" cy="338.8" r="50"/>
	<circle class="st0" cx="258" cy="384.8" r="53"/>
	<circle class="st0" cx="173.2" cy="386.8" r="43.2"/>
	<circle class="st0" cx="99.9" cy="406.7" r="53"/>
	<circle class="st0" cx="107.7" cy="325.8" r="22.4"/>
	<circle class="st0" cx="181" cy="287.6" r="33.6"/>
	<circle class="st0" cx="150.2" cy="328.5" r="7.3"/>
	<circle class="st0" cx="45.5" cy="364.2" r="20.6"/>
	<circle class="st0" cx="40.1" cy="423.6" r="20.6"/>
	<circle class="st0" cx="451.8" cy="329.5" r="40.7"/>
	<circle class="st0" cx="444.6" cy="385.5" r="7.1"/>
	<circle class="st0" cx="470.5" cy="378.8" r="8.7"/>
	<circle class="st0" cx="493.8" cy="362.8" r="14.6"/>
	<circle class="st0" cx="479" cy="399.6" r="14.8"/>
	<circle class="st0" cx="318.1" cy="419.9" r="20.3"/>
	<circle class="st0" cx="918.3" cy="344.1" r="40.7"/>
	<circle class="st0" cx="924.3" cy="422" r="34.7"/>
	<circle class="st0" cx="895.9" cy="388.4" r="18.3"/>
	<circle class="st0" cx="979.6" cy="376.5" r="32.4"/>
	<circle class="st0" cx="984.8" cy="308.2" r="60.5"/>
	<circle class="st0" cx="1041.3" cy="423.1" r="20.1"/>
	<circle class="st0" cx="996.9" cy="419.9" r="7.7"/>
	<circle class="st0" cx="1014.8" cy="436.9" r="6.4"/>
	<circle class="st0" cx="1014.8" cy="413.1" r="6.4"/>
	<circle class="st0" cx="978.8" cy="428.1" r="6.1"/>
	<circle class="st0" cx="967.2" cy="412.2" r="5.5"/>
	<circle class="st0" cx="524" cy="313.5" r="30.2"/>
	<circle class="st0" cx="488.3" cy="223.5" r="17.8"/>
	<circle class="st0" cx="363.4" cy="192.5" r="21.6"/>
	<circle class="st0" cx="412.6" cy="256" r="8.3"/>
	<circle class="st0" cx="279.2" cy="208" r="15.5"/>
	<circle class="st0" cx="246" cy="164.7" r="22.1"/>
	<circle class="st0" cx="131.8" cy="181.7" r="10.8"/>
	<circle class="st0" cx="106.3" cy="247.7" r="6.4"/>
	<circle class="st0" cx="150.2" cy="163.6" r="2.8"/>
	<circle class="st0" cx="183.4" cy="225.9" r="2.4"/>
	<circle class="st0" cx="248.6" cy="309.2" r="5.8"/>
	<circle class="st0" cx="273.9" cy="271.8" r="15.8"/>
	<circle class="st0" cx="245.9" cy="256.5" r="15.3"/>
	<circle class="st0" cx="210.3" cy="215" r="9.4"/>
	<circle class="st0" cx="332.5" cy="256.4" r="21.5"/>
	<circle class="st0" cx="362.7" cy="275.9" r="4.1"/>
	<circle class="st0" cx="460.9" cy="280" r="23.4"/>
	<circle class="st0" cx="561.2" cy="251.3" r="36.3"/>
	<circle class="st0" cx="682.8" cy="282.2" r="47.3"/>
	<circle class="st0" cx="637" cy="344" r="34.8"/>
	<circle class="st0" cx="603" cy="300.2" r="4.1"/>
	<circle class="st0" cx="623.1" cy="284.2" r="20.1"/>
	<circle class="st0" cx="572.8" cy="290.5" r="18.7"/>
	<circle class="st0" cx="774" cy="320.5" r="16.2"/>
	<circle class="st0" cx="735" cy="323.5" r="13.8"/>
	<circle class="st0" cx="745.9" cy="271.8" r="15.8"/>
	<circle class="st0" cx="802.3" cy="274.6" r="20.5"/>
	<circle class="st0" cx="791.1" cy="192.9" r="11.2"/>
	<circle class="st0" cx="716.4" cy="125.8" r="13.3"/>
	<circle class="st0" cx="730.6" cy="79.8" r="9.5"/>
	<circle class="st0" cx="670.7" cy="160.4" r="6"/>
	<circle class="st0" cx="727.9" cy="216.1" r="1.9"/>
	<circle class="st0" cx="709.9" cy="182.2" r="11.3"/>
	<circle class="st0" cx="625.3" cy="211" r="11.7"/>
	<circle class="st0" cx="581.5" cy="150" r="10.9"/>
	<circle class="st0" cx="508.8" cy="171.3" r="10.4"/>
	<circle class="st0" cx="463.2" cy="222.7" r="18.6"/>
	<circle class="st0" cx="841.7" cy="313.4" r="13.1"/>
	<circle class="st0" cx="875.1" cy="281.1" r="6.5"/>
	<circle class="st0" cx="867.4" cy="228.7" r="12.6"/>
	<circle class="st0" cx="919.4" cy="267.2" r="10.6"/>
	<circle class="st0" cx="925.9" cy="193.9" r="11.7"/>
	<circle class="st0" cx="899.9" cy="229.8" r="4"/>
	<circle class="st0" cx="881.4" cy="185.3" r="14"/>
	<circle class="st0" cx="842.5" cy="139.4" r="27"/>
	<circle class="st0" cx="994" cy="189" r="14.4"/>
	<circle class="st0" cx="980" cy="147.1" r="27.4"/>
	<circle class="st0" cx="1073.7" cy="259.5" r="43.4"/>
	<circle class="st0" cx="1135.4" cy="384" r="46.6"/>
	<circle class="st0" cx="1227.7" cy="404" r="33.8"/>
	<circle class="st0" cx="1179.7" cy="452.8" r="9.6"/>
	<circle class="st0" cx="1223.3" cy="466.6" r="9.8"/>
	<circle class="st0" cx="1180.6" cy="427" r="5"/>
	<circle class="st0" cx="1159.2" cy="451.2" r="5.5"/>
	<circle class="st0" cx="1195.3" cy="473.4" r="6"/>
	<circle class="st0" cx="1202.6" cy="316.2" r="13.3"/>
	<circle class="st0" cx="1225" cy="361.2" r="22.4"/>
	<circle class="st0" cx="1146.8" cy="301.9" r="11.4"/>
	<circle class="st0" cx="1092.5" cy="326.8" r="10.6"/>
	<circle class="st0" cx="1061" cy="354.4" r="15.7"/>
	<circle class="st0" cx="1062.8" cy="388.1" r="11.5"/>
	<circle class="st0" cx="1156.2" cy="215" r="9.4"/>
	<circle class="st0" cx="1182.3" cy="273.1" r="19"/>
	<circle class="st0" cx="1217.7" cy="246.7" r="12.9"/>
	<circle class="st0" cx="1144.2" cy="255.5" r="8.8"/>
	<circle class="st0" cx="1103" cy="176.8" r="10.5"/>
	<circle class="st0" cx="1160.4" cy="142.6" r="7.4"/>
	<circle class="st0" cx="1119.2" cy="47.2" r="16.2"/>
	<circle class="st0" cx="1028.9" cy="35.2" r="4.1"/>
	<circle class="st0" cx="898.7" cy="22.8" r="2.7"/>
	<circle class="st0" cx="970.3" cy="82.5" r="8.5"/>
	<circle class="st0" cx="1075.1" cy="106.9" r="5.5"/>
	<circle class="st0" cx="785.8" cy="9.6" r="9.6"/>
	<circle class="st0" cx="538.3" cy="51.5" r="4.3"/>
	<circle class="st0" cx="310.7" cy="127.2" r="7.5"/>
	<circle class="st0" cx="403.5" cy="128.8" r="9.1"/>
	<circle class="st0" cx="402" cy="43.3" r="4"/>
	<circle class="st0" cx="215" cy="23.9" r="4.7"/>
	<circle class="st0" cx="84.5" cy="47.9" r="4.7"/>
	<circle class="st0" cx="111.5" cy="96.2" r="5.2"/>
	<circle class="st0" cx="91.8" cy="152.6" r="2.6"/>
	
		<ellipse transform="matrix(0.9323 -0.3616 0.3616 0.9323 -121.2289 337.785)" class="st1" cx="841.9" cy="492.8" rx="7.7" ry="7.7"/>
	
		<ellipse transform="matrix(4.728432e-002 -0.9989 0.9989 4.728432e-002 -355.4011 608.0764)" class="st1" cx="141.1" cy="490.3" rx="5.9" ry="5.9"/>
</g>
<rect y="508.4" class="st0" width="1280" height="128.6"/>
</svg>
