<?xml version="1.0" encoding="utf-8"?>
<!-- Generator: Adobe Illustrator 19.2.1, SVG Export Plug-In . SVG Version: 6.00 Build 0)  -->
<svg version="1.1" id="Ebene_1" xmlns="http://www.w3.org/2000/svg" xmlns:xlink="http://www.w3.org/1999/xlink" x="0px" y="0px"
	 viewBox="0 0 1280 247" style="enable-background:new 0 0 1280 247;" xml:space="preserve">
<style type="text/css">
	.st0{fill:#EF4E22;}
	.st1{enable-background:new    ;}
	.st2{fill:#F7E967;}
</style>
<path class="st0" d="M0,157.8c0,0,574-141.3,1280,0.1v29l1,61.1H-1l1-33.7V157.8z"/>
<g>
	<path class="st0" d="M420.2,13.9c3.7-8.3-13.2-15.5-19.3-11.6c-6.5,4.2-5.3,14.4-2.9,20.3c1.8,4.4,5.3,7.7,7.8,11.4
		c1.1,1.9,1.7,4.2,3.2,5.5l1-2.2l0,0l0,0c3.7-3.5,16.4-4.8,19.5-7.1C439.9,22.2,427.6,3.4,420.2,13.9z"/>
</g>
<g class="st1">
	<path class="st2" d="M803.9,52.1l-6.6,4.2l-1-1.5l-1.9-13l-4.4,2.8l-1-1.5l6.5-4.1l0.9,1.5l1.7,13.1l4.6-2.9L803.9,52.1z"/>
	<path class="st2" d="M814.5,45.4l-7.9,5l-1.1-1.7l-3.6-17.9l-4.8,3l-1.1-1.7l7.3-4.6l1,1.6l3.5,18l5.6-3.5L814.5,45.4z"/>
	<path class="st2" d="M824.1,39.3l-6.6,4.2l-1-1.5l-1.9-13l-4.4,2.8l-1-1.5l6.5-4.1l0.9,1.5l1.7,13.1l4.6-2.9L824.1,39.3z"/>
</g>
<g>
	<path class="st2" d="M772.5,70.2c-2.1,9.2-3.3,14.7-3.9,17.6h7.6L772.5,70.2z"/>
	<path class="st2" d="M737.4,70.9L734,87.8h7.2C740.5,85,739.4,79.7,737.4,70.9z"/>
	<path class="st2" d="M754.7,32.5h0.4c0.2,0.1,0.5,0.2,0.8,0.4v-8.5h-2v8.5C754.2,32.7,754.5,32.6,754.7,32.5z"/>
	<g>
		<path class="st2" d="M752.5,24.6c0-1.3,1.1-2.4,2.4-2.4c1.3,0,2.4,1.1,2.4,2.4s-1.1,2.4-2.4,2.4S752.5,25.9,752.5,24.6z"/>
	</g>
	<path class="st2" d="M754.9,48.3c7,0,13.1,1.2,17.2,3.2c-2.8-12-15.2-18.2-17-19h-0.4c-1.9,0.9-14.3,7-17,19
		C741.7,49.5,747.8,48.3,754.9,48.3z"/>
	<g>
		<path class="st2" d="M755,88c-6.1,0-11,1.5-11,3.3s4.9,3.3,11,3.3s11-1.5,11-3.3S761.1,88,755,88z M755,92.6
			c-3.5,0-6.3-0.5-6.3-1.1s2.8-1.1,6.3-1.1s6.3,0.5,6.3,1.1S758.5,92.6,755,92.6z"/>
	</g>
	<path class="st2" d="M772.5,54.6c-3.3-2.1-9.7-3.8-17.6-3.8c-8,0-14.4,1.7-17.7,3.8c-0.2,2.3-0.1,4.9,0.6,7.6
		c3.3,14.3,5,22,5.7,25.5c2.2-1.2,5.3-1.8,7.8-2l0.5-3.9h6.4l0.5,3.9c2.4,0.3,5.4,0.8,7.5,2c0.7-3.4,2.4-11.1,5.7-25.5
		C772.6,59.5,772.8,56.9,772.5,54.6z M753,72.1l1.4-8.7c0.3-1.5,0.5-3.7,0.7-5.3h0.1c0.2,1.6,0.4,3.7,0.7,5.3l1.4,8.7H753z"/>
</g>
<g>
	<path class="st2" d="M876.1,92.8c-8.6-6.5-13.8-10.2-16.5-12.2l-3.5,7.9L876.1,92.8z"/>
	<path class="st2" d="M891.6,55.8l-16-11.4l-3.3,7.5C875.5,52.6,881.6,53.8,891.6,55.8z"/>
	<path class="st2" d="M923.7,91.7l-0.2,0.4c-0.2,0.1-0.5,0.4-0.8,0.7l8.8,3.9l0.9-2.1l-8.8-3.9C923.7,91.1,923.7,91.4,923.7,91.7z"
		/>
	<g>
		<path class="st2" d="M933,93c1.4,0.6,2,2.2,1.4,3.6s-2.2,2-3.6,1.4c-1.4-0.6-2-2.2-1.4-3.6S931.6,92.4,933,93z"/>
	</g>
	<path class="st2" d="M907.1,84.5c-3.3,7.3-7.3,13.1-11.3,16.4c13.8,2.6,26-7.4,27.7-8.9l0.2-0.4c0-2.4-0.6-18.1-12-26.6
		C911.9,70.2,910.4,77.1,907.1,84.5z"/>
	<g>
		<path class="st2" d="M865.6,66.3c2.8-6.3,3.5-12.2,1.6-13c-1.9-0.9-5.8,3.6-8.6,9.9s-3.5,12.2-1.6,13
			C859,77,862.8,72.6,865.6,66.3z M860.9,64.1c1.6-3.6,3.4-6.3,4-6.1c0.6,0.3-0.2,3.4-1.8,7s-3.4,6.3-4,6.1
			C858.4,70.9,859.2,67.8,860.9,64.1z"/>
	</g>
	<path class="st2" d="M892.4,100c3.7-2.5,8.4-8.3,12.1-16.7c3.7-8.4,4.9-15.8,4.3-20.2c-2.3-1.3-5-2.3-8.2-2.9
		c-16.5-3.2-25.3-5-29.3-5.9c0.3,2.8-0.6,6.4-1.5,9.1l3.8,2.4l-3,6.7l-4.3-1.3c-1.4,2.4-3.3,5.3-5.5,6.9c3.3,2.4,10.5,7.6,24,17.8
		C887.3,97.9,889.9,99.2,892.4,100z M883.1,71.5l8.4,5.4c1.5,1,3.6,2.2,5.2,3.1v0.1c-1.7-0.6-4.1-1.3-5.8-1.8l-9.7-2.6L883.1,71.5z"
		/>
</g>
<g>
	<path class="st2" d="M800.8,73.7c4.8-1,7.7-1.7,9.2-2l-1.7-3.6L800.8,73.7z"/>
	<path class="st2" d="M808.9,90.2l8.8-2.1l-1.6-3.4C814.9,85.7,812.6,87.4,808.9,90.2z"/>
	<path class="st2" d="M786.8,90.5l-0.1-0.2c0-0.1,0-0.3,0-0.5l-4,1.9l0.4,1l4-1.9C787,90.7,786.9,90.6,786.8,90.5z"/>
	<g>
		<path class="st2" d="M783.5,93.3c-0.6,0.3-1.4,0-1.7-0.6s0-1.4,0.6-1.7c0.6-0.3,1.4,0,1.7,0.6C784.4,92.2,784.2,93,783.5,93.3z"/>
	</g>
	<path class="st2" d="M794.3,86.9c-1.5-3.3-2.3-6.5-2.3-8.9c-5.1,4-5.3,11.2-5.3,12.3l0.1,0.2c0.8,0.7,6.5,5.3,12.8,3.9
		C797.8,92.9,795.9,90.3,794.3,86.9z"/>
	<g>
		<path class="st2" d="M813.1,78.1c1.3,2.9,3.1,4.9,4,4.5s0.5-3.1-0.8-6s-3.1-4.9-4-4.5C811.4,72.5,811.8,75.2,813.1,78.1z
			 M815.3,77.1c0.8,1.6,1.2,3.1,0.9,3.2s-1.1-1.1-1.9-2.7c-0.8-1.6-1.2-3.1-0.9-3.2C813.7,74.2,814.6,75.4,815.3,77.1z"/>
	</g>
	<path class="st2" d="M793.4,77.1c-0.3,2,0.3,5.4,2.1,9.2c1.8,3.8,4,6.5,5.7,7.6c1.2-0.4,2.3-1,3.5-1.9c6.1-4.7,9.4-7.2,10.9-8.3
		c-1.1-0.8-2-2.1-2.7-3.3l-2,0.6l-1.4-3l1.7-1.1c-0.4-1.2-0.8-2.7-0.7-4c-1.8,0.4-5.8,1.3-13.4,2.9C795.7,76,794.5,76.5,793.4,77.1z
		 M806,82.5l-4.4,1.3c-0.8,0.2-1.9,0.6-2.6,0.8l0,0c0.7-0.4,1.7-1,2.4-1.5l3.8-2.6L806,82.5z"/>
</g>
<g>
	<path class="st2" d="M959.4,84.7c4.8-1,7.7-1.7,9.2-2l-1.7-3.6L959.4,84.7z"/>
	<path class="st2" d="M967.5,101.3l8.8-2.1l-1.6-3.4C973.5,96.7,971.2,98.4,967.5,101.3z"/>
	<path class="st2" d="M945.4,101.5l-0.1-0.2c0-0.1,0-0.3,0-0.5l-4,1.9l0.4,1l4-1.9C945.6,101.7,945.5,101.6,945.4,101.5z"/>
	<g>
		<path class="st2" d="M942.1,104.3c-0.6,0.3-1.4,0-1.7-0.6s0-1.4,0.6-1.7c0.6-0.3,1.4,0,1.7,0.6C943,103.3,942.8,104,942.1,104.3z"
			/>
	</g>
	<path class="st2" d="M952.9,97.9c-1.5-3.3-2.3-6.5-2.3-8.9c-5.1,4-5.3,11.2-5.3,12.3l0.1,0.2c0.8,0.7,6.5,5.3,12.8,3.9
		C956.4,103.9,954.4,101.3,952.9,97.9z"/>
	<g>
		<path class="st2" d="M971.7,89.1c1.3,2.9,3.1,4.9,4,4.5s0.5-3.1-0.8-6s-3.1-4.9-4-4.5C970,83.6,970.4,86.2,971.7,89.1z
			 M973.9,88.1c0.8,1.6,1.2,3.1,0.9,3.2s-1.1-1.1-1.9-2.7c-0.8-1.6-1.2-3.1-0.9-3.2C972.3,85.2,973.1,86.5,973.9,88.1z"/>
	</g>
	<path class="st2" d="M952,88.2c-0.3,2,0.3,5.4,2.1,9.2c1.8,3.8,4,6.5,5.7,7.6c1.2-0.4,2.3-1,3.5-1.9c6.1-4.7,9.4-7.2,10.9-8.3
		c-1.1-0.8-2-2.1-2.7-3.3l-2,0.6l-1.4-3l1.7-1.1c-0.4-1.2-0.8-2.7-0.7-4c-1.8,0.4-5.8,1.3-13.4,2.9C954.3,87.1,953,87.6,952,88.2z
		 M964.6,93.6l-4.4,1.3c-0.8,0.2-1.9,0.6-2.6,0.8l0,0c0.7-0.4,1.7-1,2.4-1.5l3.8-2.6L964.6,93.6z"/>
</g>
<g>
	<path class="st2" d="M407.5,62.9c-0.7,13.3-1.1,21.2-1.2,25.3l10.6-1.8L407.5,62.9z"/>
	<path class="st2" d="M358.8,72.2L358,96.5l10-1.7C366.5,91,363.7,83.9,358.8,72.2z"/>
	<path class="st2" d="M373.7,14.6l0.5-0.1c0.3,0.1,0.7,0.2,1.3,0.4l-2-11.8l-2.8,0.5l2,11.8C373.1,15.1,373.5,14.8,373.7,14.6z"/>
	<g>
		<path class="st2" d="M368.8,4.2c-0.3-1.8,0.9-3.6,2.8-3.9c1.8-0.3,3.6,0.9,3.9,2.8c0.3,1.8-0.9,3.6-2.8,3.9
			C370.9,7.3,369.1,6.1,368.8,4.2z"/>
	</g>
	<path class="st2" d="M377.8,36.6c9.8-1.7,18.5-1.4,24.6,0.3c-6.8-16-25.5-21.7-28.1-22.4l-0.5,0.1c-2.4,1.7-18.2,13.1-19.2,30.5
		C359.8,41.4,367.9,38.3,377.8,36.6z"/>
	<g>
		<path class="st2" d="M387.4,91.8c-8.4,1.4-14.9,4.7-14.5,7.3c0.4,2.6,7.6,3.5,16.1,2c8.4-1.4,14.9-4.7,14.5-7.3
			C403,91.3,395.8,90.4,387.4,91.8z M388.4,98.2c-4.8,0.8-8.8,0.8-9,0c-0.1-0.8,3.7-2.1,8.5-2.9s8.8-0.8,9,0
			C397.1,96,393.3,97.3,388.4,98.2z"/>
	</g>
	<path class="st2" d="M403.8,41.2c-5.1-2.1-14.3-2.9-25.4-1s-19.6,5.7-23.7,9.4c0.3,3.3,1.1,6.8,2.6,10.4c8,19.2,12.1,29.4,14,34.1
		c2.7-2.2,7-3.7,10.4-4.6l-0.1-5.5l8.9-1.5l1.7,5.3c3.5-0.2,7.7-0.2,10.9,1c0.2-5,0.7-16,1.9-36.8C405,47.9,404.6,44.4,403.8,41.2z
		 M380.8,70.2l-0.2-12.4c0-2.2-0.2-5.3-0.3-7.5h0.1c0.6,2.1,1.4,5.1,2.2,7.1l4,11.7L380.8,70.2z"/>
</g>
<g>
	<path class="st2" d="M450.2,61.9c4.4,7,7,11.1,8.5,13.3l4.7-4.7L450.2,61.9z"/>
	<path class="st2" d="M428.9,84l8.3,12.5l4.4-4.4C439.5,90.7,435.6,88.2,428.9,84z"/>
	<path class="st2" d="M415.8,49.5l0.2-0.2c0.2-0.1,0.4-0.1,0.8-0.3l-5.2-5.2l-1.2,1.2l5.2,5.2C415.7,50,415.8,49.7,415.8,49.5z"/>
	<g>
		<path class="st2" d="M409.6,46c-0.8-0.8-0.8-2.1,0-3c0.8-0.8,2.1-0.8,3,0c0.8,0.8,0.8,2.1,0,3C411.7,46.9,410.4,46.9,409.6,46z"/>
	</g>
	<path class="st2" d="M425.8,59.2c4.3-4.3,8.8-7.3,12.6-8.7c-9.2-5.6-20.6-1.8-22.3-1.2l-0.2,0.2c-0.6,1.7-4.5,13.1,1.3,22.3
		C418.4,68.1,421.4,63.6,425.8,59.2z"/>
	<g>
		<path class="st2" d="M450.4,83.7c-3.8,3.8-5.9,7.7-4.7,8.9c1.1,1.1,5.1-1,8.9-4.7c3.8-3.8,5.9-7.7,4.7-8.9
			C458.1,77.8,454.1,79.9,450.4,83.7z M453.2,86.5c-2.1,2.1-4.2,3.6-4.5,3.2c-0.4-0.4,1.1-2.4,3.2-4.5s4.2-3.6,4.5-3.2
			C456.8,82.3,455.4,84.3,453.2,86.5z"/>
	</g>
	<path class="st2" d="M440.5,52.2c-3.3,0.8-8.3,3.7-13.2,8.6c-4.9,4.9-7.8,9.9-8.6,13.3c1.3,1.6,3,3,5,4.3
		c10.9,6.8,16.7,10.5,19.3,12.2c0.6-2.1,2.2-4.4,3.6-6.1l-2-2.7l4-4l2.7,2.1c1.7-1.4,3.8-2.9,5.8-3.4c-1.7-2.6-5.4-8.3-12.2-19.3
		C443.6,55.1,442.1,53.5,440.5,52.2z M439.3,75.1l-4.5-6.2c-0.8-1.1-2-2.6-2.8-3.6l0.1-0.1c1.1,0.9,2.5,2,3.7,2.8l6.2,4.5
		L439.3,75.1z"/>
</g>
<g>
	<path class="st2" d="M547.8,87.9c-7.1-4.3-11.3-6.7-13.5-8l-2.1,6.3L547.8,87.9z"/>
	<path class="st2" d="M556.9,58.6l-13.1-7.5l-2,6C544.4,57.4,549,57.9,556.9,58.6z"/>
	<path class="st2" d="M584.1,83.5l-0.1,0.3c-0.1,0.1-0.3,0.3-0.6,0.6l7,2.3L591,85l-7-2.3C584,83,584,83.3,584.1,83.5z"/>
	<g>
		<path class="st2" d="M591.2,83.8c1.1,0.4,1.7,1.5,1.3,2.6s-1.5,1.7-2.6,1.3c-1.1-0.4-1.7-1.5-1.3-2.6
			C588.9,84,590.1,83.4,591.2,83.8z"/>
	</g>
	<path class="st2" d="M570.8,79.3c-1.9,5.8-4.6,10.5-7.3,13.4c10.7,0.9,19.3-7.7,20.4-8.9l0.1-0.3c-0.2-1.8-1.9-13.8-11.1-19.3
		C573.4,68.1,572.8,73.4,570.8,79.3z"/>
	<g>
		<path class="st2" d="M537.8,68.6c1.7-5,1.8-9.5,0.2-10c-1.5-0.5-4.1,3.2-5.8,8.2s-1.8,9.5-0.2,10
			C533.6,77.3,536.2,73.6,537.8,68.6z M534.1,67.3c0.9-2.9,2.1-5.1,2.6-4.9c0.5,0.2,0.1,2.6-0.8,5.5c-0.9,2.9-2.1,5.1-2.6,4.9
			C532.7,72.6,533.1,70.2,534.1,67.3z"/>
	</g>
	<path class="st2" d="M560.8,92.2c2.6-2.2,5.8-7,7.9-13.6c2.2-6.6,2.5-12.4,1.7-15.7c-1.9-0.8-4-1.4-6.5-1.6
		c-12.8-1.2-19.6-1.9-22.7-2.2c0.4,2.1,0,4.9-0.5,7l3,1.5l-1.8,5.3l-3.4-0.6c-0.9,2-2.1,4.3-3.7,5.7c2.7,1.5,8.6,5,19.6,11.7
		C556.8,91,558.8,91.8,560.8,92.2z M551.6,71.2l6.8,3.5c1.2,0.6,2.9,1.4,4.2,2v0.1c-1.3-0.3-3.2-0.7-4.5-0.9l-7.6-1.2L551.6,71.2z"
		/>
</g>
</svg>
