<svg version="1.1" id="uebergang_mappe-anfahrt" xmlns="http://www.w3.org/2000/svg" xmlns:xlink="http://www.w3.org/1999/xlink" x="0px"
	 y="0px" width="1280px" height="208.088px" viewBox="0 -104.044 1280 208.088" enable-background="new 0 -104.044 1280 208.088"
	 xml:space="preserve">
<path fill="#D4EDED" d="M1238.508-16.742L1103.691,2.292L986.356-13.292l-5.206,1.321l-7.906-27.73l27.359-2.536l-4.854-24.05
	l-56.927,5.955l-9.266,13.902l11.474,10.149l27.852-1.971l9.739,26.922l-22.071,5.6l-93.03,23.606l-61.939-4.129l0.001,0
	l11.521-54.997l41.709,3.208l26.583-14.667l-19.249-24.75l-96.711-7.334l-2.292,38.043l41.251,5.041l-7.062,55.173l-85.065-5.671
	l-102.819,22.95L498.677-19.709H339.659l-84.26-47.666L125.586-53.626c0,0-117.336-48.584-125.586-50.418v81.336L123.753,33.46
	L247.946,4.125l104.062,41.252l146.958-23.559l109.108,9.231h0l107.155,9.067L855.269,82.96l131.087-19.898l117.335,40.981
	L1280,85.59V-20.547L1238.508-16.742z"/>
<polygon fill="#04BFBF" points="609.514,31.171 608.073,31.049 608.073,31.049 498.965,21.818 352.008,45.376 247.946,4.125
	123.753,33.46 0,-22.708 0,104.043 1103.691,104.043 986.356,63.062 855.269,82.96 715.228,40.117 609.515,31.171 609.515,31.171
	"/>
<polygon fill="#04BFBF" points="1280,85.59 1103.691,104.043 1280,104.043 "/>
<g>
	<path fill="#EE4E22" d="M944.136-50.307l1.123-0.108l1.622,5.063l0.7-7.481l1.039-0.101l-0.924,8.528l-1.41,0.136l-1.463-4.91
		l-0.483,5.098l-1.41,0.136l-2.575-8.19l1.039-0.1l2.131,7.208L944.136-50.307z"/>
	<path fill="#EE4E22" d="M951.462-48.471l0.354,3.667l-1.027,0.099l-0.808-8.361l2.21-0.213c1.434-0.138,2.222,0.533,2.364,2.014
		c0.054,0.558-0.007,1.053-0.182,1.488c-0.175,0.435-0.454,0.751-0.837,0.949l2.029,3.661l-1.026,0.099l-1.979-3.51L951.462-48.471z
		 M951.109-52.378l0.302,3.117l0.848-0.082c0.454-0.043,0.791-0.235,1.012-0.574c0.221-0.338,0.307-0.754,0.259-1.248
		c-0.092-0.956-0.616-1.387-1.571-1.295L951.109-52.378z"/>
	<path fill="#EE4E22" d="M960.695-47.747c0.065,0.677-0.079,1.224-0.433,1.64c-0.354,0.416-0.902,0.66-1.647,0.731
		c-0.744,0.072-1.33-0.063-1.757-0.403c-0.427-0.34-0.672-0.85-0.737-1.527l-0.408-4.229c-0.065-0.676,0.078-1.223,0.432-1.639
		c0.354-0.416,0.903-0.66,1.647-0.731c0.745-0.072,1.33,0.063,1.757,0.403s0.673,0.85,0.738,1.526L960.695-47.747z M957.191-47.203
		c0.035,0.367,0.18,0.64,0.435,0.82s0.557,0.254,0.907,0.22c0.351-0.034,0.636-0.164,0.854-0.39c0.22-0.226,0.312-0.522,0.276-0.889
		l-0.447-4.634c-0.036-0.366-0.183-0.64-0.441-0.82c-0.258-0.18-0.563-0.253-0.913-0.219c-0.351,0.034-0.633,0.164-0.849,0.389
		c-0.216,0.226-0.306,0.522-0.27,0.889L957.191-47.203z"/>
	<path fill="#EE4E22" d="M966.949-46.265l-1.504,0.145l-2.943-7.383l0.733,7.596l-1.052,0.102l-0.808-8.361l1.756-0.169l2.645,7.038
		l-0.697-7.226l1.063-0.103L966.949-46.265z"/>
	<path fill="#EE4E22" d="M972.636-46.814l-2.114,0.204c-0.725,0.07-1.304-0.059-1.737-0.386c-0.434-0.328-0.685-0.847-0.753-1.555
		l-0.392-4.049c-0.067-0.701,0.096-1.255,0.491-1.663c0.395-0.408,0.962-0.647,1.702-0.719l1.756-0.169l0.077,0.8l-1.875,0.181
		c-0.366,0.036-0.652,0.17-0.859,0.403c-0.206,0.233-0.293,0.525-0.259,0.875l0.43,4.456c0.035,0.358,0.17,0.63,0.404,0.817
		c0.235,0.186,0.532,0.262,0.891,0.228l1.11-0.107l-0.317-3.285l-1.075,0.104l-0.075-0.788l2.126-0.206L972.636-46.814z"/>
	<path fill="#EE4E22" d="M978.489-53.624l1.122-0.108l1.622,5.063l0.7-7.482l1.039-0.1l-0.924,8.528l-1.409,0.136l-1.464-4.91
		l-0.483,5.098l-1.409,0.136l-2.575-8.19l1.039-0.1l2.13,7.208L978.489-53.624z"/>
	<path fill="#EE4E22" d="M985.588-56.503l1.588-0.154l2.624,8.186l-0.98,0.095l-0.822-2.404l-2.175,0.21l-0.3,2.512l-1.015,0.098
		L985.588-56.503z M987.74-51.575l-1.275-4.217l-0.084,0.008l-0.456,4.384L987.74-51.575z"/>
	<path fill="#EE4E22" d="M992.69-48.75l-1.051,0.102l-0.321-3.32l-2.171-4.878l1.052-0.102l1.576,3.838l0.836-4.071l1.052-0.102
		l-1.293,5.212L992.69-48.75z"/>
</g>
<g>
	<path fill="#EE4E22" d="M774.049-57.439l1.289-13.94l5.874,0.543l-0.125,1.354l-4.122-0.381l-0.441,4.78l3.106,0.287l-0.126,1.354
		l-3.106-0.287l-0.596,6.452L774.049-57.439z"/>
	<path fill="#EE4E22" d="M788.114-62.927l-3.963-0.366l-0.622,6.73l-1.753-0.162l1.289-13.94l1.753,0.162l-0.545,5.896l3.963,0.366
		l0.545-5.896l1.752,0.162l-1.288,13.94l-1.753-0.162L788.114-62.927z"/>
	<path fill="#EE4E22" d="M803.255-65.063c-0.119,1.288-0.562,2.262-1.325,2.92c-0.764,0.66-1.79,0.93-3.077,0.811l-1.395-0.129
		l-0.566,6.134l-1.753-0.162l1.288-13.94l3.525,0.326C802.382-68.879,803.483-67.533,803.255-65.063z M798.059-67.954l-0.479,5.178
		l1.274,0.118c0.756,0.069,1.368-0.135,1.834-0.614c0.466-0.479,0.737-1.13,0.813-1.953c0.146-1.593-0.576-2.464-2.169-2.61
		L798.059-67.954z"/>
	<path fill="#EE4E22" d="M811.508-57.452c-0.104,1.129-0.511,1.979-1.22,2.549s-1.684,0.799-2.925,0.684
		c-1.242-0.114-2.158-0.518-2.751-1.208c-0.592-0.69-0.836-1.601-0.731-2.729l0.651-7.05c0.104-1.128,0.511-1.978,1.22-2.548
		s1.684-0.799,2.926-0.685c1.241,0.115,2.158,0.519,2.75,1.209c0.593,0.691,0.836,1.601,0.732,2.729L811.508-57.452z
		 M805.603-57.656c-0.057,0.611,0.095,1.104,0.455,1.479c0.36,0.374,0.833,0.589,1.417,0.644c0.584,0.054,1.091-0.07,1.521-0.372
		s0.673-0.758,0.729-1.368l0.714-7.728c0.057-0.61-0.099-1.104-0.466-1.479s-0.843-0.59-1.427-0.644s-1.088,0.069-1.511,0.372
		c-0.423,0.302-0.662,0.759-0.719,1.37L805.603-57.656z"/>
	<path fill="#EE4E22" d="M815.233-53.632l1.167-12.626l-2.788-0.258l0.121-1.314l7.329,0.678l-0.122,1.314l-2.787-0.258
		l-1.167,12.626L815.233-53.632z"/>
	<path fill="#EE4E22" d="M825.384-54.702c0.38-0.42,0.598-0.93,0.653-1.526c0.055-0.598-0.008-1.116-0.188-1.554
		c-0.181-0.439-0.425-0.797-0.734-1.072c-0.31-0.276-0.643-0.579-1.001-0.906s-0.69-0.643-0.997-0.946
		c-0.307-0.303-0.548-0.696-0.724-1.181c-0.177-0.485-0.237-1.027-0.182-1.624c0.098-1.063,0.495-1.883,1.191-2.461
		c0.697-0.579,1.608-0.815,2.737-0.711l1.613,0.148l-0.122,1.314l-1.533-0.142c-0.637-0.059-1.141,0.103-1.511,0.482
		c-0.37,0.382-0.577,0.811-0.621,1.289c-0.045,0.478,0.027,0.899,0.214,1.266c0.188,0.365,0.437,0.676,0.748,0.932
		c0.311,0.257,0.648,0.556,1.012,0.897c0.362,0.342,0.696,0.684,1,1.026c0.302,0.343,0.539,0.79,0.709,1.341
		c0.17,0.552,0.224,1.165,0.161,1.843c-0.115,1.248-0.559,2.157-1.327,2.729c-0.769,0.571-1.771,0.8-3.006,0.687l-2.091-0.193
		l0.121-1.314l2.171,0.201C824.435-54.107,825.003-54.282,825.384-54.702z"/>
	<path fill="#EE4E22" d="M829.392-52.324l1.288-13.94l3.466,0.32c1.208,0.112,2.115,0.504,2.724,1.176
		c0.607,0.672,0.856,1.6,0.747,2.781l-0.622,6.73c-0.109,1.183-0.524,2.045-1.243,2.587c-0.721,0.543-1.685,0.766-2.895,0.666
		L829.392-52.324z M831.289-53.513l1.692,0.156c0.611,0.057,1.121-0.073,1.533-0.391c0.411-0.316,0.643-0.767,0.697-1.352
		l0.681-7.369c0.054-0.583-0.092-1.068-0.438-1.456c-0.347-0.387-0.824-0.608-1.436-0.665l-1.692-0.156L831.289-53.513z"/>
	<path fill="#EE4E22" d="M842.351-65.185l2.648,0.245l1.738,14.22l-1.633-0.15l-0.597-4.193l-3.625-0.335l-1.274,4.02l-1.693-0.156
		L842.351-65.185z M844.334-56.445l-0.771-7.303l-0.14-0.013l-2.116,7.035L844.334-56.445z"/>
	<path fill="#EE4E22" d="M850.143-50.405l-1.753-0.162l1.289-13.94l2.648,0.244l1.907,8.492l0.14,0.013l3.49-7.992l2.549,0.235
		l-1.288,13.94l-1.753-0.162l1.095-11.85l-3.421,7.898l-1.892-0.175l-1.914-8.411L850.143-50.405z"/>
</g>
</svg>
